<?xml version="1.0" encoding="UTF-8" standalone="no"?><svg xmlns="http://www.w3.org/2000/svg" xmlns:xlink="http://www.w3.org/1999/xlink" contentStyleType="text/css" height="433px" preserveAspectRatio="none" style="width:755px;height:433px;background:#FFFFFF;" version="1.1" viewBox="0 0 755 433" width="755px" zoomAndPan="magnify"><defs/><g><rect fill="#DDDDDD" height="414.0234" style="stroke:#181818;stroke-width:0.5;" width="748" x="1" y="6"/><text fill="#FFFFFF" font-family="sans-serif" font-size="13" font-weight="bold" lengthAdjust="spacing" textLength="103" x="323.5" y="18.0669">PKB (To QPS)</text><rect fill="#FFFFFF" height="350.5938" style="stroke:#181818;stroke-width:1.0;" width="10" x="42" y="66.4297"/><rect fill="#FFFFFF" height="29.1328" style="stroke:#181818;stroke-width:1.0;" width="10" x="204" y="87.5625"/><rect fill="#FFFFFF" height="29.1328" style="stroke:#181818;stroke-width:1.0;" width="10" x="204" y="204.0938"/><rect fill="#FFFFFF" height="29.1328" style="stroke:#181818;stroke-width:1.0;" width="10" x="204" y="320.625"/><rect fill="#FFFFFF" height="29.1328" style="stroke:#181818;stroke-width:1.0;" width="10" x="348.5" y="145.8281"/><rect fill="#FFFFFF" height="29.1328" style="stroke:#181818;stroke-width:1.0;" width="10" x="501" y="262.3594"/><rect fill="#FFFFFF" height="29.1328" style="stroke:#181818;stroke-width:1.0;" width="10" x="662.5" y="378.8906"/><line style="stroke:#181818;stroke-width:0.5;stroke-dasharray:5.0,5.0;" x1="47" x2="47" y1="56.4297" y2="426.0234"/><line style="stroke:#181818;stroke-width:0.5;stroke-dasharray:5.0,5.0;" x1="209" x2="209" y1="56.4297" y2="426.0234"/><line style="stroke:#181818;stroke-width:0.5;stroke-dasharray:5.0,5.0;" x1="353" x2="353" y1="56.4297" y2="426.0234"/><line style="stroke:#181818;stroke-width:0.5;stroke-dasharray:5.0,5.0;" x1="506" x2="506" y1="56.4297" y2="426.0234"/><line style="stroke:#181818;stroke-width:0.5;stroke-dasharray:5.0,5.0;" x1="667" x2="667" y1="56.4297" y2="426.0234"/><rect fill="#3333C4" height="30.2969" rx="2.5" ry="2.5" style="stroke:#181818;stroke-width:0.5;" width="64" x="15" y="25.1328"/><text fill="#FFFFFF" font-family="sans-serif" font-size="14" lengthAdjust="spacing" textLength="29" x="32.5" y="45.1279">QPS</text><rect fill="#3333C4" height="30.2969" rx="2.5" ry="2.5" style="stroke:#181818;stroke-width:0.5;" width="112" x="153" y="25.1328"/><text fill="#FFFFFF" font-family="sans-serif" font-size="14" lengthAdjust="spacing" textLength="98" x="160" y="45.1279">:ReadStorage</text><rect fill="#3333C4" height="30.2969" rx="2.5" ry="2.5" style="stroke:#181818;stroke-width:0.5;" width="117" x="295" y="25.1328"/><text fill="#FFFFFF" font-family="sans-serif" font-size="14" lengthAdjust="spacing" textLength="103" x="302" y="45.1279">:StmtManager</text><rect fill="#3333C4" height="30.2969" rx="2.5" ry="2.5" style="stroke:#181818;stroke-width:0.5;" width="128" x="442" y="25.1328"/><text fill="#FFFFFF" font-family="sans-serif" font-size="14" lengthAdjust="spacing" textLength="114" x="449" y="45.1279">:ParentManager</text><rect fill="#3333C4" height="30.2969" rx="2.5" ry="2.5" style="stroke:#181818;stroke-width:0.5;" width="135" x="600" y="25.1328"/><text fill="#FFFFFF" font-family="sans-serif" font-size="14" lengthAdjust="spacing" textLength="121" x="607" y="45.1279">:PatternManager</text><rect fill="#FFFFFF" height="350.5938" style="stroke:#181818;stroke-width:1.0;" width="10" x="42" y="66.4297"/><rect fill="#FFFFFF" height="29.1328" style="stroke:#181818;stroke-width:1.0;" width="10" x="204" y="87.5625"/><rect fill="#FFFFFF" height="29.1328" style="stroke:#181818;stroke-width:1.0;" width="10" x="204" y="204.0938"/><rect fill="#FFFFFF" height="29.1328" style="stroke:#181818;stroke-width:1.0;" width="10" x="204" y="320.625"/><rect fill="#FFFFFF" height="29.1328" style="stroke:#181818;stroke-width:1.0;" width="10" x="348.5" y="145.8281"/><rect fill="#FFFFFF" height="29.1328" style="stroke:#181818;stroke-width:1.0;" width="10" x="501" y="262.3594"/><rect fill="#FFFFFF" height="29.1328" style="stroke:#181818;stroke-width:1.0;" width="10" x="662.5" y="378.8906"/><polygon fill="#181818" points="192,83.5625,202,87.5625,192,91.5625,196,87.5625" style="stroke:#181818;stroke-width:1.0;"/><line style="stroke:#181818;stroke-width:1.0;" x1="52" x2="198" y1="87.5625" y2="87.5625"/><text fill="#000000" font-family="sans-serif" font-size="13" lengthAdjust="spacing" textLength="117" x="69.5" y="82.4966">getStmtManager()</text><polygon fill="#181818" points="63,112.6953,53,116.6953,63,120.6953,59,116.6953" style="stroke:#181818;stroke-width:1.0;"/><line style="stroke:#181818;stroke-width:1.0;stroke-dasharray:2.0,2.0;" x1="57" x2="208" y1="116.6953" y2="116.6953"/><text fill="#000000" font-family="sans-serif" font-size="13" lengthAdjust="spacing" textLength="86" x="87.5" y="111.6294">StmtManager</text><polygon fill="#181818" points="336.5,141.8281,346.5,145.8281,336.5,149.8281,340.5,145.8281" style="stroke:#181818;stroke-width:1.0;"/><line style="stroke:#181818;stroke-width:1.0;" x1="52" x2="342.5" y1="145.8281" y2="145.8281"/><text fill="#000000" font-family="sans-serif" font-size="13" lengthAdjust="spacing" textLength="137" x="131.75" y="140.7622">getAllEntitiesEntries()</text><polygon fill="#181818" points="63,170.9609,53,174.9609,63,178.9609,59,174.9609" style="stroke:#181818;stroke-width:1.0;"/><line style="stroke:#181818;stroke-width:1.0;stroke-dasharray:2.0,2.0;" x1="57" x2="352.5" y1="174.9609" y2="174.9609"/><text fill="#000000" font-family="sans-serif" font-size="13" lengthAdjust="spacing" textLength="174" x="115.75" y="169.895">unordered_set&lt;int&gt;: result</text><polygon fill="#181818" points="192,200.0938,202,204.0938,192,208.0938,196,204.0938" style="stroke:#181818;stroke-width:1.0;"/><line style="stroke:#181818;stroke-width:1.0;" x1="52" x2="198" y1="204.0938" y2="204.0938"/><text fill="#000000" font-family="sans-serif" font-size="13" lengthAdjust="spacing" textLength="128" x="64" y="199.0278">getParentManager()</text><polygon fill="#181818" points="63,229.2266,53,233.2266,63,237.2266,59,233.2266" style="stroke:#181818;stroke-width:1.0;"/><line style="stroke:#181818;stroke-width:1.0;stroke-dasharray:2.0,2.0;" x1="57" x2="208" y1="233.2266" y2="233.2266"/><text fill="#000000" font-family="sans-serif" font-size="13" lengthAdjust="spacing" textLength="97" x="82" y="228.1606">parentManager</text><polygon fill="#181818" points="489,258.3594,499,262.3594,489,266.3594,493,262.3594" style="stroke:#181818;stroke-width:1.0;"/><line style="stroke:#181818;stroke-width:1.0;" x1="52" x2="495" y1="262.3594" y2="262.3594"/><text fill="#000000" font-family="sans-serif" font-size="13" lengthAdjust="spacing" textLength="168" x="192.5" y="257.2935">getAllRelationshipEntries()</text><polygon fill="#181818" points="63,287.4922,53,291.4922,63,295.4922,59,291.4922" style="stroke:#181818;stroke-width:1.0;"/><line style="stroke:#181818;stroke-width:1.0;stroke-dasharray:2.0,2.0;" x1="57" x2="505" y1="291.4922" y2="291.4922"/><text fill="#000000" font-family="sans-serif" font-size="13" lengthAdjust="spacing" textLength="203" x="177.5" y="286.4263">unordered_map&lt;int,int&gt;: result</text><polygon fill="#181818" points="192,316.625,202,320.625,192,324.625,196,320.625" style="stroke:#181818;stroke-width:1.0;"/><line style="stroke:#181818;stroke-width:1.0;" x1="52" x2="198" y1="320.625" y2="320.625"/><text fill="#000000" font-family="sans-serif" font-size="13" lengthAdjust="spacing" textLength="133" x="61.5" y="315.5591">getPatternManager()</text><polygon fill="#181818" points="63,345.7578,53,349.7578,63,353.7578,59,349.7578" style="stroke:#181818;stroke-width:1.0;"/><line style="stroke:#181818;stroke-width:1.0;stroke-dasharray:2.0,2.0;" x1="57" x2="208" y1="349.7578" y2="349.7578"/><text fill="#000000" font-family="sans-serif" font-size="13" lengthAdjust="spacing" textLength="102" x="79.5" y="344.6919">patternManager</text><polygon fill="#181818" points="650.5,374.8906,660.5,378.8906,650.5,382.8906,654.5,378.8906" style="stroke:#181818;stroke-width:1.0;"/><line style="stroke:#181818;stroke-width:1.0;" x1="52" x2="656.5" y1="378.8906" y2="378.8906"/><text fill="#000000" font-family="sans-serif" font-size="13" lengthAdjust="spacing" textLength="137" x="288.75" y="373.8247">getAllPatternEntries()</text><polygon fill="#181818" points="63,404.0234,53,408.0234,63,412.0234,59,408.0234" style="stroke:#181818;stroke-width:1.0;"/><line style="stroke:#181818;stroke-width:1.0;stroke-dasharray:2.0,2.0;" x1="57" x2="666.5" y1="408.0234" y2="408.0234"/><text fill="#000000" font-family="sans-serif" font-size="13" lengthAdjust="spacing" textLength="203" x="258.25" y="402.9575">unordered_map&lt;int,int&gt;: result</text><!--SRC=[dLJ1Rjf04BtxApR9eOdKIEi0ng08oHY8eeP2CL6FqSOUO1LxJUsbJHfLoeUqFvSlwTXWMAThadGlbkVDl7dpFDw306PS0Bc-l757LwC9EJ9xTejIu-05S3CroP5TwpUjbWOx8qUrWTiqkngiXfoMPMivw-I8zkicOblmQdHnwHPYQdZSkWxBzRYsQmySFOoIBCToUguUpbMPLfVgOHHcKfFQraxOSDJhNnN2MZrApJCTbWiRj9gcRUfX58OZ3sgM7aPXpIwbjA-7KLW3_QBEJfWt7KsSYtuXpQdPDSNi4heMD-ZNclMgX4nUpssSLJAWG9jQLdKBP6ZKwtNrervx_KcXZ-R7CD8xBfOiOH7fClzkdiGh4RXn62UPmloeETw21V4FBkPani8KLCWDMPgIHuFW6SH2baZoQ3TE0aYc2-xV2S1SKucMipzaW2SXWLW-B65BTtuEOXL1mYIFHQVpXdmkC3fZFhmXUxjFbRWoJ1Rzp28WJi9PQFnIhN1yYTcF_uotyp-7jC5zl1vyMu7mOKCzH1FP79oGpmNn8Pjqq_8-O_7uJo1cemYDMH1a7uwgEU-RQymIoNs-P49MVUWrIT4BrxT4CEGYNvElF90Bqg1wxgBQf7isRuVqOCPMePp2lSojYD29mevTrXAt6ytov4C8P0A-P68UuW8lU01a5iVoDhvVlqGGtKAIhbzydlXP6g9a_AbBZgSn-JBsJeobuiKXHWu9IpD4lS1AISzFlziJO867ku52df_-P1LAP6-b9oCvP0BJahoJybvPTzX6Kz47jQuKsTjnp2GwA3Qf6xdbOAaUH40o3val-NSc8JF3o0mvxQXJjiaSfAB- -6HNeQGPgZ6dI85CRNLg8m1jtQQZafbtTCAmBoIN759y9lZ0nav1eFAgpcuRhqJ-6qDmauBCBfLEcoIGujgfEbIQYibB_hzhzgLQ-ShqfIx5_1C8ytipNV2bneDIZL7U4uqF4LjcFdoiyg9CL-c6kaxlj4CjVTKFDRamP1FLUb4YVx7r_-M6ol0N]--></g></svg>