<?xml version="1.0" encoding="UTF-8" standalone="no"?><svg xmlns="http://www.w3.org/2000/svg" xmlns:xlink="http://www.w3.org/1999/xlink" contentStyleType="text/css" height="1163px" preserveAspectRatio="none" style="width:1898px;height:1163px;background:#FFFFFF;" version="1.1" viewBox="0 0 1898 1163" width="1898px" zoomAndPan="magnify"><defs/><g><rect fill="#DDDDDD" height="1144.0938" style="stroke:#181818;stroke-width:0.5;" width="1885.5" x="1" y="6"/><text fill="#FFFFFF" font-family="sans-serif" font-size="13" font-weight="bold" lengthAdjust="spacing" textLength="30" x="928.75" y="18.0669">QPS</text><rect fill="#FFFFFF" height="1080.6641" style="stroke:#181818;stroke-width:1.0;" width="10" x="42" y="66.4297"/><rect fill="#FFFFFF" height="1035.3984" style="stroke:#181818;stroke-width:1.0;" width="10" x="384" y="102.6953"/><rect fill="#FFFFFF" height="31.2969" style="stroke:#181818;stroke-width:1.0;" width="10" x="682.5" y="141.8281"/><rect fill="#FFFFFF" height="29.1328" style="stroke:#181818;stroke-width:1.0;" width="10" x="682.5" y="202.2578"/><rect fill="#FFFFFF" height="31.2969" style="stroke:#181818;stroke-width:1.0;" width="10" x="832" y="270.5234"/><rect fill="#FFFFFF" height="201.125" style="stroke:#181818;stroke-width:1.0;" width="10" x="832" y="330.9531"/><rect fill="#FFFFFF" height="132.8594" style="stroke:#181818;stroke-width:1.0;" width="10" x="952" y="370.0859"/><rect fill="#FFFFFF" height="101.7266" style="stroke:#181818;stroke-width:1.0;" width="10" x="1078" y="571.2109"/><rect fill="#FFFFFF" height="348.625" style="stroke:#181818;stroke-width:1.0;" width="10" x="1078" y="702.0703"/><rect fill="#FFFFFF" height="31.2969" style="stroke:#181818;stroke-width:1.0;" width="10" x="1305" y="612.5078"/><rect fill="#FFFFFF" height="14" style="stroke:#181818;stroke-width:1.0;" width="10" x="1305" y="1000.5625"/><rect fill="#FFFFFF" height="29.1328" style="stroke:#181818;stroke-width:1.0;" width="10" x="1305" y="1079.8281"/><rect fill="#FFFFFF" height="31.2969" style="stroke:#181818;stroke-width:1.0;" width="10" x="1408.5" y="435.5156"/><rect fill="#FFFFFF" height="99.5625" style="stroke:#181818;stroke-width:1.0;" width="10" x="1408.5" y="755.3359"/><rect fill="#FFFFFF" height="31.2969" style="stroke:#181818;stroke-width:1.0;" width="10" x="1627.5" y="794.4688"/><rect fill="#FFFFFF" height="87.3984" style="stroke:#181818;stroke-width:1.0;" width="10" x="1627.5" y="884.0313"/><rect fill="#FFFFFF" height="29.1328" style="stroke:#181818;stroke-width:1.0;" width="10" x="1795.5" y="913.1641"/><rect fill="none" height="87.5625" style="stroke:#000000;stroke-width:1.5;" width="561" x="905" y="387.25"/><rect fill="none" height="305.4922" style="stroke:#000000;stroke-width:1.5;" width="893.5" x="999" y="717.0703"/><line style="stroke:#181818;stroke-width:0.5;stroke-dasharray:5.0,5.0;" x1="47" x2="47" y1="56.4297" y2="1156.0938"/><line style="stroke:#181818;stroke-width:0.5;stroke-dasharray:5.0,5.0;" x1="389" x2="389" y1="56.4297" y2="1156.0938"/><line style="stroke:#181818;stroke-width:0.5;stroke-dasharray:5.0,5.0;" x1="687" x2="687" y1="141.3438" y2="1156.0938"/><line style="stroke:#181818;stroke-width:0.5;stroke-dasharray:5.0,5.0;" x1="837" x2="837" y1="270.0391" y2="1156.0938"/><line style="stroke:#181818;stroke-width:0.5;stroke-dasharray:5.0,5.0;" x1="957" x2="957" y1="369.6016" y2="1156.0938"/><line style="stroke:#181818;stroke-width:0.5;stroke-dasharray:5.0,5.0;" x1="1083" x2="1083" y1="570.7266" y2="1156.0938"/><line style="stroke:#181818;stroke-width:0.5;stroke-dasharray:5.0,5.0;" x1="1310" x2="1310" y1="612.0234" y2="1156.0938"/><line style="stroke:#181818;stroke-width:0.5;stroke-dasharray:5.0,5.0;" x1="1413" x2="1413" y1="435.0313" y2="1156.0938"/><line style="stroke:#181818;stroke-width:0.5;stroke-dasharray:5.0,5.0;" x1="1632.5" x2="1632.5" y1="793.9844" y2="1156.0938"/><line style="stroke:#181818;stroke-width:0.5;stroke-dasharray:5.0,5.0;" x1="1800.5" x2="1800.5" y1="56.4297" y2="1156.0938"/><rect fill="#3333C4" height="30.2969" rx="2.5" ry="2.5" style="stroke:#181818;stroke-width:0.5;" width="64" x="15" y="25.1328"/><text fill="#FFFFFF" font-family="sans-serif" font-size="14" lengthAdjust="spacing" textLength="18" x="38" y="45.1279">:UI</text><rect fill="#3333C4" height="30.2969" rx="2.5" ry="2.5" style="stroke:#181818;stroke-width:0.5;" width="122" x="328" y="25.1328"/><text fill="#FFFFFF" font-family="sans-serif" font-size="14" lengthAdjust="spacing" textLength="108" x="335" y="45.1279">:QueryManager</text><rect fill="#3333C4" height="30.2969" rx="2.5" ry="2.5" style="stroke:#181818;stroke-width:0.5;" width="144" x="1728.5" y="25.1328"/><text fill="#FFFFFF" font-family="sans-serif" font-size="14" lengthAdjust="spacing" textLength="130" x="1735.5" y="45.1279">:ReadOnlyStorage</text><rect fill="#FFFFFF" height="1080.6641" style="stroke:#181818;stroke-width:1.0;" width="10" x="42" y="66.4297"/><rect fill="#FFFFFF" height="1035.3984" style="stroke:#181818;stroke-width:1.0;" width="10" x="384" y="102.6953"/><rect fill="#FFFFFF" height="31.2969" style="stroke:#181818;stroke-width:1.0;" width="10" x="682.5" y="141.8281"/><rect fill="#FFFFFF" height="29.1328" style="stroke:#181818;stroke-width:1.0;" width="10" x="682.5" y="202.2578"/><rect fill="#FFFFFF" height="31.2969" style="stroke:#181818;stroke-width:1.0;" width="10" x="832" y="270.5234"/><rect fill="#FFFFFF" height="201.125" style="stroke:#181818;stroke-width:1.0;" width="10" x="832" y="330.9531"/><rect fill="#FFFFFF" height="132.8594" style="stroke:#181818;stroke-width:1.0;" width="10" x="952" y="370.0859"/><rect fill="#FFFFFF" height="101.7266" style="stroke:#181818;stroke-width:1.0;" width="10" x="1078" y="571.2109"/><rect fill="#FFFFFF" height="348.625" style="stroke:#181818;stroke-width:1.0;" width="10" x="1078" y="702.0703"/><rect fill="#FFFFFF" height="31.2969" style="stroke:#181818;stroke-width:1.0;" width="10" x="1305" y="612.5078"/><rect fill="#FFFFFF" height="14" style="stroke:#181818;stroke-width:1.0;" width="10" x="1305" y="1000.5625"/><rect fill="#FFFFFF" height="29.1328" style="stroke:#181818;stroke-width:1.0;" width="10" x="1305" y="1079.8281"/><rect fill="#FFFFFF" height="31.2969" style="stroke:#181818;stroke-width:1.0;" width="10" x="1408.5" y="435.5156"/><rect fill="#FFFFFF" height="99.5625" style="stroke:#181818;stroke-width:1.0;" width="10" x="1408.5" y="755.3359"/><rect fill="#FFFFFF" height="31.2969" style="stroke:#181818;stroke-width:1.0;" width="10" x="1627.5" y="794.4688"/><rect fill="#FFFFFF" height="87.3984" style="stroke:#181818;stroke-width:1.0;" width="10" x="1627.5" y="884.0313"/><rect fill="#FFFFFF" height="29.1328" style="stroke:#181818;stroke-width:1.0;" width="10" x="1795.5" y="913.1641"/><polygon fill="#181818" points="372,98.6953,382,102.6953,372,106.6953,376,102.6953" style="stroke:#181818;stroke-width:1.0;"/><line style="stroke:#181818;stroke-width:1.0;" x1="52" x2="378" y1="102.6953" y2="102.6953"/><text fill="#000000" font-family="sans-serif" font-size="13" lengthAdjust="spacing" textLength="180" x="126" y="82.4966">processQuery(string: query,</text><text fill="#000000" font-family="sans-serif" font-size="13" lengthAdjust="spacing" textLength="309" x="65.5" y="97.6294">list&lt;string&gt;: results, ReadOnlyStorage: storage)</text><polygon fill="#181818" points="609,127.8281,619,131.8281,609,135.8281,613,131.8281" style="stroke:#181818;stroke-width:1.0;"/><line style="stroke:#181818;stroke-width:1.0;" x1="394" x2="615" y1="131.8281" y2="131.8281"/><text fill="#000000" font-family="sans-serif" font-size="13" lengthAdjust="spacing" textLength="193" x="411" y="126.7622">QueryTokenizer(string: query)</text><rect fill="#3333C4" height="30.2969" rx="2.5" ry="2.5" style="stroke:#181818;stroke-width:0.5;" width="133" x="621" y="110.6953"/><text fill="#FFFFFF" font-family="sans-serif" font-size="14" lengthAdjust="spacing" textLength="119" x="628" y="130.6904">:QueryTokenizer</text><polygon fill="#181818" points="405,169.125,395,173.125,405,177.125,401,173.125" style="stroke:#181818;stroke-width:1.0;"/><line style="stroke:#181818;stroke-width:1.0;stroke-dasharray:2.0,2.0;" x1="399" x2="686.5" y1="173.125" y2="173.125"/><text fill="#000000" font-family="sans-serif" font-size="13" lengthAdjust="spacing" textLength="101" x="490.25" y="168.0591">QueryTokenizer</text><polygon fill="#181818" points="670.5,198.2578,680.5,202.2578,670.5,206.2578,674.5,202.2578" style="stroke:#181818;stroke-width:1.0;"/><line style="stroke:#181818;stroke-width:1.0;" x1="394" x2="676.5" y1="202.2578" y2="202.2578"/><text fill="#000000" font-family="sans-serif" font-size="13" lengthAdjust="spacing" textLength="64" x="506.25" y="197.1919">tokenize()</text><polygon fill="#181818" points="405,227.3906,395,231.3906,405,235.3906,401,231.3906" style="stroke:#181818;stroke-width:1.0;"/><line style="stroke:#181818;stroke-width:1.0;stroke-dasharray:2.0,2.0;" x1="399" x2="686.5" y1="231.3906" y2="231.3906"/><text fill="#000000" font-family="sans-serif" font-size="13" lengthAdjust="spacing" textLength="84" x="498.75" y="226.3247">list&lt;Tokens&gt;</text><polygon fill="#181818" points="772,256.5234,782,260.5234,772,264.5234,776,260.5234" style="stroke:#181818;stroke-width:1.0;"/><line style="stroke:#181818;stroke-width:1.0;" x1="394" x2="778" y1="260.5234" y2="260.5234"/><text fill="#000000" font-family="sans-serif" font-size="13" lengthAdjust="spacing" textLength="220" x="479" y="255.4575">QueryParser(list&lt;Tokens&gt;: query)</text><rect fill="#3333C4" height="30.2969" rx="2.5" ry="2.5" style="stroke:#181818;stroke-width:0.5;" width="106" x="784" y="239.3906"/><text fill="#FFFFFF" font-family="sans-serif" font-size="14" lengthAdjust="spacing" textLength="92" x="791" y="259.3857">:QueryParser</text><polygon fill="#181818" points="405,297.8203,395,301.8203,405,305.8203,401,301.8203" style="stroke:#181818;stroke-width:1.0;"/><line style="stroke:#181818;stroke-width:1.0;stroke-dasharray:2.0,2.0;" x1="399" x2="836" y1="301.8203" y2="301.8203"/><text fill="#000000" font-family="sans-serif" font-size="13" lengthAdjust="spacing" textLength="80" x="575.5" y="296.7544">QueryParser</text><polygon fill="#181818" points="820,326.9531,830,330.9531,820,334.9531,824,330.9531" style="stroke:#181818;stroke-width:1.0;"/><line style="stroke:#181818;stroke-width:1.0;" x1="394" x2="826" y1="330.9531" y2="330.9531"/><text fill="#000000" font-family="sans-serif" font-size="13" lengthAdjust="spacing" textLength="46" x="590" y="325.8872">parse()</text><polygon fill="#181818" points="913,356.0859,923,360.0859,913,364.0859,917,360.0859" style="stroke:#181818;stroke-width:1.0;"/><line style="stroke:#181818;stroke-width:1.0;" x1="842" x2="919" y1="360.0859" y2="360.0859"/><text fill="#000000" font-family="sans-serif" font-size="13" lengthAdjust="spacing" textLength="49" x="859" y="355.02">Query()</text><rect fill="#3333C4" height="30.2969" rx="2.5" ry="2.5" style="stroke:#181818;stroke-width:0.5;" width="64" x="925" y="338.9531"/><text fill="#FFFFFF" font-family="sans-serif" font-size="14" lengthAdjust="spacing" textLength="47" x="933.5" y="358.9482">:Query</text><path d="M905,387.25 L983,387.25 L983,394.3828 L973,404.3828 L905,404.3828 L905,387.25 " fill="#EEEEEE" style="stroke:#000000;stroke-width:1.5;"/><rect fill="none" height="87.5625" style="stroke:#000000;stroke-width:1.5;" width="561" x="905" y="387.25"/><text fill="#000000" font-family="sans-serif" font-size="13" font-weight="bold" lengthAdjust="spacing" textLength="33" x="920" y="400.3169">loop</text><text fill="#000000" font-family="sans-serif" font-size="11" font-weight="bold" lengthAdjust="spacing" textLength="162" x="998" y="399.4604">[For each parsed clause]</text><polygon fill="#181818" points="1369,421.5156,1379,425.5156,1369,429.5156,1373,425.5156" style="stroke:#181818;stroke-width:1.0;"/><line style="stroke:#181818;stroke-width:1.0;" x1="962" x2="1375" y1="425.5156" y2="425.5156"/><text fill="#000000" font-family="sans-serif" font-size="13" lengthAdjust="spacing" textLength="53" x="1145" y="420.4497">Clause()</text><rect fill="#3333C4" height="30.2969" rx="2.5" ry="2.5" style="stroke:#181818;stroke-width:0.5;" width="65" x="1381" y="404.3828"/><text fill="#FFFFFF" font-family="sans-serif" font-size="14" lengthAdjust="spacing" textLength="51" x="1388" y="424.3779">:Clause</text><polygon fill="#181818" points="973,462.8125,963,466.8125,973,470.8125,969,466.8125" style="stroke:#181818;stroke-width:1.0;"/><line style="stroke:#181818;stroke-width:1.0;" x1="967" x2="1412.5" y1="466.8125" y2="466.8125"/><text fill="#000000" font-family="sans-serif" font-size="13" lengthAdjust="spacing" textLength="41" x="1167.25" y="461.7466">clause</text><polygon fill="#181818" points="853,498.9453,843,502.9453,853,506.9453,849,502.9453" style="stroke:#181818;stroke-width:1.0;"/><line style="stroke:#181818;stroke-width:1.0;stroke-dasharray:2.0,2.0;" x1="847" x2="956" y1="502.9453" y2="502.9453"/><text fill="#000000" font-family="sans-serif" font-size="13" lengthAdjust="spacing" textLength="39" x="880" y="497.8794">Query</text><polygon fill="#181818" points="405,528.0781,395,532.0781,405,536.0781,401,532.0781" style="stroke:#181818;stroke-width:1.0;"/><line style="stroke:#181818;stroke-width:1.0;stroke-dasharray:2.0,2.0;" x1="399" x2="836" y1="532.0781" y2="532.0781"/><text fill="#000000" font-family="sans-serif" font-size="13" lengthAdjust="spacing" textLength="39" x="596" y="527.0122">Query</text><polygon fill="#181818" points="1007,557.2109,1017,561.2109,1007,565.2109,1011,561.2109" style="stroke:#181818;stroke-width:1.0;"/><line style="stroke:#181818;stroke-width:1.0;" x1="394" x2="1013" y1="561.2109" y2="561.2109"/><text fill="#000000" font-family="sans-serif" font-size="13" lengthAdjust="spacing" textLength="373" x="520" y="556.145">QueryEvaluator(Query: query, ReadOnlyStorage: storage)</text><rect fill="#3333C4" height="30.2969" rx="2.5" ry="2.5" style="stroke:#181818;stroke-width:0.5;" width="128" x="1019" y="540.0781"/><text fill="#FFFFFF" font-family="sans-serif" font-size="14" lengthAdjust="spacing" textLength="114" x="1026" y="560.0732">:QueryEvaluator</text><polygon fill="#181818" points="1257,598.5078,1267,602.5078,1257,606.5078,1261,602.5078" style="stroke:#181818;stroke-width:1.0;"/><line style="stroke:#181818;stroke-width:1.0;" x1="1088" x2="1263" y1="602.5078" y2="602.5078"/><text fill="#000000" font-family="sans-serif" font-size="13" lengthAdjust="spacing" textLength="67" x="1145" y="597.4419">QueryDb()</text><rect fill="#3333C4" height="30.2969" rx="2.5" ry="2.5" style="stroke:#181818;stroke-width:0.5;" width="82" x="1269" y="581.375"/><text fill="#FFFFFF" font-family="sans-serif" font-size="14" lengthAdjust="spacing" textLength="68" x="1276" y="601.3701">:QueryDb</text><polygon fill="#181818" points="1099,639.8047,1089,643.8047,1099,647.8047,1095,643.8047" style="stroke:#181818;stroke-width:1.0;"/><line style="stroke:#181818;stroke-width:1.0;" x1="1093" x2="1309" y1="643.8047" y2="643.8047"/><text fill="#000000" font-family="sans-serif" font-size="13" lengthAdjust="spacing" textLength="55" x="1171.5" y="638.7388">queryDb</text><polygon fill="#181818" points="405,668.9375,395,672.9375,405,676.9375,401,672.9375" style="stroke:#181818;stroke-width:1.0;"/><line style="stroke:#181818;stroke-width:1.0;" x1="399" x2="1082" y1="672.9375" y2="672.9375"/><text fill="#000000" font-family="sans-serif" font-size="13" lengthAdjust="spacing" textLength="61" x="708" y="667.8716">evaluator</text><polygon fill="#181818" points="1066,698.0703,1076,702.0703,1066,706.0703,1070,702.0703" style="stroke:#181818;stroke-width:1.0;"/><line style="stroke:#181818;stroke-width:1.0;" x1="394" x2="1072" y1="702.0703" y2="702.0703"/><text fill="#000000" font-family="sans-serif" font-size="13" lengthAdjust="spacing" textLength="66" x="703" y="697.0044">evaluate()</text><path d="M999,717.0703 L1077,717.0703 L1077,724.2031 L1067,734.2031 L999,734.2031 L999,717.0703 " fill="#EEEEEE" style="stroke:#000000;stroke-width:1.5;"/><rect fill="none" height="305.4922" style="stroke:#000000;stroke-width:1.5;" width="893.5" x="999" y="717.0703"/><text fill="#000000" font-family="sans-serif" font-size="13" font-weight="bold" lengthAdjust="spacing" textLength="33" x="1014" y="730.1372">loop</text><text fill="#000000" font-family="sans-serif" font-size="11" font-weight="bold" lengthAdjust="spacing" textLength="113" x="1092" y="729.2808">[For each clause]</text><polygon fill="#181818" points="1396.5,751.3359,1406.5,755.3359,1396.5,759.3359,1400.5,755.3359" style="stroke:#181818;stroke-width:1.0;"/><line style="stroke:#181818;stroke-width:1.0;" x1="1088" x2="1402.5" y1="755.3359" y2="755.3359"/><text fill="#000000" font-family="sans-serif" font-size="13" lengthAdjust="spacing" textLength="135" x="1180.75" y="750.27">getClauseEvaluator()</text><polygon fill="#181818" points="1554.5,780.4688,1564.5,784.4688,1554.5,788.4688,1558.5,784.4688" style="stroke:#181818;stroke-width:1.0;"/><line style="stroke:#181818;stroke-width:1.0;" x1="1418.5" x2="1560.5" y1="784.4688" y2="784.4688"/><text fill="#000000" font-family="sans-serif" font-size="13" lengthAdjust="spacing" textLength="114" x="1435.5" y="779.4028">ClauseEvaluator()</text><rect fill="#3333C4" height="30.2969" rx="2.5" ry="2.5" style="stroke:#181818;stroke-width:0.5;" width="132" x="1566.5" y="763.3359"/><text fill="#FFFFFF" font-family="sans-serif" font-size="14" lengthAdjust="spacing" textLength="118" x="1573.5" y="783.3311">:ClauseEvaluator</text><polygon fill="#181818" points="1429.5,821.7656,1419.5,825.7656,1429.5,829.7656,1425.5,825.7656" style="stroke:#181818;stroke-width:1.0;"/><line style="stroke:#181818;stroke-width:1.0;" x1="1423.5" x2="1631.5" y1="825.7656" y2="825.7656"/><text fill="#000000" font-family="sans-serif" font-size="13" lengthAdjust="spacing" textLength="61" x="1495" y="820.6997">evaluator</text><polygon fill="#181818" points="1099,850.8984,1089,854.8984,1099,858.8984,1095,854.8984" style="stroke:#181818;stroke-width:1.0;"/><line style="stroke:#181818;stroke-width:1.0;" x1="1093" x2="1412.5" y1="854.8984" y2="854.8984"/><text fill="#000000" font-family="sans-serif" font-size="13" lengthAdjust="spacing" textLength="61" x="1220.25" y="849.8325">evaluator</text><polygon fill="#181818" points="1615.5,880.0313,1625.5,884.0313,1615.5,888.0313,1619.5,884.0313" style="stroke:#181818;stroke-width:1.0;"/><line style="stroke:#181818;stroke-width:1.0;" x1="1088" x2="1621.5" y1="884.0313" y2="884.0313"/><text fill="#000000" font-family="sans-serif" font-size="13" lengthAdjust="spacing" textLength="109" x="1303.25" y="878.9653">evaluateClause()</text><polygon fill="#181818" points="1783.5,909.1641,1793.5,913.1641,1783.5,917.1641,1787.5,913.1641" style="stroke:#181818;stroke-width:1.0;"/><line style="stroke:#181818;stroke-width:1.0;" x1="1637.5" x2="1789.5" y1="913.1641" y2="913.1641"/><text fill="#000000" font-family="sans-serif" font-size="13" lengthAdjust="spacing" textLength="91" x="1671" y="908.0981">read from pkb</text><polygon fill="#181818" points="1648.5,938.2969,1638.5,942.2969,1648.5,946.2969,1644.5,942.2969" style="stroke:#181818;stroke-width:1.0;"/><line style="stroke:#181818;stroke-width:1.0;" x1="1642.5" x2="1799.5" y1="942.2969" y2="942.2969"/><text fill="#000000" font-family="sans-serif" font-size="13" lengthAdjust="spacing" textLength="70" x="1684" y="937.231">pkbResults</text><polygon fill="#181818" points="1099,967.4297,1089,971.4297,1099,975.4297,1095,971.4297" style="stroke:#181818;stroke-width:1.0;"/><line style="stroke:#181818;stroke-width:1.0;" x1="1093" x2="1631.5" y1="971.4297" y2="971.4297"/><text fill="#000000" font-family="sans-serif" font-size="13" lengthAdjust="spacing" textLength="81" x="1319.75" y="966.3638">clauseResult</text><polygon fill="#181818" points="1293,996.5625,1303,1000.5625,1293,1004.5625,1297,1000.5625" style="stroke:#181818;stroke-width:1.0;"/><line style="stroke:#181818;stroke-width:1.0;" x1="1088" x2="1299" y1="1000.5625" y2="1000.5625"/><text fill="#000000" font-family="sans-serif" font-size="13" lengthAdjust="spacing" textLength="198" x="1097.5" y="995.4966">addClauseResult(clauseResult)</text><polygon fill="#181818" points="1099,1010.5625,1089,1014.5625,1099,1018.5625,1095,1014.5625" style="stroke:#181818;stroke-width:1.0;"/><line style="stroke:#181818;stroke-width:1.0;" x1="1093" x2="1309" y1="1014.5625" y2="1014.5625"/><line style="stroke:#A80036;stroke-width:2.0;" x1="1623.5" x2="1641.5" y1="1005.5625" y2="1023.5625"/><line style="stroke:#A80036;stroke-width:2.0;" x1="1623.5" x2="1641.5" y1="1023.5625" y2="1005.5625"/><polygon fill="#181818" points="405,1046.6953,395,1050.6953,405,1054.6953,401,1050.6953" style="stroke:#181818;stroke-width:1.0;"/><line style="stroke:#181818;stroke-width:1.0;stroke-dasharray:2.0,2.0;" x1="399" x2="1082" y1="1050.6953" y2="1050.6953"/><text fill="#000000" font-family="sans-serif" font-size="13" lengthAdjust="spacing" textLength="55" x="711" y="1045.6294">queryDb</text><polygon fill="#181818" points="1293,1075.8281,1303,1079.8281,1293,1083.8281,1297,1079.8281" style="stroke:#181818;stroke-width:1.0;"/><line style="stroke:#181818;stroke-width:1.0;" x1="394" x2="1299" y1="1079.8281" y2="1079.8281"/><text fill="#000000" font-family="sans-serif" font-size="13" lengthAdjust="spacing" textLength="143" x="778" y="1074.7622">getInterestedResults()</text><polygon fill="#181818" points="405,1104.9609,395,1108.9609,405,1112.9609,401,1108.9609" style="stroke:#181818;stroke-width:1.0;"/><line style="stroke:#181818;stroke-width:1.0;" x1="399" x2="1309" y1="1108.9609" y2="1108.9609"/><text fill="#000000" font-family="sans-serif" font-size="13" lengthAdjust="spacing" textLength="84" x="810" y="1103.895">queryResults</text><polygon fill="#181818" points="63,1134.0938,53,1138.0938,63,1142.0938,59,1138.0938" style="stroke:#181818;stroke-width:1.0;"/><line style="stroke:#181818;stroke-width:1.0;stroke-dasharray:2.0,2.0;" x1="57" x2="388" y1="1138.0938" y2="1138.0938"/><text fill="#000000" font-family="sans-serif" font-size="13" lengthAdjust="spacing" textLength="84" x="178.5" y="1133.0278">queryResults</text><line style="stroke:#A80036;stroke-width:2.0;" x1="948" x2="966" y1="1129.0938" y2="1147.0938"/><line style="stroke:#A80036;stroke-width:2.0;" x1="948" x2="966" y1="1147.0938" y2="1129.0938"/><!--SRC=[fLPTR-8u57tth_1C7vQLfb9I8D2eGe84HaZjqW6gVLbfP1834S6XIPWjEzh_lZTnFcpZ0AFD2_X-d7jyVA-JJpvT1upYj-btP_Oyc-Cxq-q_6WRwf3Y-Bqryrs-FUzQZnlU0xzeJfsUEDBusO5fMNulPmNV6k6E2ht8-pxvEdP9C6nwde_FbV9o-qvyCzMwWP0sjeUletJahqnePUZSGCmtJw5iriPUPEtukYJswXc4-w7mviSbZp-oRUZSGWorFsfRU3SHw8yCmndet4Ek2NiQm9hPOpkR3h-EIsh3TRmjYIrvERZ9kzpfD0Hazr-a-D280mRvXMSqb0A7RwNJ4GtrRZESbFoD_44fs0JkGcEpnY7YxJHmTcUz4OHHd3FD7Z5biYH_z7R0DNfCmeQBB2KcIu9y8mpE9M2g1vDPH5FiqNcu3RySen9g2LOx-BNCiKXhJA3qTQ0Ntz4JPSKzZaWOH6mnkY0yOMDV4epT4L_tKw1Ssard_87kAXt50GlIlACNGIo7wvzdsQlrpbzPu2NT1tu-KURI0VW4HoOOEms33i4UpdHObFpAKHV0FnMQtDBqItyyEpX1ZVcrVhoHE0oyu49Os7JG7AMj1-qe0Bm7Bs-JFm4-tk6leiSjiqxZGURN7fMjo3DCb_KXpAVQWH2b77NM0xWQn5kaff7XElPImJGWDl0ryYjTHbAwY3xxOq_sAnWbVU47iPM48tFZRwm8T10q-ss_JpvWaS9MAzvOIy-r8uzCBOL0zpgD5mxMyPRIZ30vIoAnCrt91qaHCvEjhMNNyjSZn3n8U2RHwdLAPhkMwgph9NLs8Xduv9ZGFvd-lnigq5Dk5x3ab_eo5fmM4mT7asOfDogRCnrdJ42yDVf0qUw4Y19rmFv1FsCQ7EF9WLdDhAqbZw68RlsUhB_WlXiCWIP-uUM3Zc2RGpSaNjRQD4_xdzxgYM0SXBwQLiMeI974fkLLkMrdBzDHIDIfIMl5UsRMAYtnw6Ue2mxJus_e_T7AHyu1aS8cCA28V63s_OfXiSTKIYpH8M60Y4QH1l29K9IiXw6b1osM_hQRYuYPb9WLCmU0C0A4mYWvmxSSOM6rv6Hzx-P3nbng7TceBlqi0cTliuXUmCs-5NsHm43xfDHkXW217aGA3MAXHArdgm5ch4juaVwFmedhLnQ8_ZifjA-jMiR7Y5hXrrkjo4WjtXPJhjoJWhkpopzbXGXOgBs0DuVSYHfMXIZklLWb8Avvgjh03CUL-e9Ol8CwRM41ubfgnRX8vJcYz3KsL5m9lGrqNUc8drqMbzbISDhu5NTX01IPfMRAbOj6pljV1wCxnCWewrqkxiV8unE7zrNsTTJaexEDr7C7dsMub8IgXEQBwCjRH19mvVu4gkzK1QYYgul6Uuf0tdCA5AOIFMaS0Qud8ifhLb9M0xaeT3uMAc05sU8T79qtZrXUbGF5iTflclc5ofKt2V4sp3s-WGFtY86wwT-JgvH4sNZrLRSX_crx9gZwGIcLowty0]--></g></svg>