<?xml version="1.0" encoding="UTF-8" standalone="no"?><svg xmlns="http://www.w3.org/2000/svg" xmlns:xlink="http://www.w3.org/1999/xlink" contentStyleType="text/css" height="2030px" preserveAspectRatio="none" style="width:2714px;height:2030px;background:#FFFFFF;" version="1.1" viewBox="0 0 2714 2030" width="2714px" zoomAndPan="magnify"><defs/><g><rect fill="#DDDDDD" height="2011.5078" style="stroke:#181818;stroke-width:0.5;" width="2701" x="1" y="6"/><text fill="#FFFFFF" font-family="sans-serif" font-size="13" font-weight="bold" lengthAdjust="spacing" textLength="19" x="1342" y="18.0669">SP</text><rect fill="#FFFFFF" height="1948.0781" style="stroke:#181818;stroke-width:1.0;" width="10" x="42" y="66.4297"/><rect fill="#FFFFFF" height="1917.9453" style="stroke:#181818;stroke-width:1.0;" width="10" x="320" y="87.5625"/><rect fill="#FFFFFF" height="1360.0313" style="stroke:#181818;stroke-width:1.0;" width="10" x="597" y="631.4766"/><rect fill="#FFFFFF" height="31.2969" style="stroke:#181818;stroke-width:1.0;" width="10" x="881.5" y="730.875"/><rect fill="#FFFFFF" height="89.3984" style="stroke:#181818;stroke-width:1.0;" width="10" x="881.5" y="791.3047"/><rect fill="#FFFFFF" height="31.2969" style="stroke:#181818;stroke-width:1.0;" width="10" x="989" y="919.8359"/><rect fill="#FFFFFF" height="74.2656" style="stroke:#181818;stroke-width:1.0;" width="10" x="989" y="980.2656"/><rect fill="#FFFFFF" height="29.1328" style="stroke:#181818;stroke-width:1.0;" width="10" x="989" y="1083.6641"/><rect fill="#FFFFFF" height="417.3828" style="stroke:#181818;stroke-width:1.0;" width="10" x="1083" y="184.9609"/><rect fill="#FFFFFF" height="29.1328" style="stroke:#181818;stroke-width:1.0;" width="10" x="1083" y="1183.2266"/><rect fill="#FFFFFF" height="89.5625" style="stroke:#181818;stroke-width:1.0;" width="10" x="1396" y="226.2578"/><rect fill="#FFFFFF" height="57.1328" style="stroke:#181818;stroke-width:1.0;" width="10" x="1396" y="1885.375"/><rect fill="#FFFFFF" height="89.5625" style="stroke:#181818;stroke-width:1.0;" width="10" x="1557.5" y="354.9531"/><rect fill="#FFFFFF" height="125.3984" style="stroke:#181818;stroke-width:1.0;" width="10" x="1557.5" y="1671.5781"/><rect fill="#FFFFFF" height="57.1328" style="stroke:#181818;stroke-width:1.0;" width="10" x="1562.5" y="1724.8438"/><rect fill="#FFFFFF" height="89.5625" style="stroke:#181818;stroke-width:1.0;" width="10" x="1713.5" y="483.6484"/><rect fill="#FFFFFF" height="57.1328" style="stroke:#181818;stroke-width:1.0;" width="10" x="1713.5" y="1564.3125"/><rect fill="#FFFFFF" height="300.8516" style="stroke:#181818;stroke-width:1.0;" width="10" x="1863" y="1151.9297"/><rect fill="#FFFFFF" height="495.5938" style="stroke:#181818;stroke-width:1.0;" width="10" x="1863" y="1481.9141"/><rect fill="#FFFFFF" height="31.2969" style="stroke:#181818;stroke-width:1.0;" width="10" x="2144.5" y="1251.4922"/><rect fill="#FFFFFF" height="131.3984" style="stroke:#181818;stroke-width:1.0;" width="10" x="2144.5" y="1511.0469"/><rect fill="#FFFFFF" height="31.2969" style="stroke:#181818;stroke-width:1.0;" width="10" x="2311" y="1392.3516"/><rect fill="#FFFFFF" height="131.3984" style="stroke:#181818;stroke-width:1.0;" width="10" x="2311" y="1832.1094"/><rect fill="#FFFFFF" height="31.2969" style="stroke:#181818;stroke-width:1.0;" width="10" x="2500.5" y="1321.9219"/><rect fill="#FFFFFF" height="131.3984" style="stroke:#181818;stroke-width:1.0;" width="10" x="2500.5" y="1671.5781"/><rect fill="#FFFFFF" height="1897.8125" style="stroke:#181818;stroke-width:1.0;" width="10" x="2651" y="116.6953"/><rect fill="none" height="46.2656" style="stroke:#000000;stroke-width:1.5;" width="474" x="212.5" y="646.4766"/><rect fill="none" height="46.2656" style="stroke:#000000;stroke-width:1.5;" width="434.5" x="517.5" y="806.3047"/><rect fill="none" height="46.2656" style="stroke:#000000;stroke-width:1.5;" width="528.5" x="517.5" y="995.2656"/><rect fill="none" height="103.3984" style="stroke:#000000;stroke-width:1.5;" width="1061" x="1647" y="1526.0469"/><rect fill="none" height="103.3984" style="stroke:#000000;stroke-width:1.5;" width="1240" x="1468" y="1686.5781"/><rect fill="none" height="103.3984" style="stroke:#000000;stroke-width:1.5;" width="1384" x="1324" y="1847.1094"/><line style="stroke:#181818;stroke-width:0.5;stroke-dasharray:5.0,5.0;" x1="47" x2="47" y1="56.4297" y2="2023.5078"/><line style="stroke:#181818;stroke-width:0.5;stroke-dasharray:5.0,5.0;" x1="324.5" x2="324.5" y1="56.4297" y2="2023.5078"/><line style="stroke:#181818;stroke-width:0.5;stroke-dasharray:5.0,5.0;" x1="601.5" x2="601.5" y1="56.4297" y2="2023.5078"/><line style="stroke:#181818;stroke-width:0.5;stroke-dasharray:5.0,5.0;" x1="886" x2="886" y1="730.3906" y2="2023.5078"/><line style="stroke:#181818;stroke-width:0.5;stroke-dasharray:5.0,5.0;" x1="994" x2="994" y1="919.3516" y2="2023.5078"/><line style="stroke:#181818;stroke-width:0.5;stroke-dasharray:5.0,5.0;" x1="1088" x2="1088" y1="184.4766" y2="2023.5078"/><line style="stroke:#181818;stroke-width:0.5;stroke-dasharray:5.0,5.0;" x1="1401" x2="1401" y1="225.7734" y2="2023.5078"/><line style="stroke:#181818;stroke-width:0.5;stroke-dasharray:5.0,5.0;" x1="1562" x2="1562" y1="354.4688" y2="2023.5078"/><line style="stroke:#181818;stroke-width:0.5;stroke-dasharray:5.0,5.0;" x1="1718" x2="1718" y1="483.1641" y2="2023.5078"/><line style="stroke:#181818;stroke-width:0.5;stroke-dasharray:5.0,5.0;" x1="1868" x2="1868" y1="1151.4453" y2="2023.5078"/><line style="stroke:#181818;stroke-width:0.5;stroke-dasharray:5.0,5.0;" x1="2149" x2="2149" y1="1251.0078" y2="2023.5078"/><line style="stroke:#181818;stroke-width:0.5;stroke-dasharray:5.0,5.0;" x1="2316" x2="2316" y1="1391.8672" y2="2023.5078"/><line style="stroke:#181818;stroke-width:0.5;stroke-dasharray:5.0,5.0;" x1="2505" x2="2505" y1="1321.4375" y2="2023.5078"/><line style="stroke:#181818;stroke-width:0.5;stroke-dasharray:5.0,5.0;" x1="2656" x2="2656" y1="56.4297" y2="2023.5078"/><rect fill="#3333C4" height="30.2969" rx="2.5" ry="2.5" style="stroke:#181818;stroke-width:0.5;" width="64" x="15" y="25.1328"/><text fill="#FFFFFF" font-family="sans-serif" font-size="14" lengthAdjust="spacing" textLength="18" x="38" y="45.1279">:UI</text><rect fill="#3333C4" height="30.2969" rx="2.5" ry="2.5" style="stroke:#181818;stroke-width:0.5;" width="185" x="232.5" y="25.1328"/><text fill="#FFFFFF" font-family="sans-serif" font-size="14" lengthAdjust="spacing" textLength="171" x="239.5" y="45.1279">:StaticProgramAnalyzer</text><rect fill="#3333C4" height="30.2969" rx="2.5" ry="2.5" style="stroke:#181818;stroke-width:0.5;" width="129" x="537.5" y="25.1328"/><text fill="#FFFFFF" font-family="sans-serif" font-size="14" lengthAdjust="spacing" textLength="115" x="544.5" y="45.1279">:SourceManager</text><rect fill="#3333C4" height="30.2969" rx="2.5" ry="2.5" style="stroke:#181818;stroke-width:0.5;" width="64" x="2624" y="25.1328"/><text fill="#FFFFFF" font-family="sans-serif" font-size="14" lengthAdjust="spacing" textLength="29" x="2641.5" y="45.1279">PKB</text><rect fill="#FFFFFF" height="1948.0781" style="stroke:#181818;stroke-width:1.0;" width="10" x="42" y="66.4297"/><rect fill="#FFFFFF" height="1917.9453" style="stroke:#181818;stroke-width:1.0;" width="10" x="320" y="87.5625"/><rect fill="#FFFFFF" height="1360.0313" style="stroke:#181818;stroke-width:1.0;" width="10" x="597" y="631.4766"/><rect fill="#FFFFFF" height="31.2969" style="stroke:#181818;stroke-width:1.0;" width="10" x="881.5" y="730.875"/><rect fill="#FFFFFF" height="89.3984" style="stroke:#181818;stroke-width:1.0;" width="10" x="881.5" y="791.3047"/><rect fill="#FFFFFF" height="31.2969" style="stroke:#181818;stroke-width:1.0;" width="10" x="989" y="919.8359"/><rect fill="#FFFFFF" height="74.2656" style="stroke:#181818;stroke-width:1.0;" width="10" x="989" y="980.2656"/><rect fill="#FFFFFF" height="29.1328" style="stroke:#181818;stroke-width:1.0;" width="10" x="989" y="1083.6641"/><rect fill="#FFFFFF" height="417.3828" style="stroke:#181818;stroke-width:1.0;" width="10" x="1083" y="184.9609"/><rect fill="#FFFFFF" height="29.1328" style="stroke:#181818;stroke-width:1.0;" width="10" x="1083" y="1183.2266"/><rect fill="#FFFFFF" height="89.5625" style="stroke:#181818;stroke-width:1.0;" width="10" x="1396" y="226.2578"/><rect fill="#FFFFFF" height="57.1328" style="stroke:#181818;stroke-width:1.0;" width="10" x="1396" y="1885.375"/><rect fill="#FFFFFF" height="89.5625" style="stroke:#181818;stroke-width:1.0;" width="10" x="1557.5" y="354.9531"/><rect fill="#FFFFFF" height="125.3984" style="stroke:#181818;stroke-width:1.0;" width="10" x="1557.5" y="1671.5781"/><rect fill="#FFFFFF" height="57.1328" style="stroke:#181818;stroke-width:1.0;" width="10" x="1562.5" y="1724.8438"/><rect fill="#FFFFFF" height="89.5625" style="stroke:#181818;stroke-width:1.0;" width="10" x="1713.5" y="483.6484"/><rect fill="#FFFFFF" height="57.1328" style="stroke:#181818;stroke-width:1.0;" width="10" x="1713.5" y="1564.3125"/><rect fill="#FFFFFF" height="300.8516" style="stroke:#181818;stroke-width:1.0;" width="10" x="1863" y="1151.9297"/><rect fill="#FFFFFF" height="495.5938" style="stroke:#181818;stroke-width:1.0;" width="10" x="1863" y="1481.9141"/><rect fill="#FFFFFF" height="31.2969" style="stroke:#181818;stroke-width:1.0;" width="10" x="2144.5" y="1251.4922"/><rect fill="#FFFFFF" height="131.3984" style="stroke:#181818;stroke-width:1.0;" width="10" x="2144.5" y="1511.0469"/><rect fill="#FFFFFF" height="31.2969" style="stroke:#181818;stroke-width:1.0;" width="10" x="2311" y="1392.3516"/><rect fill="#FFFFFF" height="131.3984" style="stroke:#181818;stroke-width:1.0;" width="10" x="2311" y="1832.1094"/><rect fill="#FFFFFF" height="31.2969" style="stroke:#181818;stroke-width:1.0;" width="10" x="2500.5" y="1321.9219"/><rect fill="#FFFFFF" height="131.3984" style="stroke:#181818;stroke-width:1.0;" width="10" x="2500.5" y="1671.5781"/><rect fill="#FFFFFF" height="1897.8125" style="stroke:#181818;stroke-width:1.0;" width="10" x="2651" y="116.6953"/><polygon fill="#181818" points="308,83.5625,318,87.5625,308,91.5625,312,87.5625" style="stroke:#181818;stroke-width:1.0;"/><line style="stroke:#181818;stroke-width:1.0;" x1="52" x2="314" y1="87.5625" y2="87.5625"/><text fill="#000000" font-family="sans-serif" font-size="13" lengthAdjust="spacing" textLength="249" x="61.5" y="82.4966">readProgramFromFile(string: filename)</text><polygon fill="#181818" points="2639,112.6953,2649,116.6953,2639,120.6953,2643,116.6953" style="stroke:#181818;stroke-width:1.0;"/><line style="stroke:#181818;stroke-width:1.0;" x1="330" x2="2645" y1="116.6953" y2="116.6953"/><text fill="#000000" font-family="sans-serif" font-size="13" lengthAdjust="spacing" textLength="115" x="1433" y="111.6294">getWriteStorage()</text><polygon fill="#181818" points="341,141.8281,331,145.8281,341,149.8281,337,145.8281" style="stroke:#181818;stroke-width:1.0;"/><line style="stroke:#181818;stroke-width:1.0;stroke-dasharray:2.0,2.0;" x1="335" x2="2650" y1="145.8281" y2="145.8281"/><text fill="#000000" font-family="sans-serif" font-size="13" lengthAdjust="spacing" textLength="126" x="1427.5" y="140.7622">WriteStorage: store</text><polygon fill="#181818" points="1044,170.9609,1054,174.9609,1044,178.9609,1048,174.9609" style="stroke:#181818;stroke-width:1.0;"/><line style="stroke:#181818;stroke-width:1.0;" x1="330" x2="1050" y1="174.9609" y2="174.9609"/><text fill="#000000" font-family="sans-serif" font-size="13" lengthAdjust="spacing" textLength="170" x="608" y="169.895">Store(WriteStorage: store)</text><rect fill="#3333C4" height="30.2969" rx="2.5" ry="2.5" style="stroke:#181818;stroke-width:0.5;" width="64" x="1056" y="153.8281"/><text fill="#FFFFFF" font-family="sans-serif" font-size="14" lengthAdjust="spacing" textLength="45" x="1065.5" y="173.8232">:Store</text><polygon fill="#181818" points="1332,212.2578,1342,216.2578,1332,220.2578,1336,216.2578" style="stroke:#181818;stroke-width:1.0;"/><line style="stroke:#181818;stroke-width:1.0;" x1="1093" x2="1338" y1="216.2578" y2="216.2578"/><text fill="#000000" font-family="sans-serif" font-size="13" lengthAdjust="spacing" textLength="217" x="1110" y="211.1919">PatternStore(WriteStorage: store)</text><rect fill="#3333C4" height="30.2969" rx="2.5" ry="2.5" style="stroke:#181818;stroke-width:0.5;" width="114" x="1344" y="195.125"/><text fill="#FFFFFF" font-family="sans-serif" font-size="14" lengthAdjust="spacing" textLength="100" x="1351" y="215.1201">:PatternStore</text><polygon fill="#181818" points="2639,253.5547,2649,257.5547,2639,261.5547,2643,257.5547" style="stroke:#181818;stroke-width:1.0;"/><line style="stroke:#181818;stroke-width:1.0;" x1="1406" x2="2645" y1="257.5547" y2="257.5547"/><text fill="#000000" font-family="sans-serif" font-size="13" lengthAdjust="spacing" textLength="133" x="1962" y="252.4888">getPatternManager()</text><polygon fill="#181818" points="1417,282.6875,1407,286.6875,1417,290.6875,1413,286.6875" style="stroke:#181818;stroke-width:1.0;"/><line style="stroke:#181818;stroke-width:1.0;stroke-dasharray:2.0,2.0;" x1="1411" x2="2650" y1="286.6875" y2="286.6875"/><text fill="#000000" font-family="sans-serif" font-size="13" lengthAdjust="spacing" textLength="102" x="1977.5" y="281.6216">PatternManager</text><polygon fill="#181818" points="1104,311.8203,1094,315.8203,1104,319.8203,1100,315.8203" style="stroke:#181818;stroke-width:1.0;"/><line style="stroke:#181818;stroke-width:1.0;stroke-dasharray:2.0,2.0;" x1="1098" x2="1400" y1="315.8203" y2="315.8203"/><text fill="#000000" font-family="sans-serif" font-size="13" lengthAdjust="spacing" textLength="81" x="1206.5" y="310.7544">PatternStore</text><polygon fill="#181818" points="1476,340.9531,1486,344.9531,1476,348.9531,1480,344.9531" style="stroke:#181818;stroke-width:1.0;"/><line style="stroke:#181818;stroke-width:1.0;" x1="1093" x2="1482" y1="344.9531" y2="344.9531"/><text fill="#000000" font-family="sans-serif" font-size="13" lengthAdjust="spacing" textLength="248" x="1166.5" y="339.8872">RelationshipStore(WriteStorage: store)</text><rect fill="#3333C4" height="30.2969" rx="2.5" ry="2.5" style="stroke:#181818;stroke-width:0.5;" width="149" x="1488" y="323.8203"/><text fill="#FFFFFF" font-family="sans-serif" font-size="14" lengthAdjust="spacing" textLength="135" x="1495" y="343.8154">:RelationshipStore</text><polygon fill="#181818" points="2639,382.25,2649,386.25,2639,390.25,2643,386.25" style="stroke:#181818;stroke-width:1.0;"/><line style="stroke:#181818;stroke-width:1.0;" x1="1567.5" x2="2645" y1="386.25" y2="386.25"/><text fill="#000000" font-family="sans-serif" font-size="13" lengthAdjust="spacing" textLength="164" x="2027.25" y="381.1841">getRelationshipManager()</text><polygon fill="#181818" points="1578.5,411.3828,1568.5,415.3828,1578.5,419.3828,1574.5,415.3828" style="stroke:#181818;stroke-width:1.0;"/><line style="stroke:#181818;stroke-width:1.0;stroke-dasharray:2.0,2.0;" x1="1572.5" x2="2650" y1="415.3828" y2="415.3828"/><text fill="#000000" font-family="sans-serif" font-size="13" lengthAdjust="spacing" textLength="133" x="2042.75" y="410.3169">RelationshipManager</text><polygon fill="#181818" points="1104,440.5156,1094,444.5156,1104,448.5156,1100,444.5156" style="stroke:#181818;stroke-width:1.0;"/><line style="stroke:#181818;stroke-width:1.0;stroke-dasharray:2.0,2.0;" x1="1098" x2="1561.5" y1="444.5156" y2="444.5156"/><text fill="#000000" font-family="sans-serif" font-size="13" lengthAdjust="spacing" textLength="112" x="1271.75" y="439.4497">RelationshipStore</text><polygon fill="#181818" points="1655,469.6484,1665,473.6484,1655,477.6484,1659,473.6484" style="stroke:#181818;stroke-width:1.0;"/><line style="stroke:#181818;stroke-width:1.0;" x1="1093" x2="1661" y1="473.6484" y2="473.6484"/><text fill="#000000" font-family="sans-serif" font-size="13" lengthAdjust="spacing" textLength="207" x="1276.5" y="468.5825">EntityStore(WriteStorage: store)</text><rect fill="#3333C4" height="30.2969" rx="2.5" ry="2.5" style="stroke:#181818;stroke-width:0.5;" width="103" x="1667" y="452.5156"/><text fill="#FFFFFF" font-family="sans-serif" font-size="14" lengthAdjust="spacing" textLength="89" x="1674" y="472.5107">:EntityStore</text><polygon fill="#181818" points="2639,510.9453,2649,514.9453,2639,518.9453,2643,514.9453" style="stroke:#181818;stroke-width:1.0;"/><line style="stroke:#181818;stroke-width:1.0;" x1="1723.5" x2="2645" y1="514.9453" y2="514.9453"/><text fill="#000000" font-family="sans-serif" font-size="13" lengthAdjust="spacing" textLength="117" x="2128.75" y="509.8794">getStmtManager()</text><polygon fill="#181818" points="1734.5,540.0781,1724.5,544.0781,1734.5,548.0781,1730.5,544.0781" style="stroke:#181818;stroke-width:1.0;"/><line style="stroke:#181818;stroke-width:1.0;stroke-dasharray:2.0,2.0;" x1="1728.5" x2="2650" y1="544.0781" y2="544.0781"/><text fill="#000000" font-family="sans-serif" font-size="13" lengthAdjust="spacing" textLength="86" x="2144.25" y="539.0122">StmtManager</text><polygon fill="#181818" points="1104,569.2109,1094,573.2109,1104,577.2109,1100,573.2109" style="stroke:#181818;stroke-width:1.0;"/><line style="stroke:#181818;stroke-width:1.0;stroke-dasharray:2.0,2.0;" x1="1098" x2="1717.5" y1="573.2109" y2="573.2109"/><text fill="#000000" font-family="sans-serif" font-size="13" lengthAdjust="spacing" textLength="71" x="1370.25" y="568.145">EntityStore</text><polygon fill="#181818" points="341,598.3438,331,602.3438,341,606.3438,337,602.3438" style="stroke:#181818;stroke-width:1.0;"/><line style="stroke:#181818;stroke-width:1.0;stroke-dasharray:2.0,2.0;" x1="335" x2="1087" y1="602.3438" y2="602.3438"/><text fill="#000000" font-family="sans-serif" font-size="13" lengthAdjust="spacing" textLength="91" x="663.5" y="597.2778">&lt;IStore&gt;Store</text><polygon fill="#181818" points="585,627.4766,595,631.4766,585,635.4766,589,631.4766" style="stroke:#181818;stroke-width:1.0;"/><line style="stroke:#181818;stroke-width:1.0;" x1="330" x2="591" y1="631.4766" y2="631.4766"/><text fill="#000000" font-family="sans-serif" font-size="13" lengthAdjust="spacing" textLength="248" x="339.5" y="626.4106">process(string: filename, IStore: store)</text><path d="M212.5,646.4766 L300.5,646.4766 L300.5,653.6094 L290.5,663.6094 L212.5,663.6094 L212.5,646.4766 " fill="#EEEEEE" style="stroke:#000000;stroke-width:1.5;"/><rect fill="none" height="46.2656" style="stroke:#000000;stroke-width:1.5;" width="474" x="212.5" y="646.4766"/><text fill="#000000" font-family="sans-serif" font-size="13" font-weight="bold" lengthAdjust="spacing" textLength="43" x="227.5" y="659.5435">break</text><text fill="#000000" font-family="sans-serif" font-size="11" font-weight="bold" lengthAdjust="spacing" textLength="80" x="315.5" y="658.687">[Invalid file]</text><polygon fill="#181818" points="341,680.7422,331,684.7422,341,688.7422,337,684.7422" style="stroke:#181818;stroke-width:1.0;"/><line style="stroke:#181818;stroke-width:1.0;" x1="335" x2="596" y1="684.7422" y2="684.7422"/><text fill="#000000" font-family="sans-serif" font-size="13" lengthAdjust="spacing" textLength="162" x="382.5" y="679.6763">SourceManagerException</text><polygon fill="#181818" points="829,716.875,839,720.875,829,724.875,833,720.875" style="stroke:#181818;stroke-width:1.0;"/><line style="stroke:#181818;stroke-width:1.0;" x1="607" x2="835" y1="720.875" y2="720.875"/><text fill="#000000" font-family="sans-serif" font-size="13" lengthAdjust="spacing" textLength="200" x="624" y="715.8091">Tokenizer(ifstream: filestream)</text><rect fill="#3333C4" height="30.2969" rx="2.5" ry="2.5" style="stroke:#181818;stroke-width:0.5;" width="91" x="841" y="699.7422"/><text fill="#FFFFFF" font-family="sans-serif" font-size="14" lengthAdjust="spacing" textLength="77" x="848" y="719.7373">:Tokenizer</text><polygon fill="#181818" points="618,758.1719,608,762.1719,618,766.1719,614,762.1719" style="stroke:#181818;stroke-width:1.0;"/><line style="stroke:#181818;stroke-width:1.0;stroke-dasharray:2.0,2.0;" x1="612" x2="885.5" y1="762.1719" y2="762.1719"/><text fill="#000000" font-family="sans-serif" font-size="13" lengthAdjust="spacing" textLength="62" x="715.75" y="757.106">Tokenizer</text><polygon fill="#181818" points="869.5,787.3047,879.5,791.3047,869.5,795.3047,873.5,791.3047" style="stroke:#181818;stroke-width:1.0;"/><line style="stroke:#181818;stroke-width:1.0;" x1="607" x2="875.5" y1="791.3047" y2="791.3047"/><text fill="#000000" font-family="sans-serif" font-size="13" lengthAdjust="spacing" textLength="64" x="712.25" y="786.2388">tokenize()</text><path d="M517.5,806.3047 L605.5,806.3047 L605.5,813.4375 L595.5,823.4375 L517.5,823.4375 L517.5,806.3047 " fill="#EEEEEE" style="stroke:#000000;stroke-width:1.5;"/><rect fill="none" height="46.2656" style="stroke:#000000;stroke-width:1.5;" width="434.5" x="517.5" y="806.3047"/><text fill="#000000" font-family="sans-serif" font-size="13" font-weight="bold" lengthAdjust="spacing" textLength="43" x="532.5" y="819.3716">break</text><text fill="#000000" font-family="sans-serif" font-size="11" font-weight="bold" lengthAdjust="spacing" textLength="198" x="620.5" y="818.5151">[contains invalid special char]</text><polygon fill="#181818" points="618,840.5703,608,844.5703,618,848.5703,614,844.5703" style="stroke:#181818;stroke-width:1.0;"/><line style="stroke:#181818;stroke-width:1.0;" x1="612" x2="880.5" y1="844.5703" y2="844.5703"/><text fill="#000000" font-family="sans-serif" font-size="13" lengthAdjust="spacing" textLength="125" x="681.75" y="839.5044">TokenizerException</text><polygon fill="#181818" points="618,876.7031,608,880.7031,618,884.7031,614,880.7031" style="stroke:#181818;stroke-width:1.0;"/><line style="stroke:#181818;stroke-width:1.0;stroke-dasharray:2.0,2.0;" x1="612" x2="885.5" y1="880.7031" y2="880.7031"/><text fill="#000000" font-family="sans-serif" font-size="13" lengthAdjust="spacing" textLength="84" x="704.75" y="875.6372">list&lt;Tokens&gt;</text><polygon fill="#181818" points="950,905.8359,960,909.8359,950,913.8359,954,909.8359" style="stroke:#181818;stroke-width:1.0;"/><line style="stroke:#181818;stroke-width:1.0;" x1="607" x2="956" y1="909.8359" y2="909.8359"/><text fill="#000000" font-family="sans-serif" font-size="13" lengthAdjust="spacing" textLength="176" x="696.5" y="904.77">Parser(list&lt;Tokens&gt;: input)</text><rect fill="#3333C4" height="30.2969" rx="2.5" ry="2.5" style="stroke:#181818;stroke-width:0.5;" width="64" x="962" y="888.7031"/><text fill="#FFFFFF" font-family="sans-serif" font-size="14" lengthAdjust="spacing" textLength="50" x="969" y="908.6982">:Parser</text><polygon fill="#181818" points="618,947.1328,608,951.1328,618,955.1328,614,951.1328" style="stroke:#181818;stroke-width:1.0;"/><line style="stroke:#181818;stroke-width:1.0;stroke-dasharray:2.0,2.0;" x1="612" x2="993" y1="951.1328" y2="951.1328"/><text fill="#000000" font-family="sans-serif" font-size="13" lengthAdjust="spacing" textLength="41" x="780" y="946.0669">Parser</text><polygon fill="#181818" points="977,976.2656,987,980.2656,977,984.2656,981,980.2656" style="stroke:#181818;stroke-width:1.0;"/><line style="stroke:#181818;stroke-width:1.0;" x1="607" x2="983" y1="980.2656" y2="980.2656"/><text fill="#000000" font-family="sans-serif" font-size="13" lengthAdjust="spacing" textLength="46" x="775" y="975.1997">parse()</text><path d="M517.5,995.2656 L605.5,995.2656 L605.5,1002.3984 L595.5,1012.3984 L517.5,1012.3984 L517.5,995.2656 " fill="#EEEEEE" style="stroke:#000000;stroke-width:1.5;"/><rect fill="none" height="46.2656" style="stroke:#000000;stroke-width:1.5;" width="528.5" x="517.5" y="995.2656"/><text fill="#000000" font-family="sans-serif" font-size="13" font-weight="bold" lengthAdjust="spacing" textLength="43" x="532.5" y="1008.3325">break</text><text fill="#000000" font-family="sans-serif" font-size="11" font-weight="bold" lengthAdjust="spacing" textLength="138" x="620.5" y="1007.4761">[Invalid source code]</text><polygon fill="#181818" points="618,1029.5313,608,1033.5313,618,1037.5313,614,1033.5313" style="stroke:#181818;stroke-width:1.0;"/><line style="stroke:#181818;stroke-width:1.0;" x1="612" x2="988" y1="1033.5313" y2="1033.5313"/><text fill="#000000" font-family="sans-serif" font-size="13" lengthAdjust="spacing" textLength="104" x="746" y="1028.4653">ParserException</text><polygon fill="#181818" points="618,1050.5313,608,1054.5313,618,1058.5313,614,1054.5313" style="stroke:#181818;stroke-width:1.0;"/><line style="stroke:#181818;stroke-width:1.0;stroke-dasharray:2.0,2.0;" x1="612" x2="993" y1="1054.5313" y2="1054.5313"/><polygon fill="#181818" points="977,1079.6641,987,1083.6641,977,1087.6641,981,1083.6641" style="stroke:#181818;stroke-width:1.0;"/><line style="stroke:#181818;stroke-width:1.0;" x1="607" x2="983" y1="1083.6641" y2="1083.6641"/><text fill="#000000" font-family="sans-serif" font-size="13" lengthAdjust="spacing" textLength="119" x="738.5" y="1078.5981">getProgramNode()</text><polygon fill="#181818" points="618,1108.7969,608,1112.7969,618,1116.7969,614,1112.7969" style="stroke:#181818;stroke-width:1.0;"/><line style="stroke:#181818;stroke-width:1.0;stroke-dasharray:2.0,2.0;" x1="612" x2="993" y1="1112.7969" y2="1112.7969"/><text fill="#000000" font-family="sans-serif" font-size="13" lengthAdjust="spacing" textLength="88" x="756.5" y="1107.731">ProgramNode</text><polygon fill="#181818" points="1788,1137.9297,1798,1141.9297,1788,1145.9297,1792,1141.9297" style="stroke:#181818;stroke-width:1.0;"/><line style="stroke:#181818;stroke-width:1.0;" x1="607" x2="1794" y1="1141.9297" y2="1141.9297"/><text fill="#000000" font-family="sans-serif" font-size="13" lengthAdjust="spacing" textLength="187" x="1110" y="1136.8638">DesignExtractor(IStore store)</text><rect fill="#3333C4" height="30.2969" rx="2.5" ry="2.5" style="stroke:#181818;stroke-width:0.5;" width="136" x="1800" y="1120.7969"/><text fill="#FFFFFF" font-family="sans-serif" font-size="14" lengthAdjust="spacing" textLength="122" x="1807" y="1140.792">:DesignExtractor</text><polygon fill="#181818" points="1104,1179.2266,1094,1183.2266,1104,1187.2266,1100,1183.2266" style="stroke:#181818;stroke-width:1.0;"/><line style="stroke:#181818;stroke-width:1.0;" x1="1098" x2="1862" y1="1183.2266" y2="1183.2266"/><text fill="#000000" font-family="sans-serif" font-size="13" lengthAdjust="spacing" textLength="102" x="1427" y="1178.1606">getEntityStore()</text><polygon fill="#181818" points="1851,1208.3594,1861,1212.3594,1851,1216.3594,1855,1212.3594" style="stroke:#181818;stroke-width:1.0;"/><line style="stroke:#181818;stroke-width:1.0;stroke-dasharray:2.0,2.0;" x1="1088" x2="1857" y1="1212.3594" y2="1212.3594"/><text fill="#000000" font-family="sans-serif" font-size="13" lengthAdjust="spacing" textLength="71" x="1440" y="1207.2935">EntityStore</text><polygon fill="#181818" points="2072,1237.4922,2082,1241.4922,2072,1245.4922,2076,1241.4922" style="stroke:#181818;stroke-width:1.0;"/><line style="stroke:#181818;stroke-width:1.0;" x1="1873" x2="2078" y1="1241.4922" y2="1241.4922"/><text fill="#000000" font-family="sans-serif" font-size="13" lengthAdjust="spacing" textLength="177" x="1890" y="1236.4263">EntityExtractor(EntityStore)</text><rect fill="#3333C4" height="30.2969" rx="2.5" ry="2.5" style="stroke:#181818;stroke-width:0.5;" width="131" x="2084" y="1220.3594"/><text fill="#FFFFFF" font-family="sans-serif" font-size="14" lengthAdjust="spacing" textLength="117" x="2091" y="1240.3545">:EntityExtractor</text><polygon fill="#181818" points="1884,1278.7891,1874,1282.7891,1884,1286.7891,1880,1282.7891" style="stroke:#181818;stroke-width:1.0;"/><line style="stroke:#181818;stroke-width:1.0;stroke-dasharray:2.0,2.0;" x1="1878" x2="2148.5" y1="1282.7891" y2="1282.7891"/><text fill="#000000" font-family="sans-serif" font-size="13" lengthAdjust="spacing" textLength="96" x="1963.25" y="1277.7231">EntityExtractor</text><polygon fill="#181818" points="2405,1307.9219,2415,1311.9219,2405,1315.9219,2409,1311.9219" style="stroke:#181818;stroke-width:1.0;"/><line style="stroke:#181818;stroke-width:1.0;" x1="1873" x2="2411" y1="1311.9219" y2="1311.9219"/><text fill="#000000" font-family="sans-serif" font-size="13" lengthAdjust="spacing" textLength="218" x="2036" y="1306.856">RelationshipExtractor(EntityStore)</text><rect fill="#3333C4" height="30.2969" rx="2.5" ry="2.5" style="stroke:#181818;stroke-width:0.5;" width="177" x="2417" y="1290.7891"/><text fill="#FFFFFF" font-family="sans-serif" font-size="14" lengthAdjust="spacing" textLength="163" x="2424" y="1310.7842">:RelationshipExtractor</text><polygon fill="#181818" points="1884,1349.2188,1874,1353.2188,1884,1357.2188,1880,1353.2188" style="stroke:#181818;stroke-width:1.0;"/><line style="stroke:#181818;stroke-width:1.0;stroke-dasharray:2.0,2.0;" x1="1878" x2="2504.5" y1="1353.2188" y2="1353.2188"/><text fill="#000000" font-family="sans-serif" font-size="13" lengthAdjust="spacing" textLength="137" x="2120.75" y="1348.1528">RelationshipExtractor</text><polygon fill="#181818" points="2233,1378.3516,2243,1382.3516,2233,1386.3516,2237,1382.3516" style="stroke:#181818;stroke-width:1.0;"/><line style="stroke:#181818;stroke-width:1.0;" x1="1873" x2="2239" y1="1382.3516" y2="1382.3516"/><text fill="#000000" font-family="sans-serif" font-size="13" lengthAdjust="spacing" textLength="187" x="1965.5" y="1377.2856">PatternExtractor(EntityStore)</text><rect fill="#3333C4" height="30.2969" rx="2.5" ry="2.5" style="stroke:#181818;stroke-width:0.5;" width="142" x="2245" y="1361.2188"/><text fill="#FFFFFF" font-family="sans-serif" font-size="14" lengthAdjust="spacing" textLength="128" x="2252" y="1381.2139">:PatternExtractor</text><polygon fill="#181818" points="1884,1419.6484,1874,1423.6484,1884,1427.6484,1880,1423.6484" style="stroke:#181818;stroke-width:1.0;"/><line style="stroke:#181818;stroke-width:1.0;stroke-dasharray:2.0,2.0;" x1="1878" x2="2315" y1="1423.6484" y2="1423.6484"/><text fill="#000000" font-family="sans-serif" font-size="13" lengthAdjust="spacing" textLength="106" x="2041.5" y="1418.5825">PatternExtractor</text><polygon fill="#181818" points="618,1448.7813,608,1452.7813,618,1456.7813,614,1452.7813" style="stroke:#181818;stroke-width:1.0;"/><line style="stroke:#181818;stroke-width:1.0;stroke-dasharray:2.0,2.0;" x1="612" x2="1867" y1="1452.7813" y2="1452.7813"/><text fill="#000000" font-family="sans-serif" font-size="13" lengthAdjust="spacing" textLength="103" x="1186" y="1447.7153">DesignExtractor</text><polygon fill="#181818" points="1851,1477.9141,1861,1481.9141,1851,1485.9141,1855,1481.9141" style="stroke:#181818;stroke-width:1.0;"/><line style="stroke:#181818;stroke-width:1.0;" x1="607" x2="1857" y1="1481.9141" y2="1481.9141"/><text fill="#000000" font-family="sans-serif" font-size="13" lengthAdjust="spacing" textLength="144" x="1163" y="1476.8481">extract(ProgramNode)</text><polygon fill="#181818" points="2132.5,1507.0469,2142.5,1511.0469,2132.5,1515.0469,2136.5,1511.0469" style="stroke:#181818;stroke-width:1.0;"/><line style="stroke:#181818;stroke-width:1.0;" x1="1873" x2="2138.5" y1="1511.0469" y2="1511.0469"/><text fill="#000000" font-family="sans-serif" font-size="13" lengthAdjust="spacing" textLength="199" x="1909.25" y="1505.981">extractProgram(ProgramNode)</text><path d="M1647,1526.0469 L1725,1526.0469 L1725,1533.1797 L1715,1543.1797 L1647,1543.1797 L1647,1526.0469 " fill="#EEEEEE" style="stroke:#000000;stroke-width:1.5;"/><rect fill="none" height="103.3984" style="stroke:#000000;stroke-width:1.5;" width="1061" x="1647" y="1526.0469"/><text fill="#000000" font-family="sans-serif" font-size="13" font-weight="bold" lengthAdjust="spacing" textLength="33" x="1662" y="1539.1138">loop</text><text fill="#000000" font-family="sans-serif" font-size="11" font-weight="bold" lengthAdjust="spacing" textLength="112" x="1740" y="1538.2573">[For each entity]</text><polygon fill="#181818" points="1734.5,1560.3125,1724.5,1564.3125,1734.5,1568.3125,1730.5,1564.3125" style="stroke:#181818;stroke-width:1.0;"/><line style="stroke:#181818;stroke-width:1.0;" x1="1728.5" x2="2143.5" y1="1564.3125" y2="1564.3125"/><text fill="#000000" font-family="sans-serif" font-size="13" lengthAdjust="spacing" textLength="116" x="1876" y="1559.2466">insertEntity(Node)</text><polygon fill="#181818" points="2639,1589.4453,2649,1593.4453,2639,1597.4453,2643,1593.4453" style="stroke:#181818;stroke-width:1.0;"/><line style="stroke:#181818;stroke-width:1.0;" x1="1723.5" x2="2645" y1="1593.4453" y2="1593.4453"/><text fill="#000000" font-family="sans-serif" font-size="13" lengthAdjust="spacing" textLength="156" x="2109.25" y="1588.3794">insertEntity(int stmt_no)</text><polygon fill="#181818" points="1734.5,1603.4453,1724.5,1607.4453,1734.5,1611.4453,1730.5,1607.4453" style="stroke:#181818;stroke-width:1.0;"/><line style="stroke:#181818;stroke-width:1.0;stroke-dasharray:2.0,2.0;" x1="1728.5" x2="2650" y1="1607.4453" y2="1607.4453"/><polygon fill="#181818" points="2132.5,1617.4453,2142.5,1621.4453,2132.5,1625.4453,2136.5,1621.4453" style="stroke:#181818;stroke-width:1.0;"/><line style="stroke:#181818;stroke-width:1.0;" x1="1718.5" x2="2138.5" y1="1621.4453" y2="1621.4453"/><polygon fill="#181818" points="1884,1638.4453,1874,1642.4453,1884,1646.4453,1880,1642.4453" style="stroke:#181818;stroke-width:1.0;"/><line style="stroke:#181818;stroke-width:1.0;stroke-dasharray:2.0,2.0;" x1="1878" x2="2148.5" y1="1642.4453" y2="1642.4453"/><polygon fill="#181818" points="2488.5,1667.5781,2498.5,1671.5781,2488.5,1675.5781,2492.5,1671.5781" style="stroke:#181818;stroke-width:1.0;"/><line style="stroke:#181818;stroke-width:1.0;" x1="1873" x2="2494.5" y1="1671.5781" y2="1671.5781"/><text fill="#000000" font-family="sans-serif" font-size="13" lengthAdjust="spacing" textLength="199" x="2087.25" y="1666.5122">extractProgram(ProgramNode)</text><path d="M1468,1686.5781 L1546,1686.5781 L1546,1693.7109 L1536,1703.7109 L1468,1703.7109 L1468,1686.5781 " fill="#EEEEEE" style="stroke:#000000;stroke-width:1.5;"/><rect fill="none" height="103.3984" style="stroke:#000000;stroke-width:1.5;" width="1240" x="1468" y="1686.5781"/><text fill="#000000" font-family="sans-serif" font-size="13" font-weight="bold" lengthAdjust="spacing" textLength="33" x="1483" y="1699.645">loop</text><text fill="#000000" font-family="sans-serif" font-size="11" font-weight="bold" lengthAdjust="spacing" textLength="152" x="1561" y="1698.7886">[For each relationship]</text><polygon fill="#181818" points="1583.5,1720.8438,1573.5,1724.8438,1583.5,1728.8438,1579.5,1724.8438" style="stroke:#181818;stroke-width:1.0;"/><line style="stroke:#181818;stroke-width:1.0;" x1="1577.5" x2="2499.5" y1="1724.8438" y2="1724.8438"/><text fill="#000000" font-family="sans-serif" font-size="13" lengthAdjust="spacing" textLength="124" x="1974.5" y="1719.7778">insertRelationship()</text><polygon fill="#181818" points="2639,1749.9766,2649,1753.9766,2639,1757.9766,2643,1753.9766" style="stroke:#181818;stroke-width:1.0;"/><line style="stroke:#181818;stroke-width:1.0;" x1="1572.5" x2="2645" y1="1753.9766" y2="1753.9766"/><text fill="#000000" font-family="sans-serif" font-size="13" lengthAdjust="spacing" textLength="278" x="1972.75" y="1748.9106">insertRelationship(int stmt_no, int stmt_no)</text><polygon fill="#181818" points="1583.5,1763.9766,1573.5,1767.9766,1583.5,1771.9766,1579.5,1767.9766" style="stroke:#181818;stroke-width:1.0;"/><line style="stroke:#181818;stroke-width:1.0;stroke-dasharray:2.0,2.0;" x1="1577.5" x2="2650" y1="1767.9766" y2="1767.9766"/><polygon fill="#181818" points="2488.5,1777.9766,2498.5,1781.9766,2488.5,1785.9766,2492.5,1781.9766" style="stroke:#181818;stroke-width:1.0;"/><line style="stroke:#181818;stroke-width:1.0;" x1="1567.5" x2="2494.5" y1="1781.9766" y2="1781.9766"/><polygon fill="#181818" points="1884,1798.9766,1874,1802.9766,1884,1806.9766,1880,1802.9766" style="stroke:#181818;stroke-width:1.0;"/><line style="stroke:#181818;stroke-width:1.0;stroke-dasharray:2.0,2.0;" x1="1878" x2="2504.5" y1="1802.9766" y2="1802.9766"/><polygon fill="#181818" points="2299,1828.1094,2309,1832.1094,2299,1836.1094,2303,1832.1094" style="stroke:#181818;stroke-width:1.0;"/><line style="stroke:#181818;stroke-width:1.0;" x1="1873" x2="2305" y1="1832.1094" y2="1832.1094"/><text fill="#000000" font-family="sans-serif" font-size="13" lengthAdjust="spacing" textLength="199" x="1992.5" y="1827.0435">extractProgram(ProgramNode)</text><path d="M1324,1847.1094 L1402,1847.1094 L1402,1854.2422 L1392,1864.2422 L1324,1864.2422 L1324,1847.1094 " fill="#EEEEEE" style="stroke:#000000;stroke-width:1.5;"/><rect fill="none" height="103.3984" style="stroke:#000000;stroke-width:1.5;" width="1384" x="1324" y="1847.1094"/><text fill="#000000" font-family="sans-serif" font-size="13" font-weight="bold" lengthAdjust="spacing" textLength="33" x="1339" y="1860.1763">loop</text><text fill="#000000" font-family="sans-serif" font-size="11" font-weight="bold" lengthAdjust="spacing" textLength="123" x="1417" y="1859.3198">[For each pattern]</text><polygon fill="#181818" points="1417,1881.375,1407,1885.375,1417,1889.375,1413,1885.375" style="stroke:#181818;stroke-width:1.0;"/><line style="stroke:#181818;stroke-width:1.0;" x1="1411" x2="2310" y1="1885.375" y2="1885.375"/><text fill="#000000" font-family="sans-serif" font-size="13" lengthAdjust="spacing" textLength="93" x="1812" y="1880.3091">insertPattern()</text><polygon fill="#181818" points="2639,1910.5078,2649,1914.5078,2639,1918.5078,2643,1914.5078" style="stroke:#181818;stroke-width:1.0;"/><line style="stroke:#181818;stroke-width:1.0;" x1="1406" x2="2645" y1="1914.5078" y2="1914.5078"/><text fill="#000000" font-family="sans-serif" font-size="13" lengthAdjust="spacing" textLength="312" x="1872.5" y="1909.4419">insertPattern(int stmt_no, string left, string right)</text><polygon fill="#181818" points="1417,1924.5078,1407,1928.5078,1417,1932.5078,1413,1928.5078" style="stroke:#181818;stroke-width:1.0;"/><line style="stroke:#181818;stroke-width:1.0;stroke-dasharray:2.0,2.0;" x1="1411" x2="2650" y1="1928.5078" y2="1928.5078"/><polygon fill="#181818" points="2299,1938.5078,2309,1942.5078,2299,1946.5078,2303,1942.5078" style="stroke:#181818;stroke-width:1.0;"/><line style="stroke:#181818;stroke-width:1.0;" x1="1401" x2="2305" y1="1942.5078" y2="1942.5078"/><polygon fill="#181818" points="1884,1959.5078,1874,1963.5078,1884,1967.5078,1880,1963.5078" style="stroke:#181818;stroke-width:1.0;"/><line style="stroke:#181818;stroke-width:1.0;stroke-dasharray:2.0,2.0;" x1="1878" x2="2315" y1="1963.5078" y2="1963.5078"/><polygon fill="#181818" points="618,1973.5078,608,1977.5078,618,1981.5078,614,1977.5078" style="stroke:#181818;stroke-width:1.0;"/><line style="stroke:#181818;stroke-width:1.0;stroke-dasharray:2.0,2.0;" x1="612" x2="1867" y1="1977.5078" y2="1977.5078"/><polygon fill="#181818" points="341,1987.5078,331,1991.5078,341,1995.5078,337,1991.5078" style="stroke:#181818;stroke-width:1.0;"/><line style="stroke:#181818;stroke-width:1.0;stroke-dasharray:2.0,2.0;" x1="335" x2="601" y1="1991.5078" y2="1991.5078"/><polygon fill="#181818" points="63,2001.5078,53,2005.5078,63,2009.5078,59,2005.5078" style="stroke:#181818;stroke-width:1.0;"/><line style="stroke:#181818;stroke-width:1.0;stroke-dasharray:2.0,2.0;" x1="57" x2="324" y1="2005.5078" y2="2005.5078"/><!--SRC=[fLTPRziu47xNh-0s3wi5Ma2g7SSHWW0-2wDD4yG9-bYm4cqJaIMln7IJ5llVToJHrl2I7QnVBCtnpSKPZlv8s8fdZ3mklazklzpUaxDmEhmC0kyFZV7z8IHdmzxiOd1fuNqaPxtvv28SMtWzm1mCXbRCFZaBPlqGU0VcbzjFYydUcHxy9dqRh_PdCfmCvoCx6rmQZ0QZwSJEhhqA1-F0pWR7mY0CXeFMiPlRwUpBth7BQH247ssysh7vvKKu3EriS0n2dlS6TZOuTZ4EWc1cPuDZvv2lODGwjdoulHzzckrT6_M6FPHiXTiuDv_rBlekWSgzwUJyenC171m6Wu7R122Sz_jzNDJ7vUn-xrzG_polVEBPZXPqIyOqVbeN-NEMJF8qBoeFwn-MMMveal_3ipLPqRHac3L9QLcItnw1tppFX09IKyTvaR3YOSFZfuo1R8YeglIV5MCfMC5oyRfZ1xYhAvOzRrb11S-pw-iJv7a6r1MDsGdIX_FavADWAkfNkcLaL72QUl_YL8nY0TA_ZV3Q_DSiAx4BTyd-VcPPp2Jq3IIHhjaevUkCnAoAL9fygL2M_1SZuVcUT4UJf2fSW6NU5jSTBGIF-OvcmbNe1cHl2uwl0d33i_gOVEE9s93pm8wzrmw3ZfFNSgPiHPzJyS1UH9sABMHYduvMQWUd6vAr5Ayf8_Si5ZHRft20DpnXP9NduaV-qhnisVO7Ayhc9UP5N8a1bopll1tAmBleSV6Eq186APvQcinIm66Dxufy3LwCCfg-_c95hMRbT27bpqNCRcW6OKW4JEdGVCYVMCRtTWzl7HfGZLAADu-T4UO5an71KoUgWA9ahG8cTEZTixJk-7B3TwsoGUr0c6M2YzTM5xrtQ4rP2UTfzY8AMdLqhQdHZjfKjJNQyLofwZhnn9of85QE6-dkyxYn_Nci2B4i8LNFW3h_IKMrJtWUjCA7Q_l9ZWWf64qaTLxaspbFcL-A0few8YjuoM3k_DK2Mc4ypzutO1OyZCYQYMy55wogBRI5Z_20xtbL61_SFcBTY9JL0V6y61ol_QdUdEPhTjJy-HOS9JACYxl0Qyva5GsYHihR4N05pbDQ32L9qkNmW3Jj4sErAyKqj3PenMR27Bx8U8t6ROCsM959EXA-YUwPam8b0ZFDR1nnQ9yNYuKsEQP7A4CMTsMQq8ng4uI84NuvaXICvU7XXnAn55jX9a0nY4HKb3POR0c5gJY0bQnTUBMeHQuDc0E0gmVnZHYHNP77i2GPG-OzMKXtZSx4073jGocUo2BxILEUrEhDSgXSlEuu5BdPIynsLQchqNceyk4szWpG0ojg7ts-Wc0OtJR1DC_8_nREQ-_v3sPcMZcKNQJSvOoGZxxTRfEp63P3ohEIS9cySiTYs2X9lA7DcehySxkd9QqpffINuggMAAyTOHqcRhNJc47ANIUI3pv6Z22ItRDG1csDuaajYqTIGXc8ZOx3D1pPwj-tM56FObdhGvOJ9ZVknWU72reQdHw_oTNg5cbE_5TmmtzRPbf5cqrP9stPCbtH12ATu3TzRhIv3kpfQrqxq21AF6VDMxoTPeOtZc5ec_EjBnPND9589_Z8a37rKPJw-jdXTAjbJ744QBdHEmEn2aPsiYCekotFljLQ0xGZEEvaCrXz2RV5gSj41iKHdG7k6Jk_DIP3prp2kawxsQ1wXo0yetcEjoLh7dtKzc_iHgC59AH4T20R1pRDynsP0oI4io6iPjS3r6WDRVM1gumLSXBuZPLApRhWj7ZgagLWSFYuAc6V-fxb3PHbux8XwI5L8ev5gvxrf_HyPu-VtiOdbSJUN5txi5gp0WdKmJiwtxgxDnN035-hesbVjs6hgOA8AlkUECly1aFsb6c5D_7gydTAd3uqJnYF9ut1auw8ER3K8x1h-7BnqSUZ_WdRL4ZIz78h7wW8prRaFOHIt-RJWgHi9Gul1LzlX5hjutRqcBNoAW1oYJlXOlZVzy1R1h_pGqXPVjGlBCUd740zBbGzc-1_]--></g></svg>