<?xml version="1.0" encoding="UTF-8" standalone="no"?><svg xmlns="http://www.w3.org/2000/svg" xmlns:xlink="http://www.w3.org/1999/xlink" contentStyleType="text/css" height="433px" preserveAspectRatio="none" style="width:757px;height:433px;background:#FFFFFF;" version="1.1" viewBox="0 0 757 433" width="757px" zoomAndPan="magnify"><defs/><g><rect fill="#DDDDDD" height="414.0234" style="stroke:#181818;stroke-width:0.5;" width="750" x="1" y="6"/><text fill="#FFFFFF" font-family="sans-serif" font-size="13" font-weight="bold" lengthAdjust="spacing" textLength="111" x="320.5" y="18.0669">PKB (From SP)</text><rect fill="#FFFFFF" height="350.5938" style="stroke:#181818;stroke-width:1.0;" width="10" x="42" y="66.4297"/><rect fill="#FFFFFF" height="29.1328" style="stroke:#181818;stroke-width:1.0;" width="10" x="204" y="87.5625"/><rect fill="#FFFFFF" height="29.1328" style="stroke:#181818;stroke-width:1.0;" width="10" x="204" y="204.0938"/><rect fill="#FFFFFF" height="29.1328" style="stroke:#181818;stroke-width:1.0;" width="10" x="204" y="320.625"/><rect fill="#FFFFFF" height="29.1328" style="stroke:#181818;stroke-width:1.0;" width="10" x="350.5" y="145.8281"/><rect fill="#FFFFFF" height="29.1328" style="stroke:#181818;stroke-width:1.0;" width="10" x="503" y="262.3594"/><rect fill="#FFFFFF" height="29.1328" style="stroke:#181818;stroke-width:1.0;" width="10" x="664.5" y="378.8906"/><line style="stroke:#181818;stroke-width:0.5;stroke-dasharray:5.0,5.0;" x1="47" x2="47" y1="56.4297" y2="426.0234"/><line style="stroke:#181818;stroke-width:0.5;stroke-dasharray:5.0,5.0;" x1="209" x2="209" y1="56.4297" y2="426.0234"/><line style="stroke:#181818;stroke-width:0.5;stroke-dasharray:5.0,5.0;" x1="355" x2="355" y1="56.4297" y2="426.0234"/><line style="stroke:#181818;stroke-width:0.5;stroke-dasharray:5.0,5.0;" x1="508" x2="508" y1="56.4297" y2="426.0234"/><line style="stroke:#181818;stroke-width:0.5;stroke-dasharray:5.0,5.0;" x1="669" x2="669" y1="56.4297" y2="426.0234"/><rect fill="#3333C4" height="30.2969" rx="2.5" ry="2.5" style="stroke:#181818;stroke-width:0.5;" width="64" x="15" y="25.1328"/><text fill="#FFFFFF" font-family="sans-serif" font-size="14" lengthAdjust="spacing" textLength="18" x="38" y="45.1279">SP</text><rect fill="#3333C4" height="30.2969" rx="2.5" ry="2.5" style="stroke:#181818;stroke-width:0.5;" width="116" x="151" y="25.1328"/><text fill="#FFFFFF" font-family="sans-serif" font-size="14" lengthAdjust="spacing" textLength="102" x="158" y="45.1279">:WriteStorage</text><rect fill="#3333C4" height="30.2969" rx="2.5" ry="2.5" style="stroke:#181818;stroke-width:0.5;" width="117" x="297" y="25.1328"/><text fill="#FFFFFF" font-family="sans-serif" font-size="14" lengthAdjust="spacing" textLength="103" x="304" y="45.1279">:StmtManager</text><rect fill="#3333C4" height="30.2969" rx="2.5" ry="2.5" style="stroke:#181818;stroke-width:0.5;" width="128" x="444" y="25.1328"/><text fill="#FFFFFF" font-family="sans-serif" font-size="14" lengthAdjust="spacing" textLength="114" x="451" y="45.1279">:ParentManager</text><rect fill="#3333C4" height="30.2969" rx="2.5" ry="2.5" style="stroke:#181818;stroke-width:0.5;" width="135" x="602" y="25.1328"/><text fill="#FFFFFF" font-family="sans-serif" font-size="14" lengthAdjust="spacing" textLength="121" x="609" y="45.1279">:AssignPatternManager</text><rect fill="#FFFFFF" height="350.5938" style="stroke:#181818;stroke-width:1.0;" width="10" x="42" y="66.4297"/><rect fill="#FFFFFF" height="29.1328" style="stroke:#181818;stroke-width:1.0;" width="10" x="204" y="87.5625"/><rect fill="#FFFFFF" height="29.1328" style="stroke:#181818;stroke-width:1.0;" width="10" x="204" y="204.0938"/><rect fill="#FFFFFF" height="29.1328" style="stroke:#181818;stroke-width:1.0;" width="10" x="204" y="320.625"/><rect fill="#FFFFFF" height="29.1328" style="stroke:#181818;stroke-width:1.0;" width="10" x="350.5" y="145.8281"/><rect fill="#FFFFFF" height="29.1328" style="stroke:#181818;stroke-width:1.0;" width="10" x="503" y="262.3594"/><rect fill="#FFFFFF" height="29.1328" style="stroke:#181818;stroke-width:1.0;" width="10" x="664.5" y="378.8906"/><polygon fill="#181818" points="192,83.5625,202,87.5625,192,91.5625,196,87.5625" style="stroke:#181818;stroke-width:1.0;"/><line style="stroke:#181818;stroke-width:1.0;" x1="52" x2="198" y1="87.5625" y2="87.5625"/><text fill="#000000" font-family="sans-serif" font-size="13" lengthAdjust="spacing" textLength="117" x="69.5" y="82.4966">getStmtManager()</text><polygon fill="#181818" points="63,112.6953,53,116.6953,63,120.6953,59,116.6953" style="stroke:#181818;stroke-width:1.0;"/><line style="stroke:#181818;stroke-width:1.0;stroke-dasharray:2.0,2.0;" x1="57" x2="208" y1="116.6953" y2="116.6953"/><text fill="#000000" font-family="sans-serif" font-size="13" lengthAdjust="spacing" textLength="86" x="87.5" y="111.6294">StmtManager</text><polygon fill="#181818" points="338.5,141.8281,348.5,145.8281,338.5,149.8281,342.5,145.8281" style="stroke:#181818;stroke-width:1.0;"/><line style="stroke:#181818;stroke-width:1.0;" x1="52" x2="344.5" y1="145.8281" y2="145.8281"/><text fill="#000000" font-family="sans-serif" font-size="13" lengthAdjust="spacing" textLength="161" x="120.75" y="140.7622">insertEntity(int: stmt_no)</text><polygon fill="#181818" points="63,170.9609,53,174.9609,63,178.9609,59,174.9609" style="stroke:#181818;stroke-width:1.0;"/><line style="stroke:#181818;stroke-width:1.0;stroke-dasharray:2.0,2.0;" x1="57" x2="354.5" y1="174.9609" y2="174.9609"/><text fill="#000000" font-family="sans-serif" font-size="13" lengthAdjust="spacing" textLength="27" x="190.25" y="169.895">bool</text><polygon fill="#181818" points="192,200.0938,202,204.0938,192,208.0938,196,204.0938" style="stroke:#181818;stroke-width:1.0;"/><line style="stroke:#181818;stroke-width:1.0;" x1="52" x2="198" y1="204.0938" y2="204.0938"/><text fill="#000000" font-family="sans-serif" font-size="13" lengthAdjust="spacing" textLength="128" x="64" y="199.0278">getParentManager()</text><polygon fill="#181818" points="63,229.2266,53,233.2266,63,237.2266,59,233.2266" style="stroke:#181818;stroke-width:1.0;"/><line style="stroke:#181818;stroke-width:1.0;stroke-dasharray:2.0,2.0;" x1="57" x2="208" y1="233.2266" y2="233.2266"/><text fill="#000000" font-family="sans-serif" font-size="13" lengthAdjust="spacing" textLength="97" x="82" y="228.1606">parentManager</text><polygon fill="#181818" points="491,258.3594,501,262.3594,491,266.3594,495,262.3594" style="stroke:#181818;stroke-width:1.0;"/><line style="stroke:#181818;stroke-width:1.0;" x1="52" x2="497" y1="262.3594" y2="262.3594"/><text fill="#000000" font-family="sans-serif" font-size="13" lengthAdjust="spacing" textLength="288" x="133.5" y="257.2935">insertRelationship(int: stmt_no, int: stmt_no)</text><polygon fill="#181818" points="63,287.4922,53,291.4922,63,295.4922,59,291.4922" style="stroke:#181818;stroke-width:1.0;"/><line style="stroke:#181818;stroke-width:1.0;stroke-dasharray:2.0,2.0;" x1="57" x2="507" y1="291.4922" y2="291.4922"/><text fill="#000000" font-family="sans-serif" font-size="13" lengthAdjust="spacing" textLength="27" x="266.5" y="286.4263">bool</text><polygon fill="#181818" points="192,316.625,202,320.625,192,324.625,196,320.625" style="stroke:#181818;stroke-width:1.0;"/><line style="stroke:#181818;stroke-width:1.0;" x1="52" x2="198" y1="320.625" y2="320.625"/><text fill="#000000" font-family="sans-serif" font-size="13" lengthAdjust="spacing" textLength="133" x="61.5" y="315.5591">getAssignPatternManager()</text><polygon fill="#181818" points="63,345.7578,53,349.7578,63,353.7578,59,349.7578" style="stroke:#181818;stroke-width:1.0;"/><line style="stroke:#181818;stroke-width:1.0;stroke-dasharray:2.0,2.0;" x1="57" x2="208" y1="349.7578" y2="349.7578"/><text fill="#000000" font-family="sans-serif" font-size="13" lengthAdjust="spacing" textLength="102" x="79.5" y="344.6919">AssignPatternManager</text><polygon fill="#181818" points="652.5,374.8906,662.5,378.8906,652.5,382.8906,656.5,378.8906" style="stroke:#181818;stroke-width:1.0;"/><line style="stroke:#181818;stroke-width:1.0;" x1="52" x2="658.5" y1="378.8906" y2="378.8906"/><text fill="#000000" font-family="sans-serif" font-size="13" lengthAdjust="spacing" textLength="327" x="194.75" y="373.8247">insertPattern(int: stmt_no, string: left, string: right)</text><polygon fill="#181818" points="63,404.0234,53,408.0234,63,412.0234,59,408.0234" style="stroke:#181818;stroke-width:1.0;"/><line style="stroke:#181818;stroke-width:1.0;stroke-dasharray:2.0,2.0;" x1="57" x2="668.5" y1="408.0234" y2="408.0234"/><text fill="#000000" font-family="sans-serif" font-size="13" lengthAdjust="spacing" textLength="27" x="347.25" y="402.9575">bool</text><!--SRC=[bLJHJjim57tFLtZqOI0DoI5jcbO8AKrJX4RNg2dY4Pd4RIrIftFC1aEJ-93jv_YItQHDOxEaWDzypxdtddjyvKyndJDEqTN5ZJUvd4nHonmwFOoDJw-0cvc9MexbT-rU3NQ2MjR8wvg36io2chRjrDPienRssoPWE_1oSdxXbM8iE5wx3YlqU8xdZDnw62JPhkqElNguK6NQ0rmFWp0JczYnAs7ZoT2_B8NrXXYR9tLO8MpKwvgEMG-3C1XvPDdrC0Zh3Z36VZqCmZhW5tOhOU5iCdNF_LAQQpcMOhQ6RiIDVAlRRYBayePUvwIn0WXqi6qtju0AdNQxhJxgLUXFItsuE8QHtJ6-9eAiq814TmkHtlFOIvDKv0gBetB29OdJdumlq9ma6LKXBo5PXfuC16UKSgaLAQA3LCHKp9OikkCKkAOIrTcVSo2KLD1KFgxfhjpfAUNtAog8P2a_Eti7dt68pab4ty7UxLCZhWoJHx-H5KMkO2GnVgjMk944zjD_urN-5r1jS5_Ta7w_fpoYsz9ZC94ig9km1KSHpIVTjdp8guJi5qLcfmm598xpXyCgvsDp1KH85h4ruRBfeJT5obwmlbg1CUF5cbopM2vH1zVNBhDDl6VpAcH8v-G-aJFw80ihLk14QKV5MiDsWrcXV4mecj984hv8O86NBAPedgRoDdtON5PqTKj5jhb4J4Gv3L0KV1sWmv58GKnmPAmLCmx2u02H3EBg_wLHNfx_zAy5aw0W5I3avVbldg66zkQ6SYN7X0DDR5fLzyQyWpwu2aQeULfaRyU0IB2GRwbRlNfGowSyHhc999Bi1v7m8GK6679yfWtPHmig5V67HrM2oZCqPuwXIXZqrQcDcDOdRdegp3vYFAD2-bmo-NW8Nq8VPG3VyFJ8S7TgbTAgkMNhspHDr9uQltvCpUkF3RfMKzyOLMjJ3ZkbIV5BPaksraR-WXeCqCeO-fuqcQ3dDDgWxin7VL1ptpH29PTERAElJCYaWC-aZn8wbzLDiCLIQfvexLzjVxChAkqV]--></g></svg>