<?xml version="1.0" encoding="us-ascii" standalone="no"?><svg xmlns="http://www.w3.org/2000/svg" xmlns:xlink="http://www.w3.org/1999/xlink" contentStyleType="text/css" height="433px" preserveAspectRatio="none" style="width:847px;height:433px;background:#FFFFFF;" version="1.1" viewBox="0 0 847 433" width="847px" zoomAndPan="magnify"><defs/><g><rect fill="#DDDDDD" height="414.0234" style="stroke:#181818;stroke-width:0.5;" width="840" x="1" y="6"/><text fill="#FFFFFF" font-family="sans-serif" font-size="13" font-weight="bold" lengthAdjust="spacing" textLength="103" x="369.5" y="18.0669">PKB (To QPS)</text><rect fill="#FFFFFF" height="350.5938" style="stroke:#181818;stroke-width:1.0;" width="10" x="42" y="66.4297"/><rect fill="#FFFFFF" height="29.1328" style="stroke:#181818;stroke-width:1.0;" width="10" x="246" y="87.5625"/><rect fill="#FFFFFF" height="29.1328" style="stroke:#181818;stroke-width:1.0;" width="10" x="246" y="204.0938"/><rect fill="#FFFFFF" height="29.1328" style="stroke:#181818;stroke-width:1.0;" width="10" x="246" y="320.625"/><rect fill="#FFFFFF" height="29.1328" style="stroke:#181818;stroke-width:1.0;" width="10" x="390.5" y="145.8281"/><rect fill="#FFFFFF" height="29.1328" style="stroke:#181818;stroke-width:1.0;" width="10" x="545" y="262.3594"/><rect fill="#FFFFFF" height="29.1328" style="stroke:#181818;stroke-width:1.0;" width="10" x="731.5" y="378.8906"/><line style="stroke:#181818;stroke-width:0.5;stroke-dasharray:5.0,5.0;" x1="47" x2="47" y1="56.4297" y2="426.0234"/><line style="stroke:#181818;stroke-width:0.5;stroke-dasharray:5.0,5.0;" x1="251" x2="251" y1="56.4297" y2="426.0234"/><line style="stroke:#181818;stroke-width:0.5;stroke-dasharray:5.0,5.0;" x1="395" x2="395" y1="56.4297" y2="426.0234"/><line style="stroke:#181818;stroke-width:0.5;stroke-dasharray:5.0,5.0;" x1="550" x2="550" y1="56.4297" y2="426.0234"/><line style="stroke:#181818;stroke-width:0.5;stroke-dasharray:5.0,5.0;" x1="736" x2="736" y1="56.4297" y2="426.0234"/><rect fill="#3333C4" height="30.2969" rx="2.5" ry="2.5" style="stroke:#181818;stroke-width:0.5;" width="64" x="15" y="25.1328"/><text fill="#FFFFFF" font-family="sans-serif" font-size="14" lengthAdjust="spacing" textLength="29" x="32.5" y="45.1279">QPS</text><rect fill="#3333C4" height="30.2969" rx="2.5" ry="2.5" style="stroke:#181818;stroke-width:0.5;" width="112" x="195" y="25.1328"/><text fill="#FFFFFF" font-family="sans-serif" font-size="14" lengthAdjust="spacing" textLength="98" x="202" y="45.1279">:ReadStorage</text><rect fill="#3333C4" height="30.2969" rx="2.5" ry="2.5" style="stroke:#181818;stroke-width:0.5;" width="117" x="337" y="25.1328"/><text fill="#FFFFFF" font-family="sans-serif" font-size="14" lengthAdjust="spacing" textLength="103" x="344" y="45.1279">:StmtManager</text><rect fill="#3333C4" height="30.2969" rx="2.5" ry="2.5" style="stroke:#181818;stroke-width:0.5;" width="132" x="484" y="25.1328"/><text fill="#FFFFFF" font-family="sans-serif" font-size="14" lengthAdjust="spacing" textLength="118" x="491" y="45.1279">:FollowsManager</text><rect fill="#3333C4" height="30.2969" rx="2.5" ry="2.5" style="stroke:#181818;stroke-width:0.5;" width="181" x="646" y="25.1328"/><text fill="#FFFFFF" font-family="sans-serif" font-size="14" lengthAdjust="spacing" textLength="167" x="653" y="45.1279">:AssignPatternManager</text><rect fill="#FFFFFF" height="350.5938" style="stroke:#181818;stroke-width:1.0;" width="10" x="42" y="66.4297"/><rect fill="#FFFFFF" height="29.1328" style="stroke:#181818;stroke-width:1.0;" width="10" x="246" y="87.5625"/><rect fill="#FFFFFF" height="29.1328" style="stroke:#181818;stroke-width:1.0;" width="10" x="246" y="204.0938"/><rect fill="#FFFFFF" height="29.1328" style="stroke:#181818;stroke-width:1.0;" width="10" x="246" y="320.625"/><rect fill="#FFFFFF" height="29.1328" style="stroke:#181818;stroke-width:1.0;" width="10" x="390.5" y="145.8281"/><rect fill="#FFFFFF" height="29.1328" style="stroke:#181818;stroke-width:1.0;" width="10" x="545" y="262.3594"/><rect fill="#FFFFFF" height="29.1328" style="stroke:#181818;stroke-width:1.0;" width="10" x="731.5" y="378.8906"/><polygon fill="#181818" points="234,83.5625,244,87.5625,234,91.5625,238,87.5625" style="stroke:#181818;stroke-width:1.0;"/><line style="stroke:#181818;stroke-width:1.0;" x1="52" x2="240" y1="87.5625" y2="87.5625"/><text fill="#000000" font-family="sans-serif" font-size="13" lengthAdjust="spacing" textLength="117" x="90.5" y="82.4966">getStmtManager()</text><polygon fill="#181818" points="63,112.6953,53,116.6953,63,120.6953,59,116.6953" style="stroke:#181818;stroke-width:1.0;"/><line style="stroke:#181818;stroke-width:1.0;stroke-dasharray:2.0,2.0;" x1="57" x2="250" y1="116.6953" y2="116.6953"/><text fill="#000000" font-family="sans-serif" font-size="13" lengthAdjust="spacing" textLength="85" x="109" y="111.6294">stmtManager</text><polygon fill="#181818" points="378.5,141.8281,388.5,145.8281,378.5,149.8281,382.5,145.8281" style="stroke:#181818;stroke-width:1.0;"/><line style="stroke:#181818;stroke-width:1.0;" x1="52" x2="384.5" y1="145.8281" y2="145.8281"/><text fill="#000000" font-family="sans-serif" font-size="13" lengthAdjust="spacing" textLength="137" x="152.75" y="140.7622">getAllEntitiesEntries()</text><polygon fill="#181818" points="63,170.9609,53,174.9609,63,178.9609,59,174.9609" style="stroke:#181818;stroke-width:1.0;"/><line style="stroke:#181818;stroke-width:1.0;stroke-dasharray:2.0,2.0;" x1="57" x2="394.5" y1="174.9609" y2="174.9609"/><text fill="#000000" font-family="sans-serif" font-size="13" lengthAdjust="spacing" textLength="174" x="136.75" y="169.895">unordered_set&lt;int&gt;: result</text><polygon fill="#181818" points="234,200.0938,244,204.0938,234,208.0938,238,204.0938" style="stroke:#181818;stroke-width:1.0;"/><line style="stroke:#181818;stroke-width:1.0;" x1="52" x2="240" y1="204.0938" y2="204.0938"/><text fill="#000000" font-family="sans-serif" font-size="13" lengthAdjust="spacing" textLength="133" x="82.5" y="199.0278">getFollowsManager()</text><polygon fill="#181818" points="63,229.2266,53,233.2266,63,237.2266,59,233.2266" style="stroke:#181818;stroke-width:1.0;"/><line style="stroke:#181818;stroke-width:1.0;stroke-dasharray:2.0,2.0;" x1="57" x2="250" y1="233.2266" y2="233.2266"/><text fill="#000000" font-family="sans-serif" font-size="13" lengthAdjust="spacing" textLength="100" x="101.5" y="228.1606">followsManager</text><polygon fill="#181818" points="533,258.3594,543,262.3594,533,266.3594,537,262.3594" style="stroke:#181818;stroke-width:1.0;"/><line style="stroke:#181818;stroke-width:1.0;" x1="52" x2="539" y1="262.3594" y2="262.3594"/><text fill="#000000" font-family="sans-serif" font-size="13" lengthAdjust="spacing" textLength="168" x="214.5" y="257.2935">getAllRelationshipEntries()</text><polygon fill="#181818" points="63,287.4922,53,291.4922,63,295.4922,59,291.4922" style="stroke:#181818;stroke-width:1.0;"/><line style="stroke:#181818;stroke-width:1.0;stroke-dasharray:2.0,2.0;" x1="57" x2="549" y1="291.4922" y2="291.4922"/><text fill="#000000" font-family="sans-serif" font-size="13" lengthAdjust="spacing" textLength="320" x="141" y="286.4263">unordered_map&lt;int, unordered_set&lt;int&gt;&gt;: result</text><polygon fill="#181818" points="234,316.625,244,320.625,234,324.625,238,320.625" style="stroke:#181818;stroke-width:1.0;"/><line style="stroke:#181818;stroke-width:1.0;" x1="52" x2="240" y1="320.625" y2="320.625"/><text fill="#000000" font-family="sans-serif" font-size="13" lengthAdjust="spacing" textLength="175" x="61.5" y="315.5591">getAssignPatternManager()</text><polygon fill="#181818" points="63,345.7578,53,349.7578,63,353.7578,59,349.7578" style="stroke:#181818;stroke-width:1.0;"/><line style="stroke:#181818;stroke-width:1.0;stroke-dasharray:2.0,2.0;" x1="57" x2="250" y1="349.7578" y2="349.7578"/><text fill="#000000" font-family="sans-serif" font-size="13" lengthAdjust="spacing" textLength="143" x="80" y="344.6919">assignPatternManager</text><polygon fill="#181818" points="719.5,374.8906,729.5,378.8906,719.5,382.8906,723.5,378.8906" style="stroke:#181818;stroke-width:1.0;"/><line style="stroke:#181818;stroke-width:1.0;" x1="52" x2="725.5" y1="378.8906" y2="378.8906"/><text fill="#000000" font-family="sans-serif" font-size="13" lengthAdjust="spacing" textLength="137" x="323.25" y="373.8247">getAllPatternEntries()</text><polygon fill="#181818" points="63,404.0234,53,408.0234,63,412.0234,59,408.0234" style="stroke:#181818;stroke-width:1.0;"/><line style="stroke:#181818;stroke-width:1.0;stroke-dasharray:2.0,2.0;" x1="57" x2="735.5" y1="408.0234" y2="408.0234"/><text fill="#000000" font-family="sans-serif" font-size="13" lengthAdjust="spacing" textLength="207" x="290.75" y="402.9575">unordered_map&lt;int, int&gt;: result</text><!--SRC=[bLJ1Rjf04BtxApRXq4Hgf7KCna4HaZ4GHGs5Og8Ueuqzm2fcJUsbIHfLoeUqFvSlwTXWMAThakp5yhoPDs_UZdqGmfGB8DUNDzxmQZWcDRFhd55g7Bm2RYOcgJbMhscVQR1JKhFwNjFiQ30BEMtRqNBMIOtswYPYM_1gU77f5M8iF5vTX-LwFCTp-guUHacsQxjTJm_dgaoxG_Km2ZEfIHrx9smmxFQk2c5dNKhDKnsM2-kVDKt7rCCe34VkMxOUHc7D3gMqfuTHM0FzekvEc3yPZjsBNY7DjHnBCRk4hiNrUrQpNfMGoUjwZTDA1XJeKDkkRe4CZNgzhbxgjTyR5_feVWmZlUDYoHAs81qMtCsIU2L2BuxY95EO7pN7dxCmlkTYHgOiIa65l8YbANao29v-B6I998zsuYI4P3BdmPq0p3MLQ3dxKmRu4XA8vUCIjdJdvo1M2qYOvB5ejz-HpmL6foo0TsHlzwaILuR9eb_P0eYRS1OPlrKht41YzjD_u-typo5jS1-l3pzM80BOK0_GH3O3D-8pGGB89jsqVCXOVFuBYDaeGYCMXjd5KJNdOtEDM29vm9TCoAgBNfCKlN1zImG3Bl8r-Sv3EISDgkSkgaswP_DsI1UcR1N92Jp8t8e5Eb7OiSjQudQZMRvyZ82C8P1Cp29Su3aFWKpZMDx63-kN1Ink8KdNBm5F0an3a8o-TCZH92RVHlwniLIiECJ88M5fXgZ_hrBIo_EVrXXOwEDge8wNvxzPXHBPM-dBXHmmWMb9tabvhwmxRFNZA8hlKxMm7DhRqqrJT7F491efDWKRsJgen6M024dcA0ia_yaaPDuOHcRGILkTkaLc89LfZevt9KgQeHfrWXJ8r2Bfhiu8GLjNj5HQv2tTAEe9oIM759y9Fh2pMp0esOPgzRRpIkIVDOGtASZi9zDkaGHIN4DLY4fJDNlvGZuq_hHK-fO3vKQ52ME8yfzfEkTBZH7b8kFLzcZiMB1bPiTdZKDQYrurg799jt0Vyeff2DvoJDUqy6qJrLYcgpAq7ym- -wfMIaVq3m00]--></g></svg>