<?xml version="1.0" encoding="us-ascii" standalone="no"?><svg xmlns="http://www.w3.org/2000/svg" xmlns:xlink="http://www.w3.org/1999/xlink" contentStyleType="text/css" height="1388px" preserveAspectRatio="none" style="width:2218px;height:1388px;background:#FFFFFF;" version="1.1" viewBox="0 0 2218 1388" width="2218px" zoomAndPan="magnify"><defs/><g><rect fill="#DDDDDD" height="1369.9219" style="stroke:#181818;stroke-width:0.5;" width="2131" x="1" y="6"/><text fill="#FFFFFF" font-family="sans-serif" font-size="13" font-weight="bold" lengthAdjust="spacing" textLength="30" x="1051.5" y="18.0669">QPS</text><rect fill="#FFFFFF" height="1306.4922" style="stroke:#181818;stroke-width:1.0;" width="10" x="102.5" y="66.4297"/><rect fill="#FFFFFF" height="1261.2266" style="stroke:#181818;stroke-width:1.0;" width="10" x="444.5" y="102.6953"/><rect fill="#FFFFFF" height="31.2969" style="stroke:#181818;stroke-width:1.0;" width="10" x="743" y="141.8281"/><rect fill="#FFFFFF" height="29.1328" style="stroke:#181818;stroke-width:1.0;" width="10" x="743" y="202.2578"/><rect fill="#FFFFFF" height="31.2969" style="stroke:#181818;stroke-width:1.0;" width="10" x="892.5" y="270.5234"/><rect fill="#FFFFFF" height="201.125" style="stroke:#181818;stroke-width:1.0;" width="10" x="892.5" y="330.9531"/><rect fill="#FFFFFF" height="132.8594" style="stroke:#181818;stroke-width:1.0;" width="10" x="1012.5" y="370.0859"/><rect fill="#FFFFFF" height="31.2969" style="stroke:#181818;stroke-width:1.0;" width="10" x="1137.5" y="571.2109"/><rect fill="#FFFFFF" height="14" style="stroke:#181818;stroke-width:1.0;" width="10" x="1137.5" y="631.6406"/><rect fill="#FFFFFF" height="101.7266" style="stroke:#181818;stroke-width:1.0;" width="10" x="1294.5" y="684.7734"/><rect fill="#FFFFFF" height="460.8906" style="stroke:#181818;stroke-width:1.0;" width="10" x="1294.5" y="815.6328"/><rect fill="#FFFFFF" height="68.1328" style="stroke:#181818;stroke-width:1.0;" width="10" x="1299.5" y="1172.2578"/><rect fill="#FFFFFF" height="31.2969" style="stroke:#181818;stroke-width:1.0;" width="10" x="1550.5" y="726.0703"/><rect fill="#FFFFFF" height="14" style="stroke:#181818;stroke-width:1.0;" width="10" x="1550.5" y="1114.125"/><rect fill="#FFFFFF" height="14" style="stroke:#181818;stroke-width:1.0;" width="10" x="1550.5" y="1206.3906"/><rect fill="#FFFFFF" height="29.1328" style="stroke:#181818;stroke-width:1.0;" width="10" x="1550.5" y="1305.6563"/><rect fill="#FFFFFF" height="31.2969" style="stroke:#181818;stroke-width:1.0;" width="10" x="1654" y="435.5156"/><rect fill="#FFFFFF" height="99.5625" style="stroke:#181818;stroke-width:1.0;" width="10" x="1654" y="868.8984"/><rect fill="#FFFFFF" height="31.2969" style="stroke:#181818;stroke-width:1.0;" width="10" x="1873" y="908.0313"/><rect fill="#FFFFFF" height="87.3984" style="stroke:#181818;stroke-width:1.0;" width="10" x="1873" y="997.5938"/><rect fill="#FFFFFF" height="29.1328" style="stroke:#181818;stroke-width:1.0;" width="10" x="2041" y="1026.7266"/><rect fill="none" height="87.5625" style="stroke:#000000;stroke-width:1.5;" width="746" x="965.5" y="387.25"/><rect fill="none" height="305.4922" style="stroke:#000000;stroke-width:1.5;" width="922.5" x="1215.5" y="830.6328"/><line style="stroke:#181818;stroke-width:0.5;stroke-dasharray:5.0,5.0;" x1="107" x2="107" y1="56.4297" y2="1381.9219"/><line style="stroke:#181818;stroke-width:0.5;stroke-dasharray:5.0,5.0;" x1="449.5" x2="449.5" y1="56.4297" y2="1381.9219"/><line style="stroke:#181818;stroke-width:0.5;stroke-dasharray:5.0,5.0;" x1="747.5" x2="747.5" y1="141.3438" y2="1381.9219"/><line style="stroke:#181818;stroke-width:0.5;stroke-dasharray:5.0,5.0;" x1="897.5" x2="897.5" y1="270.0391" y2="1381.9219"/><line style="stroke:#181818;stroke-width:0.5;stroke-dasharray:5.0,5.0;" x1="1017.5" x2="1017.5" y1="369.6016" y2="1381.9219"/><line style="stroke:#181818;stroke-width:0.5;stroke-dasharray:5.0,5.0;" x1="1142.5" x2="1142.5" y1="570.7266" y2="1381.9219"/><line style="stroke:#181818;stroke-width:0.5;stroke-dasharray:5.0,5.0;" x1="1299.5" x2="1299.5" y1="684.2891" y2="1381.9219"/><line style="stroke:#181818;stroke-width:0.5;stroke-dasharray:5.0,5.0;" x1="1555.5" x2="1555.5" y1="725.5859" y2="1381.9219"/><line style="stroke:#181818;stroke-width:0.5;stroke-dasharray:5.0,5.0;" x1="1658.5" x2="1658.5" y1="435.0313" y2="1381.9219"/><line style="stroke:#181818;stroke-width:0.5;stroke-dasharray:5.0,5.0;" x1="1878" x2="1878" y1="907.5469" y2="1381.9219"/><line style="stroke:#181818;stroke-width:0.5;stroke-dasharray:5.0,5.0;" x1="2046" x2="2046" y1="56.4297" y2="1381.9219"/><line style="stroke:#181818;stroke-width:0.5;stroke-dasharray:5.0,5.0;" x1="2180" x2="2180" y1="56.4297" y2="1381.9219"/><rect fill="#3333C4" height="30.2969" rx="2.5" ry="2.5" style="stroke:#181818;stroke-width:0.5;" width="185" x="15" y="25.1328"/><text fill="#FFFFFF" font-family="sans-serif" font-size="14" lengthAdjust="spacing" textLength="171" x="22" y="45.1279">:StaticProgramAnalyzer</text><rect fill="#3333C4" height="30.2969" rx="2.5" ry="2.5" style="stroke:#181818;stroke-width:0.5;" width="122" x="388.5" y="25.1328"/><text fill="#FFFFFF" font-family="sans-serif" font-size="14" lengthAdjust="spacing" textLength="108" x="395.5" y="45.1279">:QueryManager</text><rect fill="#3333C4" height="30.2969" rx="2.5" ry="2.5" style="stroke:#181818;stroke-width:0.5;" width="144" x="1974" y="25.1328"/><text fill="#FFFFFF" font-family="sans-serif" font-size="14" lengthAdjust="spacing" textLength="130" x="1981" y="45.1279">:ReadOnlyStorage</text><rect fill="#E2E2F0" height="30.2969" rx="2.5" ry="2.5" style="stroke:#181818;stroke-width:0.5;" width="64" x="2148" y="25.1328"/><text fill="#FFFFFF" font-family="sans-serif" font-size="14" lengthAdjust="spacing" textLength="13" x="2173.5" y="45.1279">UI</text><rect fill="#FFFFFF" height="1306.4922" style="stroke:#181818;stroke-width:1.0;" width="10" x="102.5" y="66.4297"/><rect fill="#FFFFFF" height="1261.2266" style="stroke:#181818;stroke-width:1.0;" width="10" x="444.5" y="102.6953"/><rect fill="#FFFFFF" height="31.2969" style="stroke:#181818;stroke-width:1.0;" width="10" x="743" y="141.8281"/><rect fill="#FFFFFF" height="29.1328" style="stroke:#181818;stroke-width:1.0;" width="10" x="743" y="202.2578"/><rect fill="#FFFFFF" height="31.2969" style="stroke:#181818;stroke-width:1.0;" width="10" x="892.5" y="270.5234"/><rect fill="#FFFFFF" height="201.125" style="stroke:#181818;stroke-width:1.0;" width="10" x="892.5" y="330.9531"/><rect fill="#FFFFFF" height="132.8594" style="stroke:#181818;stroke-width:1.0;" width="10" x="1012.5" y="370.0859"/><rect fill="#FFFFFF" height="31.2969" style="stroke:#181818;stroke-width:1.0;" width="10" x="1137.5" y="571.2109"/><rect fill="#FFFFFF" height="14" style="stroke:#181818;stroke-width:1.0;" width="10" x="1137.5" y="631.6406"/><rect fill="#FFFFFF" height="101.7266" style="stroke:#181818;stroke-width:1.0;" width="10" x="1294.5" y="684.7734"/><rect fill="#FFFFFF" height="460.8906" style="stroke:#181818;stroke-width:1.0;" width="10" x="1294.5" y="815.6328"/><rect fill="#FFFFFF" height="68.1328" style="stroke:#181818;stroke-width:1.0;" width="10" x="1299.5" y="1172.2578"/><rect fill="#FFFFFF" height="31.2969" style="stroke:#181818;stroke-width:1.0;" width="10" x="1550.5" y="726.0703"/><rect fill="#FFFFFF" height="14" style="stroke:#181818;stroke-width:1.0;" width="10" x="1550.5" y="1114.125"/><rect fill="#FFFFFF" height="14" style="stroke:#181818;stroke-width:1.0;" width="10" x="1550.5" y="1206.3906"/><rect fill="#FFFFFF" height="29.1328" style="stroke:#181818;stroke-width:1.0;" width="10" x="1550.5" y="1305.6563"/><rect fill="#FFFFFF" height="31.2969" style="stroke:#181818;stroke-width:1.0;" width="10" x="1654" y="435.5156"/><rect fill="#FFFFFF" height="99.5625" style="stroke:#181818;stroke-width:1.0;" width="10" x="1654" y="868.8984"/><rect fill="#FFFFFF" height="31.2969" style="stroke:#181818;stroke-width:1.0;" width="10" x="1873" y="908.0313"/><rect fill="#FFFFFF" height="87.3984" style="stroke:#181818;stroke-width:1.0;" width="10" x="1873" y="997.5938"/><rect fill="#FFFFFF" height="29.1328" style="stroke:#181818;stroke-width:1.0;" width="10" x="2041" y="1026.7266"/><polygon fill="#181818" points="432.5,98.6953,442.5,102.6953,432.5,106.6953,436.5,102.6953" style="stroke:#181818;stroke-width:1.0;"/><line style="stroke:#181818;stroke-width:1.0;" x1="112.5" x2="438.5" y1="102.6953" y2="102.6953"/><text fill="#000000" font-family="sans-serif" font-size="13" lengthAdjust="spacing" textLength="141" x="206" y="82.4966">process(string: query,</text><text fill="#000000" font-family="sans-serif" font-size="13" lengthAdjust="spacing" textLength="309" x="126" y="97.6294">list&lt;string&gt;: results, ReadOnlyStorage: storage)</text><polygon fill="#181818" points="669.5,127.8281,679.5,131.8281,669.5,135.8281,673.5,131.8281" style="stroke:#181818;stroke-width:1.0;"/><line style="stroke:#181818;stroke-width:1.0;" x1="454.5" x2="675.5" y1="131.8281" y2="131.8281"/><text fill="#000000" font-family="sans-serif" font-size="13" lengthAdjust="spacing" textLength="193" x="471.5" y="126.7622">QueryTokenizer(string: query)</text><rect fill="#3333C4" height="30.2969" rx="2.5" ry="2.5" style="stroke:#181818;stroke-width:0.5;" width="133" x="681.5" y="110.6953"/><text fill="#FFFFFF" font-family="sans-serif" font-size="14" lengthAdjust="spacing" textLength="119" x="688.5" y="130.6904">:QueryTokenizer</text><polygon fill="#181818" points="465.5,169.125,455.5,173.125,465.5,177.125,461.5,173.125" style="stroke:#181818;stroke-width:1.0;"/><line style="stroke:#181818;stroke-width:1.0;stroke-dasharray:2.0,2.0;" x1="459.5" x2="747" y1="173.125" y2="173.125"/><text fill="#000000" font-family="sans-serif" font-size="13" lengthAdjust="spacing" textLength="101" x="550.75" y="168.0591">QueryTokenizer</text><polygon fill="#181818" points="731,198.2578,741,202.2578,731,206.2578,735,202.2578" style="stroke:#181818;stroke-width:1.0;"/><line style="stroke:#181818;stroke-width:1.0;" x1="454.5" x2="737" y1="202.2578" y2="202.2578"/><text fill="#000000" font-family="sans-serif" font-size="13" lengthAdjust="spacing" textLength="64" x="566.75" y="197.1919">tokenize()</text><polygon fill="#181818" points="465.5,227.3906,455.5,231.3906,465.5,235.3906,461.5,231.3906" style="stroke:#181818;stroke-width:1.0;"/><line style="stroke:#181818;stroke-width:1.0;stroke-dasharray:2.0,2.0;" x1="459.5" x2="747" y1="231.3906" y2="231.3906"/><text fill="#000000" font-family="sans-serif" font-size="13" lengthAdjust="spacing" textLength="84" x="559.25" y="226.3247">list&lt;Tokens&gt;</text><polygon fill="#181818" points="832.5,256.5234,842.5,260.5234,832.5,264.5234,836.5,260.5234" style="stroke:#181818;stroke-width:1.0;"/><line style="stroke:#181818;stroke-width:1.0;" x1="454.5" x2="838.5" y1="260.5234" y2="260.5234"/><text fill="#000000" font-family="sans-serif" font-size="13" lengthAdjust="spacing" textLength="220" x="539.5" y="255.4575">QueryParser(list&lt;Tokens&gt;: query)</text><rect fill="#3333C4" height="30.2969" rx="2.5" ry="2.5" style="stroke:#181818;stroke-width:0.5;" width="106" x="844.5" y="239.3906"/><text fill="#FFFFFF" font-family="sans-serif" font-size="14" lengthAdjust="spacing" textLength="92" x="851.5" y="259.3857">:QueryParser</text><polygon fill="#181818" points="465.5,297.8203,455.5,301.8203,465.5,305.8203,461.5,301.8203" style="stroke:#181818;stroke-width:1.0;"/><line style="stroke:#181818;stroke-width:1.0;stroke-dasharray:2.0,2.0;" x1="459.5" x2="896.5" y1="301.8203" y2="301.8203"/><text fill="#000000" font-family="sans-serif" font-size="13" lengthAdjust="spacing" textLength="80" x="636" y="296.7544">QueryParser</text><polygon fill="#181818" points="880.5,326.9531,890.5,330.9531,880.5,334.9531,884.5,330.9531" style="stroke:#181818;stroke-width:1.0;"/><line style="stroke:#181818;stroke-width:1.0;" x1="454.5" x2="886.5" y1="330.9531" y2="330.9531"/><text fill="#000000" font-family="sans-serif" font-size="13" lengthAdjust="spacing" textLength="46" x="650.5" y="325.8872">parse()</text><polygon fill="#181818" points="973.5,356.0859,983.5,360.0859,973.5,364.0859,977.5,360.0859" style="stroke:#181818;stroke-width:1.0;"/><line style="stroke:#181818;stroke-width:1.0;" x1="902.5" x2="979.5" y1="360.0859" y2="360.0859"/><text fill="#000000" font-family="sans-serif" font-size="13" lengthAdjust="spacing" textLength="49" x="919.5" y="355.02">Query()</text><rect fill="#3333C4" height="30.2969" rx="2.5" ry="2.5" style="stroke:#181818;stroke-width:0.5;" width="64" x="985.5" y="338.9531"/><text fill="#FFFFFF" font-family="sans-serif" font-size="14" lengthAdjust="spacing" textLength="47" x="994" y="358.9482">:Query</text><path d="M965.5,387.25 L1043.5,387.25 L1043.5,394.3828 L1033.5,404.3828 L965.5,404.3828 L965.5,387.25 " fill="#EEEEEE" style="stroke:#000000;stroke-width:1.5;"/><rect fill="none" height="87.5625" style="stroke:#000000;stroke-width:1.5;" width="746" x="965.5" y="387.25"/><text fill="#000000" font-family="sans-serif" font-size="13" font-weight="bold" lengthAdjust="spacing" textLength="33" x="980.5" y="400.3169">loop</text><text fill="#000000" font-family="sans-serif" font-size="11" font-weight="bold" lengthAdjust="spacing" textLength="162" x="1058.5" y="399.4604">[For each parsed clause]</text><polygon fill="#181818" points="1614.5,421.5156,1624.5,425.5156,1614.5,429.5156,1618.5,425.5156" style="stroke:#181818;stroke-width:1.0;"/><line style="stroke:#181818;stroke-width:1.0;" x1="1022.5" x2="1620.5" y1="425.5156" y2="425.5156"/><text fill="#000000" font-family="sans-serif" font-size="13" lengthAdjust="spacing" textLength="53" x="1298" y="420.4497">Clause()</text><rect fill="#3333C4" height="30.2969" rx="2.5" ry="2.5" style="stroke:#181818;stroke-width:0.5;" width="65" x="1626.5" y="404.3828"/><text fill="#FFFFFF" font-family="sans-serif" font-size="14" lengthAdjust="spacing" textLength="51" x="1633.5" y="424.3779">:Clause</text><polygon fill="#181818" points="1033.5,462.8125,1023.5,466.8125,1033.5,470.8125,1029.5,466.8125" style="stroke:#181818;stroke-width:1.0;"/><line style="stroke:#181818;stroke-width:1.0;stroke-dasharray:2.0,2.0;" x1="1027.5" x2="1658" y1="466.8125" y2="466.8125"/><text fill="#000000" font-family="sans-serif" font-size="13" lengthAdjust="spacing" textLength="41" x="1320.25" y="461.7466">clause</text><polygon fill="#181818" points="913.5,498.9453,903.5,502.9453,913.5,506.9453,909.5,502.9453" style="stroke:#181818;stroke-width:1.0;"/><line style="stroke:#181818;stroke-width:1.0;stroke-dasharray:2.0,2.0;" x1="907.5" x2="1016.5" y1="502.9453" y2="502.9453"/><text fill="#000000" font-family="sans-serif" font-size="13" lengthAdjust="spacing" textLength="39" x="940.5" y="497.8794">Query</text><polygon fill="#181818" points="465.5,528.0781,455.5,532.0781,465.5,536.0781,461.5,532.0781" style="stroke:#181818;stroke-width:1.0;"/><line style="stroke:#181818;stroke-width:1.0;stroke-dasharray:2.0,2.0;" x1="459.5" x2="896.5" y1="532.0781" y2="532.0781"/><text fill="#000000" font-family="sans-serif" font-size="13" lengthAdjust="spacing" textLength="39" x="656.5" y="527.0122">Query</text><polygon fill="#181818" points="1067.5,557.2109,1077.5,561.2109,1067.5,565.2109,1071.5,561.2109" style="stroke:#181818;stroke-width:1.0;"/><line style="stroke:#181818;stroke-width:1.0;" x1="454.5" x2="1073.5" y1="561.2109" y2="561.2109"/><text fill="#000000" font-family="sans-serif" font-size="13" lengthAdjust="spacing" textLength="145" x="694.5" y="556.145">QueryValidator(Query)</text><rect fill="#3333C4" height="30.2969" rx="2.5" ry="2.5" style="stroke:#181818;stroke-width:0.5;" width="126" x="1079.5" y="540.0781"/><text fill="#FFFFFF" font-family="sans-serif" font-size="14" lengthAdjust="spacing" textLength="112" x="1086.5" y="560.0732">:QueryValidator</text><polygon fill="#181818" points="465.5,598.5078,455.5,602.5078,465.5,606.5078,461.5,602.5078" style="stroke:#181818;stroke-width:1.0;"/><line style="stroke:#181818;stroke-width:1.0;stroke-dasharray:2.0,2.0;" x1="459.5" x2="1141.5" y1="602.5078" y2="602.5078"/><text fill="#000000" font-family="sans-serif" font-size="13" lengthAdjust="spacing" textLength="96" x="750.5" y="597.4419">QueryValidator</text><polygon fill="#181818" points="1125.5,627.6406,1135.5,631.6406,1125.5,635.6406,1129.5,631.6406" style="stroke:#181818;stroke-width:1.0;"/><line style="stroke:#181818;stroke-width:1.0;" x1="454.5" x2="1131.5" y1="631.6406" y2="631.6406"/><text fill="#000000" font-family="sans-serif" font-size="13" lengthAdjust="spacing" textLength="100" x="746" y="626.5747">validateQuery()</text><polygon fill="#181818" points="465.5,641.6406,455.5,645.6406,465.5,649.6406,461.5,645.6406" style="stroke:#181818;stroke-width:1.0;"/><line style="stroke:#181818;stroke-width:1.0;stroke-dasharray:2.0,2.0;" x1="459.5" x2="1141.5" y1="645.6406" y2="645.6406"/><polygon fill="#181818" points="1223.5,670.7734,1233.5,674.7734,1223.5,678.7734,1227.5,674.7734" style="stroke:#181818;stroke-width:1.0;"/><line style="stroke:#181818;stroke-width:1.0;" x1="454.5" x2="1229.5" y1="674.7734" y2="674.7734"/><text fill="#000000" font-family="sans-serif" font-size="13" lengthAdjust="spacing" textLength="373" x="658.5" y="669.7075">QueryEvaluator(Query: query, ReadOnlyStorage: storage)</text><rect fill="#3333C4" height="30.2969" rx="2.5" ry="2.5" style="stroke:#181818;stroke-width:0.5;" width="128" x="1235.5" y="653.6406"/><text fill="#FFFFFF" font-family="sans-serif" font-size="14" lengthAdjust="spacing" textLength="114" x="1242.5" y="673.6357">:QueryEvaluator</text><polygon fill="#181818" points="1502.5,712.0703,1512.5,716.0703,1502.5,720.0703,1506.5,716.0703" style="stroke:#181818;stroke-width:1.0;"/><line style="stroke:#181818;stroke-width:1.0;" x1="1304.5" x2="1508.5" y1="716.0703" y2="716.0703"/><text fill="#000000" font-family="sans-serif" font-size="13" lengthAdjust="spacing" textLength="67" x="1376" y="711.0044">QueryDb()</text><rect fill="#3333C4" height="30.2969" rx="2.5" ry="2.5" style="stroke:#181818;stroke-width:0.5;" width="82" x="1514.5" y="694.9375"/><text fill="#FFFFFF" font-family="sans-serif" font-size="14" lengthAdjust="spacing" textLength="68" x="1521.5" y="714.9326">:QueryDb</text><polygon fill="#181818" points="1315.5,753.3672,1305.5,757.3672,1315.5,761.3672,1311.5,757.3672" style="stroke:#181818;stroke-width:1.0;"/><line style="stroke:#181818;stroke-width:1.0;stroke-dasharray:2.0,2.0;" x1="1309.5" x2="1554.5" y1="757.3672" y2="757.3672"/><text fill="#000000" font-family="sans-serif" font-size="13" lengthAdjust="spacing" textLength="55" x="1402.5" y="752.3013">queryDb</text><polygon fill="#181818" points="465.5,782.5,455.5,786.5,465.5,790.5,461.5,786.5" style="stroke:#181818;stroke-width:1.0;"/><line style="stroke:#181818;stroke-width:1.0;stroke-dasharray:2.0,2.0;" x1="459.5" x2="1298.5" y1="786.5" y2="786.5"/><text fill="#000000" font-family="sans-serif" font-size="13" lengthAdjust="spacing" textLength="61" x="846.5" y="781.4341">evaluator</text><polygon fill="#181818" points="1282.5,811.6328,1292.5,815.6328,1282.5,819.6328,1286.5,815.6328" style="stroke:#181818;stroke-width:1.0;"/><line style="stroke:#181818;stroke-width:1.0;" x1="454.5" x2="1288.5" y1="815.6328" y2="815.6328"/><text fill="#000000" font-family="sans-serif" font-size="13" lengthAdjust="spacing" textLength="66" x="841.5" y="810.5669">evaluate()</text><path d="M1215.5,830.6328 L1293.5,830.6328 L1293.5,837.7656 L1283.5,847.7656 L1215.5,847.7656 L1215.5,830.6328 " fill="#EEEEEE" style="stroke:#000000;stroke-width:1.5;"/><rect fill="none" height="305.4922" style="stroke:#000000;stroke-width:1.5;" width="922.5" x="1215.5" y="830.6328"/><text fill="#000000" font-family="sans-serif" font-size="13" font-weight="bold" lengthAdjust="spacing" textLength="33" x="1230.5" y="843.6997">loop</text><text fill="#000000" font-family="sans-serif" font-size="11" font-weight="bold" lengthAdjust="spacing" textLength="113" x="1308.5" y="842.8433">[For each clause]</text><polygon fill="#181818" points="1642,864.8984,1652,868.8984,1642,872.8984,1646,868.8984" style="stroke:#181818;stroke-width:1.0;"/><line style="stroke:#181818;stroke-width:1.0;" x1="1304.5" x2="1648" y1="868.8984" y2="868.8984"/><text fill="#000000" font-family="sans-serif" font-size="13" lengthAdjust="spacing" textLength="135" x="1411.75" y="863.8325">getClauseEvaluator()</text><polygon fill="#181818" points="1800,894.0313,1810,898.0313,1800,902.0313,1804,898.0313" style="stroke:#181818;stroke-width:1.0;"/><line style="stroke:#181818;stroke-width:1.0;" x1="1664" x2="1806" y1="898.0313" y2="898.0313"/><text fill="#000000" font-family="sans-serif" font-size="13" lengthAdjust="spacing" textLength="114" x="1681" y="892.9653">ClauseEvaluator()</text><rect fill="#3333C4" height="30.2969" rx="2.5" ry="2.5" style="stroke:#181818;stroke-width:0.5;" width="132" x="1812" y="876.8984"/><text fill="#FFFFFF" font-family="sans-serif" font-size="14" lengthAdjust="spacing" textLength="118" x="1819" y="896.8936">:ClauseEvaluator</text><polygon fill="#181818" points="1675,935.3281,1665,939.3281,1675,943.3281,1671,939.3281" style="stroke:#181818;stroke-width:1.0;"/><line style="stroke:#181818;stroke-width:1.0;stroke-dasharray:2.0,2.0;" x1="1669" x2="1877" y1="939.3281" y2="939.3281"/><text fill="#000000" font-family="sans-serif" font-size="13" lengthAdjust="spacing" textLength="61" x="1740.5" y="934.2622">evaluator</text><polygon fill="#181818" points="1315.5,964.4609,1305.5,968.4609,1315.5,972.4609,1311.5,968.4609" style="stroke:#181818;stroke-width:1.0;"/><line style="stroke:#181818;stroke-width:1.0;stroke-dasharray:2.0,2.0;" x1="1309.5" x2="1658" y1="968.4609" y2="968.4609"/><text fill="#000000" font-family="sans-serif" font-size="13" lengthAdjust="spacing" textLength="61" x="1451.25" y="963.395">evaluator</text><polygon fill="#181818" points="1861,993.5938,1871,997.5938,1861,1001.5938,1865,997.5938" style="stroke:#181818;stroke-width:1.0;"/><line style="stroke:#181818;stroke-width:1.0;" x1="1304.5" x2="1867" y1="997.5938" y2="997.5938"/><text fill="#000000" font-family="sans-serif" font-size="13" lengthAdjust="spacing" textLength="109" x="1534.25" y="992.5278">evaluateClause()</text><polygon fill="#181818" points="2029,1022.7266,2039,1026.7266,2029,1030.7266,2033,1026.7266" style="stroke:#181818;stroke-width:1.0;"/><line style="stroke:#181818;stroke-width:1.0;" x1="1883" x2="2035" y1="1026.7266" y2="1026.7266"/><text fill="#000000" font-family="sans-serif" font-size="13" lengthAdjust="spacing" textLength="91" x="1916.5" y="1021.6606">read from pkb</text><polygon fill="#181818" points="1894,1051.8594,1884,1055.8594,1894,1059.8594,1890,1055.8594" style="stroke:#181818;stroke-width:1.0;"/><line style="stroke:#181818;stroke-width:1.0;stroke-dasharray:2.0,2.0;" x1="1888" x2="2045" y1="1055.8594" y2="1055.8594"/><text fill="#000000" font-family="sans-serif" font-size="13" lengthAdjust="spacing" textLength="70" x="1929.5" y="1050.7935">pkbResults</text><polygon fill="#181818" points="1315.5,1080.9922,1305.5,1084.9922,1315.5,1088.9922,1311.5,1084.9922" style="stroke:#181818;stroke-width:1.0;"/><line style="stroke:#181818;stroke-width:1.0;stroke-dasharray:2.0,2.0;" x1="1309.5" x2="1877" y1="1084.9922" y2="1084.9922"/><text fill="#000000" font-family="sans-serif" font-size="13" lengthAdjust="spacing" textLength="81" x="1550.75" y="1079.9263">clauseResult</text><polygon fill="#181818" points="1538.5,1110.125,1548.5,1114.125,1538.5,1118.125,1542.5,1114.125" style="stroke:#181818;stroke-width:1.0;"/><line style="stroke:#181818;stroke-width:1.0;" x1="1304.5" x2="1544.5" y1="1114.125" y2="1114.125"/><text fill="#000000" font-family="sans-serif" font-size="13" lengthAdjust="spacing" textLength="198" x="1328.5" y="1109.0591">addClauseResult(clauseResult)</text><polygon fill="#181818" points="1315.5,1124.125,1305.5,1128.125,1315.5,1132.125,1311.5,1128.125" style="stroke:#181818;stroke-width:1.0;"/><line style="stroke:#181818;stroke-width:1.0;stroke-dasharray:2.0,2.0;" x1="1309.5" x2="1554.5" y1="1128.125" y2="1128.125"/><line style="stroke:#A80036;stroke-width:2.0;" x1="1869" x2="1887" y1="1119.125" y2="1137.125"/><line style="stroke:#A80036;stroke-width:2.0;" x1="1869" x2="1887" y1="1137.125" y2="1119.125"/><line style="stroke:#181818;stroke-width:1.0;" x1="1304.5" x2="1351.5" y1="1159.2578" y2="1159.2578"/><line style="stroke:#181818;stroke-width:1.0;" x1="1351.5" x2="1351.5" y1="1159.2578" y2="1172.2578"/><line style="stroke:#181818;stroke-width:1.0;" x1="1310.5" x2="1351.5" y1="1172.2578" y2="1172.2578"/><polygon fill="#181818" points="1320.5,1168.2578,1310.5,1172.2578,1320.5,1176.2578,1316.5,1172.2578" style="stroke:#181818;stroke-width:1.0;"/><text fill="#000000" font-family="sans-serif" font-size="13" lengthAdjust="spacing" textLength="148" x="1316.5" y="1154.1919">evaluateSelectClause()</text><polygon fill="#181818" points="1538.5,1202.3906,1548.5,1206.3906,1538.5,1210.3906,1542.5,1206.3906" style="stroke:#181818;stroke-width:1.0;"/><line style="stroke:#181818;stroke-width:1.0;" x1="1309.5" x2="1544.5" y1="1206.3906" y2="1206.3906"/><text fill="#000000" font-family="sans-serif" font-size="13" lengthAdjust="spacing" textLength="222" x="1319" y="1201.3247">setSelectedColumns(selectedCols)</text><polygon fill="#181818" points="1320.5,1216.3906,1310.5,1220.3906,1320.5,1224.3906,1316.5,1220.3906" style="stroke:#181818;stroke-width:1.0;"/><line style="stroke:#181818;stroke-width:1.0;stroke-dasharray:2.0,2.0;" x1="1314.5" x2="1554.5" y1="1220.3906" y2="1220.3906"/><line style="stroke:#181818;stroke-width:1.0;stroke-dasharray:2.0,2.0;" x1="1309.5" x2="1351.5" y1="1239.3906" y2="1239.3906"/><line style="stroke:#181818;stroke-width:1.0;stroke-dasharray:2.0,2.0;" x1="1351.5" x2="1351.5" y1="1239.3906" y2="1252.3906"/><line style="stroke:#181818;stroke-width:1.0;stroke-dasharray:2.0,2.0;" x1="1304.5" x2="1351.5" y1="1252.3906" y2="1252.3906"/><polygon fill="#181818" points="1314.5,1248.3906,1304.5,1252.3906,1314.5,1256.3906,1310.5,1252.3906" style="stroke:#181818;stroke-width:1.0;"/><polygon fill="#181818" points="465.5,1272.5234,455.5,1276.5234,465.5,1280.5234,461.5,1276.5234" style="stroke:#181818;stroke-width:1.0;"/><line style="stroke:#181818;stroke-width:1.0;stroke-dasharray:2.0,2.0;" x1="459.5" x2="1298.5" y1="1276.5234" y2="1276.5234"/><text fill="#000000" font-family="sans-serif" font-size="13" lengthAdjust="spacing" textLength="55" x="849.5" y="1271.4575">queryDb</text><polygon fill="#181818" points="1538.5,1301.6563,1548.5,1305.6563,1538.5,1309.6563,1542.5,1305.6563" style="stroke:#181818;stroke-width:1.0;"/><line style="stroke:#181818;stroke-width:1.0;" x1="454.5" x2="1544.5" y1="1305.6563" y2="1305.6563"/><text fill="#000000" font-family="sans-serif" font-size="13" lengthAdjust="spacing" textLength="143" x="931" y="1300.5903">getInterestedResults()</text><polygon fill="#181818" points="465.5,1330.7891,455.5,1334.7891,465.5,1338.7891,461.5,1334.7891" style="stroke:#181818;stroke-width:1.0;"/><line style="stroke:#181818;stroke-width:1.0;stroke-dasharray:2.0,2.0;" x1="459.5" x2="1554.5" y1="1334.7891" y2="1334.7891"/><text fill="#000000" font-family="sans-serif" font-size="13" lengthAdjust="spacing" textLength="84" x="963" y="1329.7231">queryResults</text><polygon fill="#181818" points="2168,1359.9219,2178,1363.9219,2168,1367.9219,2172,1363.9219" style="stroke:#181818;stroke-width:1.0;"/><line style="stroke:#181818;stroke-width:1.0;stroke-dasharray:2.0,2.0;" x1="449.5" x2="2174" y1="1363.9219" y2="1363.9219"/><text fill="#000000" font-family="sans-serif" font-size="13" lengthAdjust="spacing" textLength="84" x="1272.75" y="1358.856">queryResults</text><line style="stroke:#A80036;stroke-width:2.0;" x1="1008.5" x2="1026.5" y1="1354.9219" y2="1372.9219"/><line style="stroke:#A80036;stroke-width:2.0;" x1="1008.5" x2="1026.5" y1="1372.9219" y2="1354.9219"/><!--SRC=[fLZRRgD847tdAtec3-kLnXB4bpWeikI0FOgKh1EJpBwiD6f3sK71u03EnXdjlqz10zsq6-neUGdKvTIfwge2vui7Apy4ydJpqvhVpXVapB17bxgkVP4KFnyDSZRgJI-6bmhTEJdhpQmBurgXwo7cS3XIOlR9cJxj6wYhbBVpxpTMIQQ7bzLNwN8-riWQpIPgDL8QJeOJsrAhSrR6y5fNgv6OeHlwQCY9tStjwMr9xDBMTUDSfSk9pIulZ96XLYCnJ7dM6whLIEpYMjVrgLgDn0POBtt2YJcFyyNa-xIaDkcDUaAnQrf6RZRjNVIR339wjZKuRqH0WYDzE6mEWGY3Vhyl7kgJCrsK_FJyqhJanG-tDAORSatTbtKSxKBFYe8epXZcbsZZF5Cl-jSFrsH5WmH4bHNG926_D8BNB0hJ6aWklOvY3-B7Pzzz2G5j3K5Qj_uZKpWfn12b-orKS5TN4Eus4DFKZyBn-0HxFqJfYhfmWdNLJurw8PbC-XVT09d4FWsq_yHIJDmKhNyTfCVhdwkKmZPS1rvt4BfGGDzX4UaQ9e6_3eaBMQP5oFSCnV4_W1Y3KdHFFIyxE5sq-LnUzpHEVTVVqZ1jEcW6KiR2zgq1tFbXtYP_-rxwJ0Qw6hlqDlIMpkCQ6rPq5wIFy9xcfTXW9SfoSAijTZSMoqdt0P05k2aDrm4syBFl0Lb5KRgCtjd31ZPBY1FsuFgnYsQe90_tZhOLAl3LT59iHFS-ZjOOOHBIOFy1yLT24wBKYBjDGdhOGRo_eo4oP02Yu9ZVO_G2eVyXUbQYOxvOzaHqPC_7lBZzCSiVDF0zYkF0NIhHCT_f6mrsTTzATCpNNd8dUzbYZVsuIo0tPhT7RUkq95cBzmAeDm-3lODcUAovjoIhUKFeaQmfgPlwRpG5TLDfcbBS7TTRo2JRE79nONIIDCOfCibhflv6_Wb9u2Vf5HEFJH93WjEKV9EvcIHXDtzoHc88JNDZg8HL0ser6YMjIcrAptLwSYYEgabjtfKIbd4r3zgXMXYcnMtd_z39YvmR9ECsCc8HsJ2g-HM3QefF7J58GmaBJ4q4QIXUOIgJhI6eQM6tPNyxJS759EjC2fY2mG60fWLHjCNNJaoGrJCBun4t7qBsKcNG5fUmFON8J6OMVn4xqrRuXGS3OPkWo-a84OHw53uugKKvk4jP24PRhk59zM-il5Y-QfkgpuClMrCIT1vKxS7XDCc_UxXI90-PhepLnksDtOFws4zdrKP2B5kriDNKAhKfFNUAVYYsvwaxaeUhiR2NclHQAmdOIxEyEQW6UcdbYwshOFnQ6CcbgFo4S0UT1nLJsLt8GNJfZkNu1SJX-0i8jxKnvjDLjnE6TWsfzAfb0woQNrVS0JoeCDXZMMcIKz2512gmUZ5BkY16FTWOAXpbKRR3Q8SLKwPM7eYu-3wNsVYmqx767bd54NvQlonhY99fZYX_w7HLF15emRu-f7HLYAhgo-LZVSKmJpY8bbd4doIM0DOHaUlrh4Qj1BINNNb692wY2yhn4oZQAxgNlsOEEN89Fsu70loTKnrw-pIhqaQi15860zb_1NQR43yW-NFokTNqgOqqFNaHjQspfbtOiCngPuuhvoRx5Oa70bxHcASjuthuigSRiw-2e__JpH6lwdExR9HS-Xi0]--></g></svg>