<?xml version="1.0" encoding="us-ascii" standalone="no"?><svg xmlns="http://www.w3.org/2000/svg" xmlns:xlink="http://www.w3.org/1999/xlink" contentStyleType="text/css" height="1057px" preserveAspectRatio="none" style="width:2106px;height:1057px;background:#FFFFFF;" version="1.1" viewBox="0 0 2106 1057" width="2106px" zoomAndPan="magnify"><defs/><g><rect fill="#DDDDDD" height="1038" style="stroke:#181818;stroke-width:0.5;" width="2093" x="1" y="6"/><rect fill="#FFFFFF" height="989.7031" style="stroke:#181818;stroke-width:1.0;" width="10" x="102.5" y="51.2969"/><rect fill="#FFFFFF" height="717.3125" style="stroke:#181818;stroke-width:1.0;" width="10" x="386.5" y="314.6875"/><rect fill="#FFFFFF" height="31.2969" style="stroke:#181818;stroke-width:1.0;" width="10" x="706.5" y="353.8203"/><rect fill="#FFFFFF" height="29.1328" style="stroke:#181818;stroke-width:1.0;" width="10" x="706.5" y="414.25"/><rect fill="#FFFFFF" height="31.2969" style="stroke:#181818;stroke-width:1.0;" width="10" x="863" y="482.5156"/><rect fill="#FFFFFF" height="14" style="stroke:#181818;stroke-width:1.0;" width="10" x="863" y="542.9453"/><rect fill="#FFFFFF" height="29.1328" style="stroke:#181818;stroke-width:1.0;" width="10" x="863" y="586.0781"/><rect fill="#FFFFFF" height="159.9922" style="stroke:#181818;stroke-width:1.0;" width="10" x="1017.5" y="654.3438"/><rect fill="#FFFFFF" height="174.5313" style="stroke:#181818;stroke-width:1.0;" width="10" x="1017.5" y="843.4688"/><rect fill="#FFFFFF" height="31.2969" style="stroke:#181818;stroke-width:1.0;" width="10" x="1379" y="753.9063"/><rect fill="#FFFFFF" height="131.3984" style="stroke:#181818;stroke-width:1.0;" width="10" x="1379" y="872.6016"/><rect fill="#FFFFFF" height="86.5938" style="stroke:#181818;stroke-width:1.0;" width="10" x="1506.5" y="198.9609"/><rect fill="#FFFFFF" height="29.1328" style="stroke:#181818;stroke-width:1.0;" width="10" x="1506.5" y="685.6406"/><rect fill="#FFFFFF" height="16.1641" style="stroke:#181818;stroke-width:1.0;" width="10" x="1853" y="240.2578"/><rect fill="#FFFFFF" height="57.1328" style="stroke:#181818;stroke-width:1.0;" width="10" x="1853" y="925.8672"/><rect fill="#FFFFFF" height="29.1328" style="stroke:#181818;stroke-width:1.0;" width="10" x="2043" y="72.4297"/><rect fill="#FFFFFF" height="29.1328" style="stroke:#181818;stroke-width:1.0;" width="10" x="2043" y="130.6953"/><rect fill="#FFFFFF" height="14" style="stroke:#181818;stroke-width:1.0;" width="10" x="2043" y="955"/><rect fill="none" height="103.3984" style="stroke:#000000;stroke-width:1.5;" width="801.5" x="1298.5" y="887.6016"/><line style="stroke:#181818;stroke-width:0.5;stroke-dasharray:5.0,5.0;" x1="107" x2="107" y1="41.2969" y2="1050"/><line style="stroke:#181818;stroke-width:0.5;stroke-dasharray:5.0,5.0;" x1="391" x2="391" y1="41.2969" y2="1050"/><line style="stroke:#181818;stroke-width:0.5;stroke-dasharray:5.0,5.0;" x1="711.5" x2="711.5" y1="353.3359" y2="1050"/><line style="stroke:#181818;stroke-width:0.5;stroke-dasharray:5.0,5.0;" x1="867.5" x2="867.5" y1="482.0313" y2="1050"/><line style="stroke:#181818;stroke-width:0.5;stroke-dasharray:5.0,5.0;" x1="1022.5" x2="1022.5" y1="653.8594" y2="1050"/><line style="stroke:#181818;stroke-width:0.5;stroke-dasharray:5.0,5.0;" x1="1383.5" x2="1383.5" y1="753.4219" y2="1050"/><line style="stroke:#181818;stroke-width:0.5;stroke-dasharray:5.0,5.0;" x1="1511.5" x2="1511.5" y1="198.4766" y2="1050"/><line style="stroke:#181818;stroke-width:0.5;stroke-dasharray:5.0,5.0;" x1="1857.5" x2="1857.5" y1="239.7734" y2="1050"/><line style="stroke:#181818;stroke-width:0.5;stroke-dasharray:5.0,5.0;" x1="2048" x2="2048" y1="41.2969" y2="1050"/><rect fill="#3333C4" height="30.2969" rx="2.5" ry="2.5" style="stroke:#181818;stroke-width:0.5;" width="185" x="15" y="10"/><text fill="#FFFFFF" font-family="sans-serif" font-size="14" lengthAdjust="spacing" textLength="171" x="22" y="29.9951">:StaticProgramAnalyzer</text><rect fill="#3333C4" height="30.2969" rx="2.5" ry="2.5" style="stroke:#181818;stroke-width:0.5;" width="129" x="327" y="10"/><text fill="#FFFFFF" font-family="sans-serif" font-size="14" lengthAdjust="spacing" textLength="115" x="334" y="29.9951">:SourceManager</text><rect fill="#3333C4" height="30.2969" rx="2.5" ry="2.5" style="stroke:#181818;stroke-width:0.5;" width="64" x="2016" y="10"/><text fill="#FFFFFF" font-family="sans-serif" font-size="14" lengthAdjust="spacing" textLength="29" x="2033.5" y="29.9951">PKB</text><rect fill="#FFFFFF" height="989.7031" style="stroke:#181818;stroke-width:1.0;" width="10" x="102.5" y="51.2969"/><rect fill="#FFFFFF" height="717.3125" style="stroke:#181818;stroke-width:1.0;" width="10" x="386.5" y="314.6875"/><rect fill="#FFFFFF" height="31.2969" style="stroke:#181818;stroke-width:1.0;" width="10" x="706.5" y="353.8203"/><rect fill="#FFFFFF" height="29.1328" style="stroke:#181818;stroke-width:1.0;" width="10" x="706.5" y="414.25"/><rect fill="#FFFFFF" height="31.2969" style="stroke:#181818;stroke-width:1.0;" width="10" x="863" y="482.5156"/><rect fill="#FFFFFF" height="14" style="stroke:#181818;stroke-width:1.0;" width="10" x="863" y="542.9453"/><rect fill="#FFFFFF" height="29.1328" style="stroke:#181818;stroke-width:1.0;" width="10" x="863" y="586.0781"/><rect fill="#FFFFFF" height="159.9922" style="stroke:#181818;stroke-width:1.0;" width="10" x="1017.5" y="654.3438"/><rect fill="#FFFFFF" height="174.5313" style="stroke:#181818;stroke-width:1.0;" width="10" x="1017.5" y="843.4688"/><rect fill="#FFFFFF" height="31.2969" style="stroke:#181818;stroke-width:1.0;" width="10" x="1379" y="753.9063"/><rect fill="#FFFFFF" height="131.3984" style="stroke:#181818;stroke-width:1.0;" width="10" x="1379" y="872.6016"/><rect fill="#FFFFFF" height="86.5938" style="stroke:#181818;stroke-width:1.0;" width="10" x="1506.5" y="198.9609"/><rect fill="#FFFFFF" height="29.1328" style="stroke:#181818;stroke-width:1.0;" width="10" x="1506.5" y="685.6406"/><rect fill="#FFFFFF" height="16.1641" style="stroke:#181818;stroke-width:1.0;" width="10" x="1853" y="240.2578"/><rect fill="#FFFFFF" height="57.1328" style="stroke:#181818;stroke-width:1.0;" width="10" x="1853" y="925.8672"/><rect fill="#FFFFFF" height="29.1328" style="stroke:#181818;stroke-width:1.0;" width="10" x="2043" y="72.4297"/><rect fill="#FFFFFF" height="29.1328" style="stroke:#181818;stroke-width:1.0;" width="10" x="2043" y="130.6953"/><rect fill="#FFFFFF" height="14" style="stroke:#181818;stroke-width:1.0;" width="10" x="2043" y="955"/><polygon fill="#181818" points="2031,68.4297,2041,72.4297,2031,76.4297,2035,72.4297" style="stroke:#181818;stroke-width:1.0;"/><line style="stroke:#181818;stroke-width:1.0;" x1="112.5" x2="2037" y1="72.4297" y2="72.4297"/><text fill="#000000" font-family="sans-serif" font-size="13" lengthAdjust="spacing" textLength="115" x="1020.25" y="67.3638">getWriteStorage()</text><polygon fill="#181818" points="123.5,97.5625,113.5,101.5625,123.5,105.5625,119.5,101.5625" style="stroke:#181818;stroke-width:1.0;"/><line style="stroke:#181818;stroke-width:1.0;stroke-dasharray:2.0,2.0;" x1="117.5" x2="2047" y1="101.5625" y2="101.5625"/><text fill="#000000" font-family="sans-serif" font-size="13" lengthAdjust="spacing" textLength="170" x="995.25" y="96.4966">WriteStorage writeStorage</text><polygon fill="#181818" points="2031,126.6953,2041,130.6953,2031,134.6953,2035,130.6953" style="stroke:#181818;stroke-width:1.0;"/><line style="stroke:#181818;stroke-width:1.0;" x1="112.5" x2="2037" y1="130.6953" y2="130.6953"/><text fill="#000000" font-family="sans-serif" font-size="13" lengthAdjust="spacing" textLength="114" x="1020.75" y="125.6294">getReadStorage()</text><polygon fill="#181818" points="123.5,155.8281,113.5,159.8281,123.5,163.8281,119.5,159.8281" style="stroke:#181818;stroke-width:1.0;"/><line style="stroke:#181818;stroke-width:1.0;stroke-dasharray:2.0,2.0;" x1="117.5" x2="2047" y1="159.8281" y2="159.8281"/><text fill="#000000" font-family="sans-serif" font-size="13" lengthAdjust="spacing" textLength="166" x="997.25" y="154.7622">ReadStorage readStorage</text><polygon fill="#181818" points="1467.5,184.9609,1477.5,188.9609,1467.5,192.9609,1471.5,188.9609" style="stroke:#181818;stroke-width:1.0;"/><line style="stroke:#181818;stroke-width:1.0;" x1="112.5" x2="1473.5" y1="188.9609" y2="188.9609"/><text fill="#000000" font-family="sans-serif" font-size="13" lengthAdjust="spacing" textLength="398" x="597" y="183.895">Store(WriteStorage: writeStorage, ReadStorage: readStorage)</text><rect fill="#3333C4" height="30.2969" rx="2.5" ry="2.5" style="stroke:#181818;stroke-width:0.5;" width="64" x="1479.5" y="167.8281"/><text fill="#FFFFFF" font-family="sans-serif" font-size="14" lengthAdjust="spacing" textLength="45" x="1489" y="187.8232">:Store</text><polygon fill="#181818" points="1794.5,226.2578,1804.5,230.2578,1794.5,234.2578,1798.5,230.2578" style="stroke:#181818;stroke-width:1.0;"/><line style="stroke:#181818;stroke-width:1.0;" x1="1516.5" x2="1800.5" y1="230.2578" y2="230.2578"/><text fill="#000000" font-family="sans-serif" font-size="13" lengthAdjust="spacing" textLength="256" x="1533.5" y="225.1919">EntityStore(WriteStorage: writeStorage)</text><rect fill="#3333C4" height="30.2969" rx="2.5" ry="2.5" style="stroke:#181818;stroke-width:0.5;" width="103" x="1806.5" y="209.125"/><text fill="#FFFFFF" font-family="sans-serif" font-size="14" lengthAdjust="spacing" textLength="89" x="1813.5" y="229.1201">:EntityStore</text><polygon fill="#181818" points="1527.5,252.4219,1517.5,256.4219,1527.5,260.4219,1523.5,256.4219" style="stroke:#181818;stroke-width:1.0;"/><line style="stroke:#181818;stroke-width:1.0;stroke-dasharray:2.0,2.0;" x1="1521.5" x2="1857" y1="256.4219" y2="256.4219"/><polygon fill="#181818" points="123.5,281.5547,113.5,285.5547,123.5,289.5547,119.5,285.5547" style="stroke:#181818;stroke-width:1.0;"/><line style="stroke:#181818;stroke-width:1.0;stroke-dasharray:2.0,2.0;" x1="117.5" x2="1510.5" y1="285.5547" y2="285.5547"/><text fill="#000000" font-family="sans-serif" font-size="13" lengthAdjust="spacing" textLength="75" x="774.5" y="280.4888">IStore Store</text><polygon fill="#181818" points="374.5,310.6875,384.5,314.6875,374.5,318.6875,378.5,314.6875" style="stroke:#181818;stroke-width:1.0;"/><line style="stroke:#181818;stroke-width:1.0;" x1="112.5" x2="380.5" y1="314.6875" y2="314.6875"/><text fill="#000000" font-family="sans-serif" font-size="13" lengthAdjust="spacing" textLength="255" x="122" y="309.6216">process(string: file_name, IStore: store)</text><polygon fill="#181818" points="629.5,339.8203,639.5,343.8203,629.5,347.8203,633.5,343.8203" style="stroke:#181818;stroke-width:1.0;"/><line style="stroke:#181818;stroke-width:1.0;" x1="396.5" x2="635.5" y1="343.8203" y2="343.8203"/><text fill="#000000" font-family="sans-serif" font-size="13" lengthAdjust="spacing" textLength="211" x="413.5" y="338.7544">SourceTokenizer(ifstream: input)</text><rect fill="#3333C4" height="30.2969" rx="2.5" ry="2.5" style="stroke:#181818;stroke-width:0.5;" width="140" x="641.5" y="322.6875"/><text fill="#FFFFFF" font-family="sans-serif" font-size="14" lengthAdjust="spacing" textLength="126" x="648.5" y="342.6826">:SourceTokenizer</text><polygon fill="#181818" points="407.5,381.1172,397.5,385.1172,407.5,389.1172,403.5,385.1172" style="stroke:#181818;stroke-width:1.0;"/><line style="stroke:#181818;stroke-width:1.0;stroke-dasharray:2.0,2.0;" x1="401.5" x2="710.5" y1="385.1172" y2="385.1172"/><text fill="#000000" font-family="sans-serif" font-size="13" lengthAdjust="spacing" textLength="106" x="501" y="380.0513">SourceTokenizer</text><polygon fill="#181818" points="694.5,410.25,704.5,414.25,694.5,418.25,698.5,414.25" style="stroke:#181818;stroke-width:1.0;"/><line style="stroke:#181818;stroke-width:1.0;" x1="396.5" x2="700.5" y1="414.25" y2="414.25"/><text fill="#000000" font-family="sans-serif" font-size="13" lengthAdjust="spacing" textLength="64" x="519.5" y="409.1841">tokenize()</text><polygon fill="#181818" points="407.5,439.3828,397.5,443.3828,407.5,447.3828,403.5,443.3828" style="stroke:#181818;stroke-width:1.0;"/><line style="stroke:#181818;stroke-width:1.0;stroke-dasharray:2.0,2.0;" x1="401.5" x2="710.5" y1="443.3828" y2="443.3828"/><text fill="#000000" font-family="sans-serif" font-size="13" lengthAdjust="spacing" textLength="84" x="512" y="438.3169">list&lt;Tokens&gt;</text><polygon fill="#181818" points="799.5,468.5156,809.5,472.5156,799.5,476.5156,803.5,472.5156" style="stroke:#181818;stroke-width:1.0;"/><line style="stroke:#181818;stroke-width:1.0;" x1="396.5" x2="805.5" y1="472.5156" y2="472.5156"/><text fill="#000000" font-family="sans-serif" font-size="13" lengthAdjust="spacing" textLength="179" x="514.5" y="467.4497">SourceParser(list&lt;Tokens&gt;)</text><rect fill="#3333C4" height="30.2969" rx="2.5" ry="2.5" style="stroke:#181818;stroke-width:0.5;" width="113" x="811.5" y="451.3828"/><text fill="#FFFFFF" font-family="sans-serif" font-size="14" lengthAdjust="spacing" textLength="99" x="818.5" y="471.3779">:SourceParser</text><polygon fill="#181818" points="407.5,509.8125,397.5,513.8125,407.5,517.8125,403.5,513.8125" style="stroke:#181818;stroke-width:1.0;"/><line style="stroke:#181818;stroke-width:1.0;stroke-dasharray:2.0,2.0;" x1="401.5" x2="867" y1="513.8125" y2="513.8125"/><text fill="#000000" font-family="sans-serif" font-size="13" lengthAdjust="spacing" textLength="85" x="589.75" y="508.7466">SourceParser</text><polygon fill="#181818" points="851,538.9453,861,542.9453,851,546.9453,855,542.9453" style="stroke:#181818;stroke-width:1.0;"/><line style="stroke:#181818;stroke-width:1.0;" x1="396.5" x2="857" y1="542.9453" y2="542.9453"/><text fill="#000000" font-family="sans-serif" font-size="13" lengthAdjust="spacing" textLength="46" x="606.75" y="537.8794">parse()</text><polygon fill="#181818" points="407.5,552.9453,397.5,556.9453,407.5,560.9453,403.5,556.9453" style="stroke:#181818;stroke-width:1.0;"/><line style="stroke:#181818;stroke-width:1.0;stroke-dasharray:2.0,2.0;" x1="401.5" x2="867" y1="556.9453" y2="556.9453"/><polygon fill="#181818" points="851,582.0781,861,586.0781,851,590.0781,855,586.0781" style="stroke:#181818;stroke-width:1.0;"/><line style="stroke:#181818;stroke-width:1.0;" x1="396.5" x2="857" y1="586.0781" y2="586.0781"/><text fill="#000000" font-family="sans-serif" font-size="13" lengthAdjust="spacing" textLength="119" x="570.25" y="581.0122">getProgramNode()</text><polygon fill="#181818" points="407.5,611.2109,397.5,615.2109,407.5,619.2109,403.5,615.2109" style="stroke:#181818;stroke-width:1.0;"/><line style="stroke:#181818;stroke-width:1.0;stroke-dasharray:2.0,2.0;" x1="401.5" x2="867" y1="615.2109" y2="615.2109"/><text fill="#000000" font-family="sans-serif" font-size="13" lengthAdjust="spacing" textLength="180" x="542.25" y="610.145">ProgramNode programNode</text><polygon fill="#181818" points="942.5,640.3438,952.5,644.3438,942.5,648.3438,946.5,644.3438" style="stroke:#181818;stroke-width:1.0;"/><line style="stroke:#181818;stroke-width:1.0;" x1="396.5" x2="948.5" y1="644.3438" y2="644.3438"/><text fill="#000000" font-family="sans-serif" font-size="13" lengthAdjust="spacing" textLength="192" x="579.5" y="639.2778">DesignExtractor(IStore: store)</text><rect fill="#3333C4" height="30.2969" rx="2.5" ry="2.5" style="stroke:#181818;stroke-width:0.5;" width="136" x="954.5" y="623.2109"/><text fill="#FFFFFF" font-family="sans-serif" font-size="14" lengthAdjust="spacing" textLength="122" x="961.5" y="643.2061">:DesignExtractor</text><polygon fill="#181818" points="1494.5,681.6406,1504.5,685.6406,1494.5,689.6406,1498.5,685.6406" style="stroke:#181818;stroke-width:1.0;"/><line style="stroke:#181818;stroke-width:1.0;" x1="1027.5" x2="1500.5" y1="685.6406" y2="685.6406"/><text fill="#000000" font-family="sans-serif" font-size="13" lengthAdjust="spacing" textLength="102" x="1216" y="680.5747">getEntityStore()</text><polygon fill="#181818" points="1038.5,710.7734,1028.5,714.7734,1038.5,718.7734,1034.5,714.7734" style="stroke:#181818;stroke-width:1.0;"/><line style="stroke:#181818;stroke-width:1.0;stroke-dasharray:2.0,2.0;" x1="1032.5" x2="1510.5" y1="714.7734" y2="714.7734"/><text fill="#000000" font-family="sans-serif" font-size="13" lengthAdjust="spacing" textLength="146" x="1196.5" y="709.7075">EntityStore entityStore</text><polygon fill="#181818" points="1306.5,739.9063,1316.5,743.9063,1306.5,747.9063,1310.5,743.9063" style="stroke:#181818;stroke-width:1.0;"/><line style="stroke:#181818;stroke-width:1.0;" x1="1027.5" x2="1312.5" y1="743.9063" y2="743.9063"/><text fill="#000000" font-family="sans-serif" font-size="13" lengthAdjust="spacing" textLength="257" x="1044.5" y="738.8403">EntityExtractor(EntityStore: entityStore)</text><rect fill="#3333C4" height="30.2969" rx="2.5" ry="2.5" style="stroke:#181818;stroke-width:0.5;" width="131" x="1318.5" y="722.7734"/><text fill="#FFFFFF" font-family="sans-serif" font-size="14" lengthAdjust="spacing" textLength="117" x="1325.5" y="742.7686">:EntityExtractor</text><polygon fill="#181818" points="1038.5,781.2031,1028.5,785.2031,1038.5,789.2031,1034.5,785.2031" style="stroke:#181818;stroke-width:1.0;"/><line style="stroke:#181818;stroke-width:1.0;stroke-dasharray:2.0,2.0;" x1="1032.5" x2="1383" y1="785.2031" y2="785.2031"/><text fill="#000000" font-family="sans-serif" font-size="13" lengthAdjust="spacing" textLength="96" x="1157.75" y="780.1372">EntityExtractor</text><polygon fill="#181818" points="407.5,810.3359,397.5,814.3359,407.5,818.3359,403.5,814.3359" style="stroke:#181818;stroke-width:1.0;"/><line style="stroke:#181818;stroke-width:1.0;stroke-dasharray:2.0,2.0;" x1="401.5" x2="1021.5" y1="814.3359" y2="814.3359"/><text fill="#000000" font-family="sans-serif" font-size="13" lengthAdjust="spacing" textLength="103" x="658" y="809.27">DesignExtractor</text><polygon fill="#181818" points="1005.5,839.4688,1015.5,843.4688,1005.5,847.4688,1009.5,843.4688" style="stroke:#181818;stroke-width:1.0;"/><line style="stroke:#181818;stroke-width:1.0;" x1="396.5" x2="1011.5" y1="843.4688" y2="843.4688"/><text fill="#000000" font-family="sans-serif" font-size="13" lengthAdjust="spacing" textLength="241" x="586.5" y="838.4028">extract(ProgramNode: programNode)</text><polygon fill="#181818" points="1367,868.6016,1377,872.6016,1367,876.6016,1371,872.6016" style="stroke:#181818;stroke-width:1.0;"/><line style="stroke:#181818;stroke-width:1.0;" x1="1027.5" x2="1373" y1="872.6016" y2="872.6016"/><text fill="#000000" font-family="sans-serif" font-size="13" lengthAdjust="spacing" textLength="296" x="1055.25" y="867.5356">extractProgram(ProgramNode: programNode)</text><path d="M1298.5,887.6016 L1376.5,887.6016 L1376.5,894.7344 L1366.5,904.7344 L1298.5,904.7344 L1298.5,887.6016 " fill="#EEEEEE" style="stroke:#000000;stroke-width:1.5;"/><rect fill="none" height="103.3984" style="stroke:#000000;stroke-width:1.5;" width="801.5" x="1298.5" y="887.6016"/><text fill="#000000" font-family="sans-serif" font-size="13" font-weight="bold" lengthAdjust="spacing" textLength="33" x="1313.5" y="900.6685">loop</text><text fill="#000000" font-family="sans-serif" font-size="11" font-weight="bold" lengthAdjust="spacing" textLength="112" x="1391.5" y="899.812">[For each entity]</text><polygon fill="#181818" points="1841,921.8672,1851,925.8672,1841,929.8672,1845,925.8672" style="stroke:#181818;stroke-width:1.0;"/><line style="stroke:#181818;stroke-width:1.0;" x1="1389" x2="1847" y1="925.8672" y2="925.8672"/><text fill="#000000" font-family="sans-serif" font-size="13" lengthAdjust="spacing" textLength="157" x="1542.5" y="920.8013">insertEntity(Node: node)</text><polygon fill="#181818" points="2031,951,2041,955,2031,959,2035,955" style="stroke:#181818;stroke-width:1.0;"/><line style="stroke:#181818;stroke-width:1.0;" x1="1863" x2="2037" y1="955" y2="955"/><text fill="#000000" font-family="sans-serif" font-size="13" lengthAdjust="spacing" textLength="161" x="1872.5" y="949.9341">insertEntity(int: stmt_no)</text><polygon fill="#181818" points="1874,965,1864,969,1874,973,1870,969" style="stroke:#181818;stroke-width:1.0;"/><line style="stroke:#181818;stroke-width:1.0;stroke-dasharray:2.0,2.0;" x1="1868" x2="2047" y1="969" y2="969"/><polygon fill="#181818" points="1400,979,1390,983,1400,987,1396,983" style="stroke:#181818;stroke-width:1.0;"/><line style="stroke:#181818;stroke-width:1.0;stroke-dasharray:2.0,2.0;" x1="1394" x2="1857" y1="983" y2="983"/><polygon fill="#181818" points="1038.5,1000,1028.5,1004,1038.5,1008,1034.5,1004" style="stroke:#181818;stroke-width:1.0;"/><line style="stroke:#181818;stroke-width:1.0;stroke-dasharray:2.0,2.0;" x1="1032.5" x2="1383" y1="1004" y2="1004"/><polygon fill="#181818" points="407.5,1014,397.5,1018,407.5,1022,403.5,1018" style="stroke:#181818;stroke-width:1.0;"/><line style="stroke:#181818;stroke-width:1.0;stroke-dasharray:2.0,2.0;" x1="401.5" x2="1021.5" y1="1018" y2="1018"/><polygon fill="#181818" points="123.5,1028,113.5,1032,123.5,1036,119.5,1032" style="stroke:#181818;stroke-width:1.0;"/><line style="stroke:#181818;stroke-width:1.0;stroke-dasharray:2.0,2.0;" x1="117.5" x2="390.5" y1="1032" y2="1032"/><!--SRC=[fLTRRvjA47xdLsoRXrAfaI2-1aMHVAsYazIHxQgFqHRMzYfuSM5zcgGw__tC0ZQpiE0azGimbs- -kJ2iFmHinGKZtsyUHhFRsPoSkUF-fUDO7qgAXwLBplgjIQzxQT1TaBFMTDHpXmPT2p2xtRuHiqtEd4dR1TrHUJlxUZCwa6d1RzGswL8-e_weFnsOrK2fE-WEnYEpEcNbTeUEMGt4NCTr-js2sDriFBaz4BiSEuvxOTAbnAQNFRVlcjL035AUjhfcDH3h3Ht7cPZLGAm3zN861R75SZOVV9qSg0rQ_HOgjgRDo4qdhLwxpa3H6uyw5xK8GB3lTBlr8G2XqswtSLE_BoRp0pyd_LbMyiZ5ZiPqIuRKVrp7qLu4eoYCOiKm_M6RnOO6qMykrcH5muHXrIYaIKB-M0H-qqX83IIL3gCuOF5om_r7mS3MHLBT-fDIB2IBMIIVT-m8TtN5n7xBOYfv9AwlNs7F1KXNr6Uli3xEKwqU9QEat-YMaK7CQMZzXqiny2LO_wcaLzG_LHc5JRWBzclFXCzow3ie8bspGSZNWlXCPPg7V58e2_x2YDivYEvf4AZ6ETZcRNdTqrXod- -ea7MDpa0EiM1yDO0xBj8n-S43kI4Tnunzy7QTXiahD6EseljGBjcJJ4knXKeSob5OxM2weLWB-HmoCcU-f68TmW1lUC38Aehap-WfUzYoxKyM9zc3psDVcIdj3gN_qLj8c4B_FexM03yGD7n-OV57GXDYrE35LaQAzh7FxgW0VZa2bfpqN4QFJF0NpVSeE-aDXKyqrqpGu3Tc2PHvyYHZgWOzTIt96hmdGdBvh7kNP4sSGStoAiFToJY5FNgkzxh_PvWQmrKpOY8WQWGiuCV_fPAPcsnPvjwVNoj4ZwoP_15poHGBQAtzkS03lQMYdeEj4SGZs9NyHWzMm3ISqopcZ0Rl8u4yILpSLoZue4pB1FMkvvEglUnYu_myBS4lEAo7utx67L6X3e5HkwsiwH0E2Jtyq10Q1S2G5Xwdyo8JN0VDtiAcnihUP1QPFOB90UfhY9U5HtPnvCE7mKva3DlI8oiUiWS16_rB7i4ZYRhWoc64edNw8h7qfNGCV3JmoWARhu04erkFm1RUoqh40jigRwtpQc9b7rmYCrmJLvdVsd_9AkI9l4ejakj6IbfLinrRHpFJUjgJZGDLEETubhR1QskOMrVOwYYrj7RgQh-JmxkZmjRAX_zR5Bmxl4SGY7fN3lVrlFB6bRvmLReb0wyiiEjUlpAoLVwO5ki5Ye3NLdNx5LkcGWTlB8PMKtNLQ2kqu6MWLJBnoW9RsxWeQcMjelJBfu66R0glojvjgcTrAiezG72LzfpkFCjkRJHh7XwsDpQ_KkKSFuT_JPXAJS8esi7nFIQGw2RlJ7fshrI_zDda0jwAV0hjBAH8OobduxUlG3r-YDDpY8O4VzJKcx6L3o8gOQdpHFgl8Z-PQ7HIJT6jQZ1J_KfE6biuwhrk1FzovDuoOhM7XkhModt-1m00]--></g></svg>