<?xml version="1.0" encoding="us-ascii" standalone="no"?><svg xmlns="http://www.w3.org/2000/svg" xmlns:xlink="http://www.w3.org/1999/xlink" contentStyleType="text/css" height="433px" preserveAspectRatio="none" style="width:849px;height:433px;background:#FFFFFF;" version="1.1" viewBox="0 0 849 433" width="849px" zoomAndPan="magnify"><defs/><g><rect fill="#DDDDDD" height="414.0234" style="stroke:#181818;stroke-width:0.5;" width="842" x="1" y="6"/><text fill="#FFFFFF" font-family="sans-serif" font-size="13" font-weight="bold" lengthAdjust="spacing" textLength="111" x="366.5" y="18.0669">PKB (From SP)</text><rect fill="#FFFFFF" height="350.5938" style="stroke:#181818;stroke-width:1.0;" width="10" x="42" y="66.4297"/><rect fill="#FFFFFF" height="29.1328" style="stroke:#181818;stroke-width:1.0;" width="10" x="246" y="87.5625"/><rect fill="#FFFFFF" height="29.1328" style="stroke:#181818;stroke-width:1.0;" width="10" x="246" y="204.0938"/><rect fill="#FFFFFF" height="29.1328" style="stroke:#181818;stroke-width:1.0;" width="10" x="246" y="320.625"/><rect fill="#FFFFFF" height="29.1328" style="stroke:#181818;stroke-width:1.0;" width="10" x="392.5" y="145.8281"/><rect fill="#FFFFFF" height="29.1328" style="stroke:#181818;stroke-width:1.0;" width="10" x="547" y="262.3594"/><rect fill="#FFFFFF" height="29.1328" style="stroke:#181818;stroke-width:1.0;" width="10" x="733.5" y="378.8906"/><line style="stroke:#181818;stroke-width:0.5;stroke-dasharray:5.0,5.0;" x1="47" x2="47" y1="56.4297" y2="426.0234"/><line style="stroke:#181818;stroke-width:0.5;stroke-dasharray:5.0,5.0;" x1="251" x2="251" y1="56.4297" y2="426.0234"/><line style="stroke:#181818;stroke-width:0.5;stroke-dasharray:5.0,5.0;" x1="397" x2="397" y1="56.4297" y2="426.0234"/><line style="stroke:#181818;stroke-width:0.5;stroke-dasharray:5.0,5.0;" x1="552" x2="552" y1="56.4297" y2="426.0234"/><line style="stroke:#181818;stroke-width:0.5;stroke-dasharray:5.0,5.0;" x1="738" x2="738" y1="56.4297" y2="426.0234"/><rect fill="#3333C4" height="30.2969" rx="2.5" ry="2.5" style="stroke:#181818;stroke-width:0.5;" width="64" x="15" y="25.1328"/><text fill="#FFFFFF" font-family="sans-serif" font-size="14" lengthAdjust="spacing" textLength="18" x="38" y="45.1279">SP</text><rect fill="#3333C4" height="30.2969" rx="2.5" ry="2.5" style="stroke:#181818;stroke-width:0.5;" width="116" x="193" y="25.1328"/><text fill="#FFFFFF" font-family="sans-serif" font-size="14" lengthAdjust="spacing" textLength="102" x="200" y="45.1279">:WriteStorage</text><rect fill="#3333C4" height="30.2969" rx="2.5" ry="2.5" style="stroke:#181818;stroke-width:0.5;" width="117" x="339" y="25.1328"/><text fill="#FFFFFF" font-family="sans-serif" font-size="14" lengthAdjust="spacing" textLength="103" x="346" y="45.1279">:StmtManager</text><rect fill="#3333C4" height="30.2969" rx="2.5" ry="2.5" style="stroke:#181818;stroke-width:0.5;" width="132" x="486" y="25.1328"/><text fill="#FFFFFF" font-family="sans-serif" font-size="14" lengthAdjust="spacing" textLength="118" x="493" y="45.1279">:FollowsManager</text><rect fill="#3333C4" height="30.2969" rx="2.5" ry="2.5" style="stroke:#181818;stroke-width:0.5;" width="181" x="648" y="25.1328"/><text fill="#FFFFFF" font-family="sans-serif" font-size="14" lengthAdjust="spacing" textLength="167" x="655" y="45.1279">:AssignPatternManager</text><rect fill="#FFFFFF" height="350.5938" style="stroke:#181818;stroke-width:1.0;" width="10" x="42" y="66.4297"/><rect fill="#FFFFFF" height="29.1328" style="stroke:#181818;stroke-width:1.0;" width="10" x="246" y="87.5625"/><rect fill="#FFFFFF" height="29.1328" style="stroke:#181818;stroke-width:1.0;" width="10" x="246" y="204.0938"/><rect fill="#FFFFFF" height="29.1328" style="stroke:#181818;stroke-width:1.0;" width="10" x="246" y="320.625"/><rect fill="#FFFFFF" height="29.1328" style="stroke:#181818;stroke-width:1.0;" width="10" x="392.5" y="145.8281"/><rect fill="#FFFFFF" height="29.1328" style="stroke:#181818;stroke-width:1.0;" width="10" x="547" y="262.3594"/><rect fill="#FFFFFF" height="29.1328" style="stroke:#181818;stroke-width:1.0;" width="10" x="733.5" y="378.8906"/><polygon fill="#181818" points="234,83.5625,244,87.5625,234,91.5625,238,87.5625" style="stroke:#181818;stroke-width:1.0;"/><line style="stroke:#181818;stroke-width:1.0;" x1="52" x2="240" y1="87.5625" y2="87.5625"/><text fill="#000000" font-family="sans-serif" font-size="13" lengthAdjust="spacing" textLength="117" x="90.5" y="82.4966">getStmtManager()</text><polygon fill="#181818" points="63,112.6953,53,116.6953,63,120.6953,59,116.6953" style="stroke:#181818;stroke-width:1.0;"/><line style="stroke:#181818;stroke-width:1.0;stroke-dasharray:2.0,2.0;" x1="57" x2="250" y1="116.6953" y2="116.6953"/><text fill="#000000" font-family="sans-serif" font-size="13" lengthAdjust="spacing" textLength="85" x="109" y="111.6294">stmtManager</text><polygon fill="#181818" points="380.5,141.8281,390.5,145.8281,380.5,149.8281,384.5,145.8281" style="stroke:#181818;stroke-width:1.0;"/><line style="stroke:#181818;stroke-width:1.0;" x1="52" x2="386.5" y1="145.8281" y2="145.8281"/><text fill="#000000" font-family="sans-serif" font-size="13" lengthAdjust="spacing" textLength="155" x="144.75" y="140.7622">insertEntity(int: stmtNo)</text><polygon fill="#181818" points="63,170.9609,53,174.9609,63,178.9609,59,174.9609" style="stroke:#181818;stroke-width:1.0;"/><line style="stroke:#181818;stroke-width:1.0;stroke-dasharray:2.0,2.0;" x1="57" x2="396.5" y1="174.9609" y2="174.9609"/><text fill="#000000" font-family="sans-serif" font-size="13" lengthAdjust="spacing" textLength="27" x="211.25" y="169.895">bool</text><polygon fill="#181818" points="234,200.0938,244,204.0938,234,208.0938,238,204.0938" style="stroke:#181818;stroke-width:1.0;"/><line style="stroke:#181818;stroke-width:1.0;" x1="52" x2="240" y1="204.0938" y2="204.0938"/><text fill="#000000" font-family="sans-serif" font-size="13" lengthAdjust="spacing" textLength="133" x="82.5" y="199.0278">getFollowsManager()</text><polygon fill="#181818" points="63,229.2266,53,233.2266,63,237.2266,59,233.2266" style="stroke:#181818;stroke-width:1.0;"/><line style="stroke:#181818;stroke-width:1.0;stroke-dasharray:2.0,2.0;" x1="57" x2="250" y1="233.2266" y2="233.2266"/><text fill="#000000" font-family="sans-serif" font-size="13" lengthAdjust="spacing" textLength="100" x="101.5" y="228.1606">followsManager</text><polygon fill="#181818" points="535,258.3594,545,262.3594,535,266.3594,539,262.3594" style="stroke:#181818;stroke-width:1.0;"/><line style="stroke:#181818;stroke-width:1.0;" x1="52" x2="541" y1="262.3594" y2="262.3594"/><text fill="#000000" font-family="sans-serif" font-size="13" lengthAdjust="spacing" textLength="276" x="161.5" y="257.2935">insertRelationship(int: stmtNo, int: stmtNo)</text><polygon fill="#181818" points="63,287.4922,53,291.4922,63,295.4922,59,291.4922" style="stroke:#181818;stroke-width:1.0;"/><line style="stroke:#181818;stroke-width:1.0;stroke-dasharray:2.0,2.0;" x1="57" x2="551" y1="291.4922" y2="291.4922"/><text fill="#000000" font-family="sans-serif" font-size="13" lengthAdjust="spacing" textLength="27" x="288.5" y="286.4263">bool</text><polygon fill="#181818" points="234,316.625,244,320.625,234,324.625,238,320.625" style="stroke:#181818;stroke-width:1.0;"/><line style="stroke:#181818;stroke-width:1.0;" x1="52" x2="240" y1="320.625" y2="320.625"/><text fill="#000000" font-family="sans-serif" font-size="13" lengthAdjust="spacing" textLength="175" x="61.5" y="315.5591">getAssignPatternManager()</text><polygon fill="#181818" points="63,345.7578,53,349.7578,63,353.7578,59,349.7578" style="stroke:#181818;stroke-width:1.0;"/><line style="stroke:#181818;stroke-width:1.0;stroke-dasharray:2.0,2.0;" x1="57" x2="250" y1="349.7578" y2="349.7578"/><text fill="#000000" font-family="sans-serif" font-size="13" lengthAdjust="spacing" textLength="143" x="80" y="344.6919">assignPatternManager</text><polygon fill="#181818" points="721.5,374.8906,731.5,378.8906,721.5,382.8906,725.5,378.8906" style="stroke:#181818;stroke-width:1.0;"/><line style="stroke:#181818;stroke-width:1.0;" x1="52" x2="727.5" y1="378.8906" y2="378.8906"/><text fill="#000000" font-family="sans-serif" font-size="13" lengthAdjust="spacing" textLength="444" x="170.75" y="373.8247">insertPattern(int: stmtNo, string: left, shared_ptr&lt;ShuntNode&gt;: right)</text><polygon fill="#181818" points="63,404.0234,53,408.0234,63,412.0234,59,408.0234" style="stroke:#181818;stroke-width:1.0;"/><line style="stroke:#181818;stroke-width:1.0;stroke-dasharray:2.0,2.0;" x1="57" x2="737.5" y1="408.0234" y2="408.0234"/><text fill="#000000" font-family="sans-serif" font-size="13" lengthAdjust="spacing" textLength="27" x="381.75" y="402.9575">bool</text><!--SRC=[bLJRJkCm47tFLtZXOK5Q98UsQQWGKfgs22tGgW7nY4moRIrIk-ku2onQYG_P_Jc-P2TfGntMuU8tpvavS-PauYy9JBW0Sdbo7GvFXsEoxVRy0qgTBw-0wmkNRFkDVjixi63xPBin2Djkru8raDFpV2jdaspJVjD5x0Ky7HwVXAMO1fwmQSCAFQ4V-eF03gCaB_22NcY72rMkrwLs68MvrAM-jn5sDkprJqjX1prAtNqRLWWR7BHTtxN3A0n77ZGyEup2sbrAQTyEex0M-aM3ZR3eOZWEZlkbjA3XDmopA-XAtA3VQ3Vh4d9vlR2rNyk00dtgUVKjaA7LR3RDZtePzSUbFbeSnybkkLWmnUQao-BRgP9BaOGobIfNM1mp9vgnHDvnCIKJbcPWGc7AiemyEWJFG0fT8IcYNQaIK1Sp7jyAm5pNY5Qpl-P0f461r0yBUA4xF0Ind8DYcajnTFI1V2umEc4nV23xPPzgSMEOF7hEva02nLdg_3Qj26ADsO__ZRVnlu2imRTu8_Yn1173cleCJMHJ258-5II6VD9ro_kS9UA_WBYjCZHYIP9_E6hcV6wk4LEQntp1XAxxq2kIiXUkRuNWZ8jYJQvuecUaHUtSPRLBtzYy3TA32Lkc-WBkTM7579qexTXaBN2xqQn8FwH0nX1h9gOfBl2C9q0cKkeRUR-wp65-0ofRNMAkOan3a8o-TydEG4dKCjfr5eONMz5eYx0Cu-RpLKbvVlhJkL9Sem2fKCVpqz-ymWozMHlfkJvZ0jFKgjNcNbktrHd8D9LtcLbO3RtPCyWoj7F4D3efrWLhtJQemkM0I4XkAOir_yaqFayZnq63zeugGtV85BGnpCxkfiBCSofExI5BDEgGR5Fe960lN3SrUdG85naetHUQwuSTV29MJETormbUv1hKfjbbwnifKxEdcLytPzNxpuqwgTI-DssrKpdm6DBYvSncV66E_OtOFQYoEAzMfyw9LrLrPjXMw7EMC0l3UyROkfRshADLPpAjyD7fa1Gc6cypfY2vNcXr6CsM-5BA18uwHF7fJ1l6sReurd-cpaHRyZy0]--></g></svg>